<svg width="224" height="214" viewBox="0 0 224 214" fill="none" xmlns="http://www.w3.org/2000/svg">
<rect width="224" height="214" fill="black" fill-opacity="0"/>
<rect width="52.5" height="138.967" fill="black" fill-opacity="0" transform="translate(0 70.7311)"/>
<rect width="52.5" height="138.967" fill="black" fill-opacity="0" transform="translate(0 70.7311)"/>
<path d="M52.5 70.7311H0V209.698H52.5V70.7311Z" fill="white"/>
<rect width="158.375" height="214" fill="black" fill-opacity="0" transform="translate(65.625)"/>
<rect width="158.375" height="214" fill="black" fill-opacity="0" transform="translate(65.625)"/>
<path d="M219.228 128.814C219.228 123.801 217.569 119.17 214.774 115.441C220.358 111.385 224 104.798 224 97.3723C224 85.0749 214.024 75.07 201.762 75.07H151.211L158.246 50.6994V39.0224C158.246 17.5056 140.791 0 119.336 0C114.134 0 109.902 4.24466 109.902 9.46164V35.3491C106.394 40.9802 86.9111 62.9056 65.625 85.8769V201.05L83.7891 207.881C94.5853 211.941 105.906 214 117.437 214H187.445C199.707 214 209.683 203.995 209.683 191.697C209.683 186.687 208.026 182.056 205.234 178.328C210.816 174.272 214.455 167.682 214.455 160.255C214.455 155.243 212.797 150.611 210.002 146.883C215.586 142.828 219.228 136.241 219.228 128.814Z" fill="white"/>
</svg>
