<svg width="64" height="70" viewBox="0 0 64 70" fill="none" xmlns="http://www.w3.org/2000/svg">
<rect width="64" height="70" fill="black" fill-opacity="0"/>
<rect width="64" height="70" fill="black" fill-opacity="0"/>
<rect width="64" height="70" fill="black" fill-opacity="0"/>
<path d="M58.13 5.26H39.29V1.39C39.2874 1.02043 39.1387 0.666901 38.8764 0.406509C38.6142 0.146117 38.2596 -9.42765e-06 37.89 4.562e-10L26.06 4.562e-10C25.6904 -9.42765e-06 25.3358 0.146117 25.0736 0.406509C24.8113 0.666901 24.6626 1.02043 24.66 1.39V5.26H5.82C4.27725 5.26264 2.79845 5.87667 1.70756 6.96756C0.61667 8.05845 0.00264396 9.53725 0 11.08L0 42.22C0.0105612 43.7566 0.628397 45.2267 1.71872 46.3095C2.80904 47.3924 4.28335 48 5.82 48H24.66V68.61C24.6626 68.9796 24.8113 69.3331 25.0736 69.5935C25.3358 69.8539 25.6904 70 26.06 70H37.89C38.2596 70 38.6142 69.8539 38.8764 69.5935C39.1387 69.3331 39.2874 68.9796 39.29 68.61V48H58.13C58.8951 48.0066 59.6541 47.8622 60.3633 47.5752C61.0726 47.2882 61.7184 46.8641 62.2636 46.3272C62.8088 45.7904 63.2428 45.1513 63.5408 44.4465C63.8387 43.7418 63.9948 42.9851 64 42.22V11.08C63.9974 9.53725 63.3833 8.05845 62.2924 6.96756C61.2016 5.87667 59.7227 5.26264 58.18 5.26H58.13ZM27.45 2.79H36.5V5.26H27.5L27.45 2.79ZM36.5 67.21H27.5V48H36.5V67.21ZM61.16 42.21C61.16 43.0056 60.8439 43.7687 60.2813 44.3313C59.7187 44.8939 58.9557 45.21 58.16 45.21H5.82C5.02435 45.21 4.26129 44.8939 3.69868 44.3313C3.13607 43.7687 2.82 43.0056 2.82 42.21V11.08C2.82 10.2844 3.13607 9.52129 3.69868 8.95868C4.26129 8.39607 5.02435 8.08 5.82 8.08H58.13C58.9257 8.08 59.6887 8.39607 60.2513 8.95868C60.8139 9.52129 61.13 10.2844 61.13 11.08V42.22L61.16 42.21Z" fill="#4792FD"/>
<path d="M34.0699 51.31C33.6986 51.31 33.3425 51.4575 33.08 51.72C32.8174 51.9826 32.6699 52.3387 32.6699 52.71V53.27C32.6995 53.6196 32.8593 53.9453 33.1177 54.1827C33.376 54.4201 33.7141 54.5518 34.0649 54.5518C34.4158 54.5518 34.7538 54.4201 35.0122 54.1827C35.2705 53.9453 35.4303 53.6196 35.4599 53.27V52.71C35.4599 52.3404 35.3138 51.9858 35.0534 51.7236C34.793 51.4613 34.4395 51.3126 34.0699 51.31Z" fill="#4792FD"/>
<path d="M34.07 55.92C33.7005 55.92 33.3459 56.0661 33.0836 56.3265C32.8213 56.5869 32.6727 56.9404 32.67 57.31V64.7C32.6537 64.8931 32.6776 65.0875 32.7403 65.2709C32.8029 65.4543 32.903 65.6227 33.0341 65.7654C33.1653 65.9082 33.3246 66.0221 33.5021 66.1C33.6795 66.178 33.8712 66.2182 34.065 66.2182C34.2589 66.2182 34.4506 66.178 34.628 66.1C34.8055 66.0221 34.9648 65.9082 35.0959 65.7654C35.2271 65.6227 35.3271 65.4543 35.3898 65.2709C35.4525 65.0875 35.4764 64.8931 35.46 64.7V57.31C35.46 56.9413 35.3136 56.5878 35.0529 56.3271C34.7922 56.0664 34.4387 55.92 34.07 55.92Z" fill="#4792FD"/>
<path d="M25.5004 14.22H20.6104C20.1304 14.22 19.6104 14.45 19.6104 14.9V23.9C19.6104 24.36 20.1604 24.58 20.7104 24.58C21.2603 24.58 21.8104 24.36 21.8104 23.9V20.22H24.0004C24.4704 20.22 24.6604 19.77 24.6604 19.39C24.6604 19.01 24.4204 18.53 24.0004 18.53H21.8504V16.14H25.5004C25.9304 16.14 26.1704 15.69 26.1704 15.14C26.1704 14.59 25.9704 14.19 25.5004 14.19V14.22Z" fill="#4792FD"/>
<path d="M31.2901 14.22C29.3401 14.22 27.8301 15.13 27.8301 17.55V21.29C27.8301 23.72 29.3401 24.63 31.2901 24.63C33.2401 24.63 34.7701 23.72 34.7701 21.29V17.55C34.7701 15.13 33.2401 14.22 31.2901 14.22ZM32.5601 17.55V21.29C32.5601 22.29 32.0801 22.71 31.2901 22.71C30.5001 22.71 30.0001 22.27 30.0001 21.29V17.55C30.0001 16.55 30.4601 16.14 31.2501 16.14C32.0401 16.14 32.5201 16.58 32.5201 17.55H32.5601Z" fill="#4792FD"/>
<path d="M44.3904 23.23L42.6704 20.11C43.227 19.8802 43.6942 19.4765 44.0024 18.9592C44.3106 18.442 44.4432 17.8389 44.3804 17.24C44.3804 14.94 42.8404 14.24 40.9104 14.24H38.0004C37.9117 14.2372 37.8233 14.2527 37.7408 14.2853C37.6582 14.318 37.5832 14.3673 37.5205 14.4301C37.4577 14.4928 37.4084 14.5678 37.3757 14.6504C37.3431 14.7329 37.3276 14.8213 37.3304 14.91V23.91C37.3304 24.37 37.8804 24.59 38.4304 24.59C38.9804 24.59 39.5304 24.37 39.5304 23.91V20.51H40.4604L42.3904 24.27C42.459 24.3975 42.5618 24.5034 42.6872 24.5758C42.8126 24.6482 42.9557 24.6843 43.1004 24.68C43.4267 24.6731 43.741 24.5555 43.9917 24.3466C44.2424 24.1376 44.4147 23.8497 44.4804 23.53C44.484 23.4414 44.4595 23.3539 44.4104 23.28L44.3904 23.23ZM40.9104 18.77H39.5104V16.14H40.9104C41.7004 16.14 42.1804 16.47 42.1804 17.45C42.1804 18.43 41.7004 18.77 40.9104 18.77Z" fill="#4792FD"/>
<path d="M17.6699 30.93C17.6699 30.49 18.0799 30.08 19.0799 30.08C20.2399 30.08 20.5099 30.62 21.0199 30.62C21.5299 30.62 21.8899 29.84 21.8899 29.46C21.8899 28.36 19.8299 28.22 19.0799 28.22C17.3199 28.22 15.4699 29.03 15.4699 31.14C15.4699 34.45 19.9399 34.14 19.9399 35.86C19.9399 36.54 19.2199 36.79 18.5699 36.79C17.2599 36.79 16.8399 35.79 16.1699 35.79C15.4999 35.79 15.1699 36.49 15.1699 36.97C15.1699 37.9 16.7299 38.81 18.5799 38.81C20.5799 38.81 22.1099 37.71 22.1099 35.67C22.1099 32.11 17.6299 32.38 17.6299 30.97L17.6699 30.93Z" fill="#4792FD"/>
<path d="M31.8299 37.57L29.1899 29C29.0539 28.7447 28.8431 28.5369 28.5857 28.4047C28.3284 28.2724 28.0368 28.222 27.7499 28.26C27.0999 28.26 26.4599 28.5 26.3099 29L23.6799 37.61C23.6757 37.6599 23.6757 37.7101 23.6799 37.76C23.6799 38.28 24.4799 38.67 25.0899 38.67C25.2385 38.6923 25.3903 38.664 25.5209 38.5897C25.6515 38.5153 25.7533 38.3992 25.8099 38.26L26.2899 36.49H29.2899L29.7699 38.26C29.8499 38.55 30.1299 38.67 30.4899 38.67C31.0899 38.67 31.8999 38.28 31.8999 37.76C31.9037 37.7101 31.9037 37.6599 31.8999 37.61L31.8299 37.57ZM26.7199 34.76L27.7199 30.97L28.7199 34.76H26.7199Z" fill="#4792FD"/>
<path d="M39.23 36.71H36V29C36 28.53 35.45 28.34 34.9 28.34C34.35 28.34 33.79 28.53 33.79 29V38C33.79 38.45 34.27 38.68 34.79 38.68H39.25C39.67 38.68 39.88 38.2 39.88 37.68C39.88 37.16 39.67 36.68 39.25 36.68L39.23 36.71Z" fill="#4792FD"/>
<path d="M47.8701 36.71H44.0801V34.31H46.2001C46.6701 34.31 46.8601 33.85 46.8601 33.47C46.8601 33.09 46.6201 32.61 46.2001 32.61H44.0801V30.23H47.8701C48.2901 30.23 48.5301 29.77 48.5301 29.23C48.5301 28.69 48.3301 28.29 47.8701 28.29H42.8701C42.3901 28.29 41.8701 28.51 41.8701 28.96V37.96C41.8701 38.41 42.3501 38.64 42.8701 38.64H47.8701C48.3301 38.64 48.5301 38.14 48.5301 37.64C48.5301 37.14 48.2901 36.64 47.8701 36.64V36.71Z" fill="#4792FD"/>
</svg>
