<svg width="71" height="71" viewBox="0 0 71 71" fill="none" xmlns="http://www.w3.org/2000/svg">
<rect width="70.0503" height="70.056" fill="black" fill-opacity="0"/>
<rect width="70.0503" height="70.056" fill="black" fill-opacity="0"/>
<rect width="70.0503" height="70.056" fill="black" fill-opacity="0"/>
<path d="M52.8201 46.22C52.711 46.3279 52.6243 46.4563 52.5652 46.598C52.506 46.7396 52.4756 46.8915 52.4756 47.045C52.4756 47.1985 52.506 47.3504 52.5652 47.492C52.6243 47.6336 52.711 47.7621 52.8201 47.87L55.2901 50.35C55.513 50.5655 55.8101 50.6872 56.1201 50.69C56.3515 50.6891 56.5773 50.6196 56.7692 50.4904C56.9611 50.3611 57.1103 50.1779 57.1981 49.9638C57.2858 49.7498 57.3082 49.5145 57.2622 49.2878C57.2163 49.0611 57.1042 48.853 56.9401 48.69L54.4701 46.21C54.2496 45.9944 53.9535 45.8737 53.6451 45.8737C53.3367 45.8737 53.0406 45.9944 52.8201 46.21V46.22Z" fill="#4792FD"/>
<path d="M65.3405 26.15V37.34H60.6705V31.5C60.6855 31.338 60.6666 31.1745 60.6148 31.0202C60.5631 30.8659 60.4798 30.7241 60.3702 30.6038C60.2605 30.4835 60.127 30.3874 59.9781 30.3217C59.8292 30.2559 59.6682 30.222 59.5055 30.222C59.3427 30.222 59.1818 30.2559 59.0329 30.3217C58.884 30.3874 58.7504 30.4835 58.6408 30.6038C58.5312 30.7241 58.4478 30.8659 58.3961 31.0202C58.3444 31.1745 58.3254 31.338 58.3405 31.5V38.5C58.3392 38.6532 58.3682 38.8051 58.4259 38.947C58.4836 39.0889 58.5688 39.218 58.6767 39.3267C58.7845 39.4355 58.9128 39.5218 59.0542 39.5808C59.1956 39.6397 59.3473 39.67 59.5005 39.67H66.5005C66.8108 39.67 67.1084 39.5467 67.3278 39.3273C67.5472 39.1079 67.6705 38.8103 67.6705 38.5V28.5L68.0105 28.85C68.2334 29.0655 68.5305 29.1872 68.8405 29.19C69.1476 29.1877 69.4418 29.0658 69.6605 28.85C69.7696 28.7421 69.8563 28.6137 69.9154 28.472C69.9746 28.3304 70.005 28.1785 70.005 28.025C70.005 27.8715 69.9746 27.7196 69.9154 27.578C69.8563 27.4364 69.7696 27.3079 69.6605 27.2L67.3305 24.86L56.8305 14.36C56.61 14.1444 56.3139 14.0237 56.0055 14.0237C55.6971 14.0237 55.401 14.1444 55.1805 14.36C55.0713 14.4679 54.9847 14.5964 54.9255 14.738C54.8664 14.8796 54.8359 15.0315 54.8359 15.185C54.8359 15.3385 54.8664 15.4904 54.9255 15.632C54.9847 15.7737 55.0713 15.9021 55.1805 16.01L65.3405 26.15Z" fill="#4792FD"/>
<path d="M39.3302 24.84L28.8302 14.34C28.6097 14.1244 28.3136 14.0037 28.0052 14.0037C27.6968 14.0037 27.4007 14.1244 27.1802 14.34L16.6802 24.84L14.3502 27.18C14.2282 27.285 14.1291 27.4141 14.0592 27.5592C13.9894 27.7042 13.9502 27.8622 13.9442 28.0231C13.9382 28.184 13.9654 28.3444 14.0242 28.4943C14.0831 28.6442 14.1722 28.7803 14.286 28.8942C14.3999 29.008 14.536 29.0971 14.6859 29.156C14.8358 29.2148 14.9962 29.242 15.1571 29.236C15.318 29.23 15.476 29.1908 15.621 29.121C15.7661 29.0511 15.8952 28.952 16.0002 28.83L16.3402 28.48V38.48C16.3402 38.7903 16.4635 39.0879 16.6829 39.3073C16.9023 39.5267 17.1999 39.65 17.5102 39.65H25.6802C25.8334 39.65 25.985 39.6197 26.1264 39.5607C26.2678 39.5018 26.3962 39.4155 26.504 39.3067C26.6119 39.1979 26.6971 39.0689 26.7548 38.927C26.8125 38.7851 26.8415 38.6332 26.8402 38.48V32.67H29.1802V38.5C29.1789 38.6532 29.2079 38.8051 29.2656 38.947C29.3233 39.0889 29.4086 39.2179 29.5164 39.3267C29.6243 39.4355 29.7526 39.5218 29.894 39.5807C30.0354 39.6397 30.187 39.67 30.3402 39.67H38.5002C38.8105 39.67 39.1081 39.5467 39.3275 39.3273C39.5469 39.1079 39.6702 38.8103 39.6702 38.5V28.5L40.0102 28.85C40.2294 29.068 40.526 29.1904 40.8352 29.1904C41.1444 29.1904 41.441 29.068 41.6602 28.85C41.7694 28.7421 41.856 28.6136 41.9151 28.472C41.9743 28.3304 42.0047 28.1785 42.0047 28.025C42.0047 27.8715 41.9743 27.7196 41.9151 27.578C41.856 27.4364 41.7694 27.3079 41.6602 27.2L39.3302 24.84ZM37.3302 37.34H31.5002V31.5C31.5002 31.3463 31.4699 31.1942 31.4111 31.0523C31.3523 30.9103 31.2662 30.7813 31.1575 30.6727C31.0489 30.564 30.9199 30.4779 30.7779 30.4191C30.636 30.3603 30.4839 30.33 30.3302 30.33H25.6702C25.3599 30.33 25.0623 30.4533 24.8429 30.6727C24.6235 30.8921 24.5002 31.1897 24.5002 31.5V37.34H18.6702V26.15L28.0002 16.82L37.3402 26.15L37.3302 37.34Z" fill="#4792FD"/>
<path d="M28.0002 4.67001C23.3835 4.67001 18.8706 6.03913 15.0321 8.60421C11.1937 11.1693 8.20212 14.8151 6.43586 19.0805C4.66961 23.3459 4.20798 28.0393 5.10937 32.5671C6.01076 37.0949 8.23467 41.2537 11.4998 44.5174C14.765 47.7812 18.9247 50.0033 23.4529 50.9028C27.9811 51.8022 32.6743 51.3386 36.9389 49.5705C41.2036 47.8024 44.8481 44.8093 47.4115 40.9697C49.975 37.1302 51.3421 32.6167 51.3402 28C51.3349 21.8124 48.8738 15.8799 44.4976 11.5055C40.1213 7.13117 34.1878 4.67266 28.0002 4.67001ZM28.0002 49C23.8468 49 19.7866 47.7684 16.3332 45.4609C12.8798 43.1534 10.1881 39.8736 8.59869 36.0364C7.00925 32.1991 6.59338 27.9767 7.40367 23.9031C8.21396 19.8295 10.214 16.0877 13.1509 13.1508C16.0878 10.2139 19.8297 8.21381 23.9033 7.40352C27.9769 6.59323 32.1993 7.0091 36.0365 8.59854C39.8738 10.188 43.1535 12.8796 45.461 16.333C47.7685 19.7865 49.0002 23.8466 49.0002 28C49.0002 33.5696 46.7877 38.911 42.8494 42.8493C38.9111 46.7875 33.5697 49 28.0002 49Z" fill="#4792FD"/>
<path d="M60.1197 51.87C60.0105 51.7615 59.881 51.6757 59.7386 51.6173C59.5961 51.559 59.4436 51.5293 59.2897 51.53C59.1373 51.5295 58.9863 51.5593 58.8455 51.6177C58.7048 51.6761 58.577 51.7618 58.4697 51.87L55.1797 55.18C54.9872 55.4037 54.8863 55.692 54.8973 55.9869C54.9084 56.2819 55.0305 56.5618 55.2392 56.7705C55.4479 56.9792 55.7278 57.1013 56.0228 57.1123C56.3177 57.1234 56.606 57.0225 56.8297 56.83L59.2997 54.35L66.6397 61.7C67.3027 62.3551 67.6784 63.2467 67.684 64.1788C67.6896 65.1109 67.3248 66.007 66.6697 66.67C66.3453 66.9983 65.9595 67.2595 65.5341 67.4387C65.1088 67.6179 64.6524 67.7115 64.1909 67.7143C63.2588 67.72 62.3627 67.3551 61.6997 66.7L47.8697 52.82C47.6459 52.6275 47.3577 52.5266 47.0628 52.5377C46.7678 52.5487 46.4879 52.6708 46.2792 52.8795C46.0705 53.0883 45.9484 53.3681 45.9373 53.6631C45.9263 53.9581 46.0272 54.2463 46.2197 54.47L60.0497 68.3C60.8628 69.1324 61.9065 69.7024 63.0463 69.9366C64.1861 70.1709 65.3699 70.0587 66.4454 69.6145C67.5209 69.1703 68.4389 68.4144 69.0812 67.4442C69.7236 66.4739 70.0609 65.3336 70.0497 64.17C70.0535 63.404 69.9041 62.6449 69.6105 61.9374C69.3168 61.2299 68.8848 60.5882 68.3397 60.05L60.1197 51.87Z" fill="#4792FD"/>
<path d="M56 28C56 22.4621 54.3578 17.0486 51.2812 12.444C48.2045 7.83947 43.8315 4.25064 38.7151 2.13139C33.5988 0.0121322 27.969 -0.542361 22.5375 0.538025C17.106 1.61841 12.1169 4.28515 8.20102 8.20102C4.28515 12.1169 1.61841 17.106 0.538025 22.5375C-0.542361 27.969 0.0121322 33.5988 2.13139 38.7151C4.25064 43.8315 7.83947 48.2045 12.444 51.2812C17.0486 54.3578 22.4621 56 28 56C35.4261 56 42.548 53.05 47.799 47.799C53.05 42.548 56 35.4261 56 28ZM28 53.67C22.923 53.67 17.9599 52.1645 13.7385 49.3438C9.51711 46.5232 6.22693 42.5141 4.28402 37.8235C2.34112 33.1329 1.83277 27.9715 2.82325 22.992C3.81374 18.0126 6.25857 13.4386 9.84858 9.84858C13.4386 6.25857 18.0126 3.81374 22.992 2.82325C27.9715 1.83277 33.1329 2.34112 37.8235 4.28402C42.5141 6.22693 46.5232 9.51711 49.3438 13.7385C52.1645 17.9599 53.67 22.923 53.67 28C53.6621 34.8057 50.955 41.3303 46.1427 46.1427C41.3303 50.955 34.8057 53.6621 28 53.67Z" fill="#4792FD"/>
</svg>
