<svg width="55" height="70" viewBox="0 0 55 70" fill="none" xmlns="http://www.w3.org/2000/svg">
<rect width="54.69" height="69.9986" fill="black" fill-opacity="0"/>
<rect width="54.69" height="69.9986" fill="black" fill-opacity="0"/>
<path d="M49.22 4.37855H38.28C37.7718 3.69906 37.1123 3.14736 36.3538 2.76721C35.5952 2.38706 34.7585 2.18894 33.91 2.18855H31.12C30.7393 1.5236 30.1897 0.971011 29.5268 0.586703C28.8639 0.202394 28.1112 0 27.345 0C26.5788 0 25.8261 0.202394 25.1632 0.586703C24.5003 0.971011 23.9507 1.5236 23.57 2.18855H20.78C19.9315 2.18894 19.0948 2.38706 18.3362 2.76721C17.5777 3.14736 16.9182 3.69906 16.41 4.37855H5.47C4.021 4.37855 2.63119 4.95347 1.60566 5.97714C0.58012 7.0008 0.002649 8.38955 0 9.83855L0 64.5285C0 65.9793 0.576302 67.3706 1.60213 68.3964C2.62795 69.4222 4.01927 69.9986 5.47 69.9986H49.22C50.6699 69.9959 52.0597 69.4188 53.085 68.3935C54.1102 67.3682 54.6874 65.9785 54.69 64.5285V9.83855C54.6847 8.39036 54.1064 7.00314 53.0814 5.98005C52.0565 4.95696 50.6682 4.38118 49.22 4.37855ZM17.5 7.65855C17.5 6.78864 17.8456 5.95436 18.4607 5.33924C19.0758 4.72412 19.9101 4.37855 20.78 4.37855H24.26C24.4811 4.37267 24.6951 4.2997 24.8737 4.16931C25.0523 4.03893 25.187 3.8573 25.26 3.64855C25.4079 3.22262 25.6847 2.85332 26.0521 2.59196C26.4195 2.3306 26.8591 2.19017 27.31 2.19017C27.7609 2.19017 28.2005 2.3306 28.5679 2.59196C28.9353 2.85332 29.2121 3.22262 29.36 3.64855C29.4353 3.85579 29.5707 4.03591 29.7488 4.16592C29.9269 4.29594 30.1397 4.36996 30.36 4.37855H33.85C34.7191 4.38119 35.5518 4.7276 36.1664 5.34215C36.7809 5.9567 37.1274 6.78945 37.13 7.65855V10.9385H17.5V7.65855ZM52.5 64.5285C52.5 65.3985 52.1544 66.2327 51.5393 66.8479C50.9242 67.463 50.0899 67.8085 49.22 67.8085H5.47C5.03926 67.8085 4.61275 67.7237 4.2148 67.5589C3.81685 67.394 3.45527 67.1524 3.15069 66.8479C2.84611 66.5433 2.60451 66.1817 2.43968 65.7838C2.27484 65.3858 2.19 64.9593 2.19 64.5285V9.83855C2.19 8.96864 2.53557 8.13436 3.15069 7.51924C3.76581 6.90412 4.60009 6.55855 5.47 6.55855H15.47C15.3978 6.92078 15.3609 7.28918 15.36 7.65855V11.9985C15.36 12.2903 15.4759 12.5701 15.6822 12.7764C15.8885 12.9827 16.1683 13.0985 16.46 13.0985H38.28C38.424 13.0986 38.5665 13.07 38.6994 13.0146C38.8323 12.9592 38.953 12.878 39.0543 12.7758C39.1557 12.6735 39.2357 12.5521 39.2899 12.4187C39.3441 12.2853 39.3713 12.1425 39.37 11.9985V7.65855C39.3741 7.28894 39.3372 6.92002 39.26 6.55855H49.26C50.123 6.56907 50.947 6.91928 51.5535 7.53327C52.16 8.14725 52.5001 8.97552 52.5 9.83855V64.5285Z" fill="#4792FD"/>
<path d="M49.2201 8.74853H42.6601C42.5075 8.73393 42.3536 8.75139 42.2081 8.79977C42.0627 8.84816 41.9289 8.92642 41.8155 9.02952C41.7021 9.13262 41.6114 9.25829 41.5494 9.39847C41.4874 9.53865 41.4554 9.69024 41.4554 9.84353C41.4554 9.99682 41.4874 10.1484 41.5494 10.2886C41.6114 10.4288 41.7021 10.5544 41.8155 10.6575C41.9289 10.7606 42.0627 10.8389 42.2081 10.8873C42.3536 10.9357 42.5075 10.9531 42.6601 10.9385H48.1201V49.2185H37.1901C36.3202 49.2185 35.4859 49.5641 34.8708 50.1792C34.2557 50.7943 33.9101 51.6286 33.9101 52.4985V59.0585C33.9101 59.3476 34.025 59.6249 34.2294 59.8293C34.4338 60.0337 34.711 60.1485 35.0001 60.1485C35.2892 60.1485 35.5665 60.0337 35.7709 59.8293C35.9753 59.6249 36.0901 59.3476 36.0901 59.0585V52.4985C36.0901 52.3545 36.1186 52.212 36.174 52.0791C36.2294 51.9462 36.3106 51.8256 36.4129 51.7242C36.5152 51.6229 36.6365 51.5428 36.7699 51.4886C36.9033 51.4344 37.0461 51.4072 37.1901 51.4085H46.5801L34.5801 63.4085H6.58012V10.9385H12.0001C12.1527 10.9531 12.3067 10.9357 12.4521 10.8873C12.5976 10.8389 12.7313 10.7606 12.8447 10.6575C12.9582 10.5544 13.0488 10.4288 13.1108 10.2886C13.1728 10.1484 13.2049 9.99682 13.2049 9.84353C13.2049 9.69024 13.1728 9.53865 13.1108 9.39847C13.0488 9.25829 12.9582 9.13262 12.8447 9.02952C12.7313 8.92642 12.5976 8.84816 12.4521 8.79977C12.3067 8.75139 12.1527 8.73393 12.0001 8.74853H5.47012C5.32614 8.74721 5.18332 8.77443 5.04992 8.82861C4.91652 8.8828 4.79518 8.96288 4.6929 9.06423C4.59062 9.16557 4.50944 9.28618 4.45403 9.41908C4.39863 9.55198 4.37011 9.69454 4.37012 9.83853V64.5285C4.37011 64.6725 4.39863 64.8151 4.45403 64.948C4.50944 65.0809 4.59062 65.2015 4.6929 65.3028C4.79518 65.4042 4.91652 65.4843 5.04992 65.5384C5.18332 65.5926 5.32614 65.6199 5.47012 65.6185H35.3201H35.3801H35.4401H35.5001L35.5901 65.5385L50.0001 51.0885L50.0801 50.9885L50.1501 50.8685C50.1727 50.8349 50.1896 50.7977 50.2001 50.7585C50.2034 50.7119 50.2034 50.6651 50.2001 50.6185C50.2049 50.5753 50.2049 50.5317 50.2001 50.4885V9.83853C50.2001 9.69539 50.1719 9.55365 50.1171 9.42141C50.0624 9.28916 49.9821 9.169 49.8809 9.06778C49.7796 8.96657 49.6595 8.88628 49.5272 8.8315C49.395 8.77672 49.2533 8.74853 49.1101 8.74853H49.2201Z" fill="#4792FD"/>
<path d="M27.3405 4.37856C27.1972 4.37765 27.0553 4.4055 26.923 4.46047C26.7907 4.51544 26.6709 4.5964 26.5705 4.69856C26.3665 4.90292 26.252 5.17984 26.252 5.46856C26.252 5.75728 26.3665 6.03421 26.5705 6.23856C26.6709 6.34072 26.7907 6.42169 26.923 6.47665C27.0553 6.53162 27.1972 6.55948 27.3405 6.55856C27.6295 6.55856 27.9068 6.44372 28.1112 6.23931C28.3156 6.03489 28.4305 5.75765 28.4305 5.46856C28.4305 5.17948 28.3156 4.90223 28.1112 4.69782C27.9068 4.4934 27.6295 4.37856 27.3405 4.37856Z" fill="#4792FD"/>
<path d="M31.7204 20.7786H42.6604C42.9327 20.7525 43.1856 20.6259 43.3696 20.4234C43.5537 20.2209 43.6556 19.9572 43.6556 19.6836C43.6556 19.41 43.5537 19.1462 43.3696 18.9437C43.1856 18.7412 42.9327 18.6146 42.6604 18.5886H31.7204C31.5678 18.574 31.4138 18.5914 31.2684 18.6398C31.1229 18.6882 30.9892 18.7664 30.8758 18.8695C30.7623 18.9726 30.6717 19.0983 30.6097 19.2385C30.5477 19.3787 30.5156 19.5303 30.5156 19.6836C30.5156 19.8368 30.5477 19.9884 30.6097 20.1286C30.6717 20.2688 30.7623 20.3945 30.8758 20.4976C30.9892 20.6007 31.1229 20.6789 31.2684 20.7273C31.4138 20.7757 31.5678 20.7932 31.7204 20.7786Z" fill="#4792FD"/>
<path d="M22.9997 25.1586H42.6597C42.932 25.1325 43.1849 25.0059 43.3689 24.8034C43.553 24.6009 43.6549 24.3372 43.6549 24.0636C43.6549 23.79 43.553 23.5262 43.3689 23.3237C43.1849 23.1212 42.932 22.9946 42.6597 22.9686H22.9997C22.8471 22.954 22.6931 22.9714 22.5477 23.0198C22.4022 23.0682 22.2685 23.1464 22.1551 23.2495C22.0416 23.3526 21.951 23.4783 21.889 23.6185C21.827 23.7587 21.7949 23.9103 21.7949 24.0636C21.7949 24.2169 21.827 24.3684 21.889 24.5086C21.951 24.6488 22.0416 24.7745 22.1551 24.8776C22.2685 24.9807 22.4022 25.0589 22.5477 25.1073C22.6931 25.1557 22.8471 25.1732 22.9997 25.1586Z" fill="#4792FD"/>
<path d="M42.6601 31.7186H12.0001C11.7278 31.7446 11.4749 31.8712 11.2909 32.0737C11.1068 32.2762 11.0049 32.54 11.0049 32.8136C11.0049 33.0872 11.1068 33.351 11.2909 33.5534C11.4749 33.7559 11.7278 33.8825 12.0001 33.9086H42.6601C42.9325 33.8825 43.1854 33.7559 43.3694 33.5534C43.5534 33.351 43.6554 33.0872 43.6554 32.8136C43.6554 32.54 43.5534 32.2762 43.3694 32.0737C43.1854 31.8712 42.9325 31.7446 42.6601 31.7186Z" fill="#4792FD"/>
<path d="M42.6601 36.0886H12.0001C11.7278 36.1146 11.4749 36.2412 11.2909 36.4437C11.1068 36.6462 11.0049 36.91 11.0049 37.1836C11.0049 37.4572 11.1068 37.7209 11.2909 37.9234C11.4749 38.1259 11.7278 38.2525 12.0001 38.2786H42.6601C42.9325 38.2525 43.1854 38.1259 43.3694 37.9234C43.5534 37.7209 43.6554 37.4572 43.6554 37.1836C43.6554 36.91 43.5534 36.6462 43.3694 36.4437C43.1854 36.2412 42.9325 36.1146 42.6601 36.0886Z" fill="#4792FD"/>
<path d="M42.6601 40.4686H12.0001C11.7278 40.4946 11.4749 40.6212 11.2909 40.8237C11.1068 41.0262 11.0049 41.29 11.0049 41.5636C11.0049 41.8372 11.1068 42.1009 11.2909 42.3034C11.4749 42.5059 11.7278 42.6325 12.0001 42.6586H42.6601C42.9325 42.6325 43.1854 42.5059 43.3694 42.3034C43.5534 42.1009 43.6554 41.8372 43.6554 41.5636C43.6554 41.29 43.5534 41.0262 43.3694 40.8237C43.1854 40.6212 42.9325 40.4946 42.6601 40.4686Z" fill="#4792FD"/>
<path d="M43.7496 45.9386C43.7509 45.7946 43.7237 45.6518 43.6695 45.5184C43.6153 45.385 43.5352 45.2636 43.4339 45.1613C43.3325 45.0591 43.2119 44.9779 43.079 44.9225C42.9461 44.8671 42.8036 44.8386 42.6596 44.8386H11.9996C11.7487 44.8871 11.5226 45.0214 11.36 45.2184C11.1973 45.4155 11.1084 45.6631 11.1084 45.9186C11.1084 46.1741 11.1973 46.4216 11.36 46.6187C11.5226 46.8157 11.7487 46.9501 11.9996 46.9986H42.6596C42.8027 46.9986 42.9445 46.9704 43.0767 46.9156C43.209 46.8608 43.3291 46.7805 43.4303 46.6793C43.5316 46.5781 43.6118 46.4579 43.6666 46.3257C43.7214 46.1934 43.7496 46.0517 43.7496 45.9086V45.9386Z" fill="#4792FD"/>
<path d="M30.6202 49.2186H21.8702C21.5979 49.2446 21.345 49.3712 21.161 49.5737C20.977 49.7762 20.875 50.04 20.875 50.3136C20.875 50.5872 20.977 50.8509 21.161 51.0534C21.345 51.2559 21.5979 51.3825 21.8702 51.4086H30.6202C30.7728 51.4232 30.9268 51.4057 31.0722 51.3573C31.2177 51.3089 31.3514 51.2307 31.4649 51.1276C31.5783 51.0245 31.6689 50.8988 31.7309 50.7586C31.793 50.6184 31.825 50.4668 31.825 50.3136C31.825 50.1603 31.793 50.0087 31.7309 49.8685C31.6689 49.7283 31.5783 49.6026 31.4649 49.4995C31.3514 49.3964 31.2177 49.3182 31.0722 49.2698C30.9268 49.2214 30.7728 49.204 30.6202 49.2186Z" fill="#4792FD"/>
<path d="M30.6202 53.5886H21.8702C21.5979 53.6146 21.345 53.7412 21.161 53.9437C20.977 54.1462 20.875 54.41 20.875 54.6836C20.875 54.9572 20.977 55.2209 21.161 55.4234C21.345 55.6259 21.5979 55.7525 21.8702 55.7786H30.6202C30.7728 55.7932 30.9268 55.7757 31.0722 55.7273C31.2177 55.6789 31.3514 55.6007 31.4649 55.4976C31.5783 55.3945 31.6689 55.2688 31.7309 55.1286C31.793 54.9884 31.825 54.8368 31.825 54.6836C31.825 54.5303 31.793 54.3787 31.7309 54.2385C31.6689 54.0983 31.5783 53.9726 31.4649 53.8695C31.3514 53.7664 31.2177 53.6882 31.0722 53.6398C30.9268 53.5914 30.7728 53.574 30.6202 53.5886Z" fill="#4792FD"/>
<path d="M10.9402 19.6886C10.9401 19.9725 11.0508 20.2453 11.2488 20.4489C11.4467 20.6525 11.7163 20.7707 12.0002 20.7786H17.5002C17.7726 20.7525 18.0254 20.6259 18.2095 20.4234C18.3935 20.2209 18.4954 19.9572 18.4954 19.6836C18.4954 19.41 18.3935 19.1462 18.2095 18.9437C18.0254 18.7412 17.7726 18.6146 17.5002 18.5886H12.0002C11.8562 18.5886 11.7137 18.6171 11.5808 18.6725C11.4479 18.7279 11.3272 18.8091 11.2259 18.9113C11.1246 19.0136 11.0445 19.135 10.9903 19.2684C10.9361 19.4018 10.9089 19.5446 10.9102 19.6886H10.9402Z" fill="#4792FD"/>
<path d="M8.75 54.1386C8.75 55.1116 9.03855 56.0629 9.57917 56.872C10.1198 57.6811 10.8882 58.3117 11.7872 58.6841C12.6862 59.0564 13.6755 59.1539 14.6298 58.964C15.5842 58.7742 16.4609 58.3056 17.149 57.6175C17.837 56.9295 18.3056 56.0528 18.4955 55.0984C18.6853 54.144 18.5879 53.1548 18.2155 52.2558C17.8431 51.3568 17.2125 50.5883 16.4034 50.0477C15.5943 49.5071 14.6431 49.2186 13.67 49.2186C12.3659 49.2212 11.1161 49.7404 10.194 50.6625C9.27185 51.5846 8.75264 52.8345 8.75 54.1386ZM16.41 54.1386C16.412 54.6809 16.253 55.2116 15.9531 55.6635C15.6532 56.1154 15.226 56.4682 14.7255 56.6771C14.225 56.886 13.6738 56.9417 13.1416 56.8371C12.6094 56.7325 12.1203 56.4724 11.7361 56.0896C11.3519 55.7068 11.0899 55.2186 10.9834 54.6868C10.8769 54.155 10.9305 53.6036 11.1376 53.1023C11.3447 52.6011 11.6959 52.1726 12.1467 51.871C12.5975 51.5695 13.1277 51.4086 13.67 51.4086C14.395 51.4086 15.0904 51.6959 15.6039 52.2076C16.1175 52.7192 16.4074 53.4136 16.41 54.1386Z" fill="#4792FD"/>
</svg>
