<svg width="174" height="174" viewBox="0 0 174 174" fill="none" xmlns="http://www.w3.org/2000/svg">
<path d="M87.1505 61.8711L53.8647 95.0844L63.3956 104.615L76.7533 91.1855L79.93 83.1709V155.085H94.3707V83.2433L97.3312 91.1134L110.905 104.615L120.364 95.1569L87.1505 61.8711Z" fill="white"/>
<path d="M134.082 54.2186H133.36C125.599 33.1323 105.578 19.0669 83.1088 18.9153C53.3216 18.7143 29.0112 42.6987 28.8105 72.4859C28.8105 73.641 28.8105 74.7241 28.8105 75.8795C12.7401 76.0389 -0.157949 89.1959 0.00146187 105.266C0.160873 121.337 13.3179 134.235 29.3883 134.075H65.4899V119.635H29.3879C21.3128 119.635 14.7668 113.089 14.7668 105.014C14.7668 96.9384 21.3128 90.3924 29.3879 90.3924L43.8287 90.7535C43.8287 90.7535 43.1788 75.8795 43.1788 72.4862C43.0201 53.8808 55.8914 37.6974 74.0555 33.6644C95.3106 28.945 116.367 42.3501 121.086 63.6052L122.675 70.3922L129.461 69.1646C130.983 68.8546 132.53 68.6854 134.082 68.6593C148.159 68.6593 159.57 80.0706 159.57 94.1472C159.57 108.224 148.159 119.635 134.082 119.635H108.811V134.076H134.082C156.125 134.07 173.993 116.202 173.999 94.1587C174.006 72.1061 156.134 54.2247 134.082 54.2186Z" fill="white"/>
</svg>
