<svg width="59" height="59" viewBox="0 0 59 59" fill="none" xmlns="http://www.w3.org/2000/svg">
<rect width="58.9142" height="59" fill="black" fill-opacity="0"/>
<rect width="58.9142" height="59" fill="black" fill-opacity="0"/>
<rect width="58.9142" height="59" fill="black" fill-opacity="0"/>
<path d="M51.6842 19.3H47.4342V10.92C47.4323 9.52224 46.8914 8.17906 45.9242 7.17L43.1742 4.3C40.8442 1.89 40.5542 1.21 39.1742 0.54C38.4343 0.185497 37.6246 0.000991125 36.8042 0L16.7242 0C15.2841 0 13.9029 0.572088 12.8846 1.59041C11.8663 2.60873 11.2942 3.98987 11.2942 5.43V34.68H10.1542C9.5393 34.6832 8.93897 34.8674 8.42814 35.2097C7.91731 35.5519 7.51861 36.0371 7.28181 36.6046C7.04501 37.172 6.9806 37.7967 7.09662 38.4005C7.21264 39.0044 7.50395 39.5607 7.93419 40C7.34255 40.5877 7.0081 41.3861 7.00419 42.22C7.00262 42.4282 7.02273 42.636 7.06419 42.84C5.02643 43.0545 3.15203 44.0533 1.83755 45.6251C0.523068 47.1969 -0.128385 49.2184 0.0210167 51.262C0.170419 53.3055 1.10896 55.2108 2.63807 56.5747C4.16718 57.9386 6.16691 58.6542 8.21419 58.57H23.6442C24.2611 58.5687 24.8639 58.3852 25.3768 58.0424C25.8898 57.6997 26.29 57.213 26.5272 56.6435C26.7644 56.074 26.828 55.4471 26.71 54.8415C26.5921 54.236 26.2978 53.6788 25.8642 53.24C26.4008 52.7063 26.7243 51.9952 26.7742 51.24H27.9442V51.87C27.9705 53.7701 28.7438 55.5835 30.0968 56.9179C31.4499 58.2522 33.2739 59.0002 35.1742 59H51.6842C53.6 59 55.4374 58.2396 56.793 56.8859C58.1486 55.5322 58.9115 53.6958 58.9142 51.78V26.52C58.9115 24.6042 58.1486 22.7678 56.793 21.4141C55.4374 20.0604 53.6 19.3 51.6842 19.3ZM44.3042 8.16H39.6842V3.28L44.3042 8.16ZM10.1542 36.54H23.6442C23.8211 36.5243 23.9994 36.5456 24.1676 36.6026C24.3359 36.6595 24.4904 36.7509 24.6214 36.8708C24.7525 36.9907 24.8571 37.1366 24.9287 37.2991C25.0002 37.4617 25.0372 37.6374 25.0372 37.815C25.0372 37.9926 25.0002 38.1683 24.9287 38.3309C24.8571 38.4934 24.7525 38.6393 24.6214 38.7592C24.4904 38.8791 24.3359 38.9705 24.1676 39.0274C23.9994 39.0844 23.8211 39.1057 23.6442 39.09H10.1542C9.97726 39.1057 9.79901 39.0844 9.63077 39.0274C9.46252 38.9705 9.30797 38.8791 9.17695 38.7592C9.04593 38.6393 8.9413 38.4934 8.86971 38.3309C8.79813 38.1683 8.76116 37.9926 8.76116 37.815C8.76116 37.6374 8.79813 37.4617 8.86971 37.2991C8.9413 37.1366 9.04593 36.9907 9.17695 36.8708C9.30797 36.7509 9.46252 36.6595 9.63077 36.6026C9.79901 36.5456 9.97726 36.5243 10.1542 36.54ZM10.1542 40.94H23.6442C23.8211 40.9243 23.9994 40.9456 24.1676 41.0026C24.3359 41.0595 24.4904 41.1509 24.6214 41.2708C24.7525 41.3907 24.8571 41.5366 24.9287 41.6991C25.0002 41.8617 25.0372 42.0374 25.0372 42.215C25.0372 42.3926 25.0002 42.5683 24.9287 42.7309C24.8571 42.8934 24.7525 43.0393 24.6214 43.1592C24.4904 43.2791 24.3359 43.3705 24.1676 43.4274C23.9994 43.4844 23.8211 43.5057 23.6442 43.49H14.3242C13.9454 43.3205 13.5543 43.18 13.1542 43.07C12.5479 42.9015 11.9233 42.8075 11.2942 42.79H9.00419C8.90504 42.5949 8.85755 42.3777 8.86625 42.1591C8.87496 41.9404 8.93957 41.7277 9.05391 41.5411C9.16826 41.3546 9.32852 41.2004 9.51939 41.0934C9.71026 40.9865 9.92538 40.9302 10.1442 40.93L10.1542 40.94ZM24.9242 46.62C24.9216 46.9587 24.7859 47.2827 24.5464 47.5222C24.3069 47.7617 23.9829 47.8974 23.6442 47.9H18.4542C18.104 46.9549 17.5704 46.0883 16.8842 45.35H23.6442C23.9819 45.35 24.306 45.4835 24.5458 45.7214C24.7855 45.9592 24.9216 46.2823 24.9242 46.62ZM5.64419 45C5.06307 45.546 4.56751 46.1764 4.17419 46.87H3.09419C3.76371 46.032 4.64367 45.3867 5.64419 45ZM2.11419 48.57H3.46419C3.33879 49.0383 3.25513 49.5169 3.21419 50H1.78419C1.83351 49.5243 1.94444 49.0571 2.11419 48.61V48.57ZM2.26419 53.16C2.05603 52.694 1.90817 52.2034 1.82419 51.7H3.24419C3.29931 52.1975 3.41 52.6872 3.57419 53.16H2.26419ZM3.41419 54.9H4.41419C4.76613 55.4536 5.18607 55.9609 5.66419 56.41C4.81031 56.082 4.04127 55.5659 3.41419 54.9ZM11.3342 56.83C10.324 56.8733 9.31879 56.6669 8.40744 56.229C7.4961 55.7911 6.70676 55.1353 6.10932 54.3196C5.51188 53.504 5.12476 52.5536 4.98223 51.5526C4.83971 50.5516 4.94617 49.5309 5.2922 48.5809C5.63823 47.6309 6.21315 46.7808 6.96606 46.106C7.71898 45.4311 8.62666 44.9523 9.60875 44.712C10.5908 44.4716 11.617 44.4771 12.5965 44.7279C13.576 44.9787 14.4785 45.4672 15.2242 46.15C16.1265 46.9698 16.7644 48.0396 17.0566 49.2231C17.3488 50.4067 17.282 51.6505 16.8648 52.796C16.4475 53.9415 15.6988 54.9368 14.7138 55.6552C13.7289 56.3737 12.5524 56.7826 11.3342 56.83ZM23.6442 56.71H16.1642C16.9927 56.0004 17.6724 55.1337 18.1642 54.16H23.6542C23.8311 54.1443 24.0094 54.1656 24.1776 54.2226C24.3459 54.2795 24.5004 54.3709 24.6314 54.4908C24.7625 54.6107 24.8671 54.7566 24.9387 54.9191C25.0102 55.0817 25.0472 55.2574 25.0472 55.435C25.0472 55.6126 25.0102 55.7883 24.9387 55.9509C24.8671 56.1134 24.7625 56.2593 24.6314 56.3792C24.5004 56.4991 24.3459 56.5905 24.1776 56.6474C24.0094 56.7044 23.8311 56.7257 23.6542 56.71H23.6442ZM24.9142 51.18C24.8752 51.4893 24.7247 51.7738 24.4909 51.98C24.257 52.1862 23.956 52.3 23.6442 52.3H18.7942C18.9671 51.4614 19.0042 50.6004 18.9042 49.75H23.6442C23.8244 49.7517 24.0022 49.7912 24.1662 49.8658C24.3302 49.9404 24.4767 50.0486 24.5963 50.1833C24.716 50.3181 24.8061 50.4763 24.8608 50.648C24.9156 50.8197 24.9338 51.0009 24.9142 51.18ZM27.9142 49.33H26.2742C26.1543 49.1472 26.017 48.9764 25.8642 48.82C26.4455 48.2354 26.7719 47.4445 26.7719 46.62C26.7719 45.7955 26.4455 45.0046 25.8642 44.42C26.4462 43.8337 26.7727 43.0411 26.7727 42.215C26.7727 41.3889 26.4462 40.5963 25.8642 40.01C26.2978 39.5712 26.5921 39.014 26.71 38.4085C26.828 37.8029 26.7644 37.176 26.5272 36.6065C26.29 36.037 25.8898 35.5503 25.3768 35.2076C24.8639 34.8648 24.2611 34.6813 23.6442 34.68H13.1542V5.43C13.1542 4.48225 13.53 3.57318 14.1992 2.90209C14.8684 2.23099 15.7764 1.85265 16.7242 1.85H37.8342V9.12C37.8342 9.36493 37.9308 9.59997 38.103 9.7741C38.2753 9.94822 38.5093 10.0474 38.7542 10.05H45.4642C45.6542 10.8 45.5442 10.55 45.5742 19.3H35.1742C33.2584 19.3 31.4209 20.0604 30.0653 21.4141C28.7097 22.7678 27.9468 24.6042 27.9442 26.52L27.9142 49.33ZM57.1442 51.81C57.1415 53.2643 56.562 54.6581 55.5327 55.6856C54.5034 56.713 53.1085 57.29 51.6542 57.29H35.1742C33.7199 57.29 32.325 56.713 31.2957 55.6856C30.2664 54.6581 29.6868 53.2643 29.6842 51.81V26.52C29.6816 25.7969 29.8215 25.0804 30.0961 24.4114C30.3707 23.7425 30.7746 23.1342 31.2845 22.6215C31.7944 22.1088 32.4004 21.7017 33.0679 21.4234C33.7353 21.1452 34.4511 21.0013 35.1742 21H51.6842C53.1394 21.0026 54.5343 21.5819 55.5633 22.6109C56.5923 23.6399 57.1715 25.0348 57.1742 26.49L57.1442 51.81Z" fill="#4792FD"/>
<path d="M51.6242 23H35.2342C34.8504 22.9987 34.4701 23.0733 34.1152 23.2196C33.7604 23.3659 33.4379 23.5809 33.1665 23.8523C32.8951 24.1237 32.6801 24.4462 32.5338 24.801C32.3875 25.1559 32.3129 25.5362 32.3142 25.92V29.1C32.3195 29.871 32.6295 30.6086 33.1765 31.1519C33.7235 31.6951 34.4632 32 35.2342 32H38.3842C38.615 32 38.8363 31.9084 38.9994 31.7452C39.1626 31.582 39.2542 31.3608 39.2542 31.13C39.2542 30.8993 39.1626 30.678 38.9994 30.5148C38.8363 30.3517 38.615 30.26 38.3842 30.26H35.2342C34.9213 30.26 34.6211 30.1357 34.3998 29.9144C34.1785 29.6931 34.0542 29.393 34.0542 29.08V25.93C34.0542 25.6171 34.1785 25.3169 34.3998 25.0956C34.6211 24.8743 34.9213 24.75 35.2342 24.75H51.6242C51.9372 24.75 52.2373 24.8743 52.4586 25.0956C52.6799 25.3169 52.8042 25.6171 52.8042 25.93V29.11C52.8042 29.423 52.6799 29.7231 52.4586 29.9444C52.2373 30.1657 51.9372 30.29 51.6242 30.29H42.1342C41.9035 30.29 41.6822 30.3817 41.519 30.5448C41.3559 30.708 41.2642 30.9293 41.2642 31.16C41.2642 31.3908 41.3559 31.612 41.519 31.7752C41.6822 31.9384 41.9035 32.03 42.1342 32.03H51.6242C52.3987 32.03 53.1414 31.7224 53.689 31.1748C54.2366 30.6272 54.5442 29.8844 54.5442 29.11V25.93C54.5455 25.5457 54.471 25.1649 54.3248 24.8095C54.1787 24.4541 53.9638 24.131 53.6925 23.8588C53.4212 23.5866 53.0989 23.3706 52.744 23.2232C52.3891 23.0759 52.0085 23 51.6242 23Z" fill="#4792FD"/>
<path d="M37.1042 41.33H34.1042C33.8648 41.3287 33.6276 41.3748 33.4062 41.4658C33.1847 41.5568 32.9836 41.6908 32.8143 41.8601C32.645 42.0294 32.511 42.2305 32.42 42.4519C32.3291 42.6733 32.2829 42.9106 32.2842 43.15V46.15C32.2868 46.6319 32.4794 47.0933 32.8202 47.434C33.1609 47.7748 33.6223 47.9674 34.1042 47.97H37.1042C37.5861 47.9674 38.0475 47.7748 38.3882 47.434C38.729 47.0933 38.9216 46.6319 38.9242 46.15V43.15C38.9242 42.6673 38.7325 42.2044 38.3911 41.863C38.0498 41.5217 37.5869 41.33 37.1042 41.33ZM37.1842 46.12C37.182 46.1405 37.1729 46.1596 37.1583 46.1741C37.1438 46.1887 37.1247 46.1978 37.1042 46.2H34.1042C34.083 46.2 34.0626 46.1916 34.0476 46.1765C34.0326 46.1615 34.0242 46.1412 34.0242 46.12V43.12C34.0225 43.1091 34.0234 43.0979 34.0268 43.0875C34.0302 43.077 34.0361 43.0674 34.0439 43.0596C34.0517 43.0518 34.0612 43.046 34.0717 43.0426C34.0822 43.0392 34.0933 43.0383 34.1042 43.04H37.1042C37.1254 43.04 37.1458 43.0484 37.1608 43.0634C37.1758 43.0784 37.1842 43.0988 37.1842 43.12V46.12Z" fill="#4792FD"/>
<path d="M52.8142 33.5601H49.8142C49.334 33.5653 48.8752 33.759 48.5366 34.0995C48.198 34.44 48.0067 34.8999 48.0042 35.3801V38.3801C48.0068 38.8619 48.1994 39.3233 48.5401 39.6641C48.8809 40.0048 49.3423 40.1974 49.8242 40.2001H52.8242C53.3068 40.2001 53.7698 40.0083 54.1111 39.667C54.4524 39.3257 54.6441 38.8628 54.6441 38.3801V35.3801C54.6441 34.8974 54.4524 34.4344 54.1111 34.0931C53.7698 33.7518 53.3068 33.5601 52.8242 33.5601H52.8142ZM52.8941 38.3501C52.8959 38.361 52.895 38.3721 52.8916 38.3826C52.8881 38.3931 52.8823 38.4026 52.8745 38.4104C52.8667 38.4182 52.8572 38.424 52.8467 38.4275C52.8362 38.4309 52.825 38.4318 52.8142 38.4301H49.8142C49.7929 38.4301 49.7726 38.4216 49.7576 38.4066C49.7426 38.3916 49.7341 38.3713 49.7341 38.3501C49.7341 35.4101 49.6642 35.3001 49.8142 35.3001H52.8142C52.825 35.2983 52.8362 35.2992 52.8467 35.3027C52.8572 35.3061 52.8667 35.3119 52.8745 35.3197C52.8823 35.3275 52.8881 35.337 52.8916 35.3475C52.895 35.358 52.8959 35.3692 52.8941 35.3801V38.3501Z" fill="#4792FD"/>
<path d="M37.1042 33.5601H34.1042C33.6215 33.5601 33.1586 33.7518 32.8172 34.0931C32.4759 34.4344 32.2842 34.8974 32.2842 35.3801V38.3801C32.2868 38.8619 32.4794 39.3233 32.8201 39.6641C33.1609 40.0048 33.6223 40.1974 34.1042 40.2001H37.1042C37.5861 40.1974 38.0475 40.0048 38.3882 39.6641C38.729 39.3233 38.9216 38.8619 38.9242 38.3801V35.3801C38.9216 34.8982 38.729 34.4368 38.3882 34.096C38.0475 33.7553 37.5861 33.5627 37.1042 33.5601ZM37.1842 38.3501C37.1842 38.3713 37.1758 38.3916 37.1608 38.4066C37.1457 38.4216 37.1254 38.4301 37.1042 38.4301H34.1042C34.0933 38.4318 34.0821 38.4309 34.0717 38.4275C34.0612 38.424 34.0516 38.4182 34.0438 38.4104C34.036 38.4026 34.0302 38.3931 34.0268 38.3826C34.0234 38.3721 34.0225 38.361 34.0242 38.3501V35.3501C34.0225 35.3392 34.0234 35.328 34.0268 35.3175C34.0302 35.307 34.036 35.2975 34.0438 35.2897C34.0516 35.2819 34.0612 35.2761 34.0717 35.2727C34.0821 35.2692 34.0933 35.2683 34.1042 35.2701H37.1042C37.1254 35.2701 37.1457 35.2785 37.1608 35.2935C37.1758 35.3085 37.1842 35.3288 37.1842 35.3501V38.3501Z" fill="#4792FD"/>
<path d="M38.4643 49.33C38.2952 49.1352 38.0863 48.9791 37.8517 48.8721C37.617 48.7652 37.3621 48.7099 37.1043 48.71H34.1043C33.8464 48.7099 33.5915 48.7652 33.3569 48.8721C33.1222 48.9791 32.9133 49.1352 32.7443 49.33C32.5489 49.5925 32.4076 49.8912 32.3286 50.2088C32.2496 50.5264 32.2346 50.8565 32.2843 51.18V53.5C32.2843 53.9827 32.476 54.4456 32.8173 54.7869C33.1587 55.1282 33.6216 55.32 34.1043 55.32H37.1043C37.587 55.32 38.0499 55.1282 38.3912 54.7869C38.7325 54.4456 38.9243 53.9827 38.9243 53.5V51.18C38.974 50.8565 38.9589 50.5264 38.8799 50.2088C38.801 49.8912 38.6597 49.5925 38.4643 49.33ZM37.1043 53.58C34.1643 53.58 34.0543 53.66 34.0543 53.5C34.0543 50.36 34.0543 50.5 34.1343 50.5H37.1343C37.2743 50.5 37.1343 50.7 37.2143 51.23C37.2679 52.0306 37.2411 52.8347 37.1343 53.63L37.1043 53.58Z" fill="#4792FD"/>
<path d="M52.3541 41.33H50.3041C50.0034 41.3287 49.7054 41.3866 49.427 41.5005C49.1487 41.6143 48.8955 41.7819 48.6819 41.9936C48.4684 42.2053 48.2986 42.4571 48.1823 42.7344C48.066 43.0117 48.0055 43.3092 48.0042 43.61V52.83C48.0042 53.4904 48.2665 54.1237 48.7335 54.5907C49.2004 55.0576 49.8338 55.32 50.4942 55.32H52.1241C52.4515 55.3213 52.7759 55.2578 53.0786 55.1331C53.3813 55.0085 53.6563 54.8251 53.8878 54.5936C54.1193 54.3621 54.3026 54.0871 54.4273 53.7844C54.552 53.4817 54.6155 53.1573 54.6142 52.83V43.61C54.6142 43.0053 54.3739 42.4254 53.9464 41.9978C53.5188 41.5702 52.9388 41.33 52.3342 41.33H52.3541ZM52.1441 53.58H50.5141C50.3152 53.58 50.1245 53.501 49.9838 53.3603C49.8432 53.2197 49.7641 53.0289 49.7641 52.83V43.61C49.7641 43.4668 49.821 43.3294 49.9223 43.2281C50.0236 43.1269 50.1609 43.07 50.3041 43.07H52.3541C52.4974 43.07 52.6347 43.1269 52.736 43.2281C52.8373 43.3294 52.8941 43.4668 52.8941 43.61V52.83C52.8955 52.9288 52.877 53.027 52.8398 53.1186C52.8026 53.2102 52.7474 53.2934 52.6775 53.3633C52.6076 53.4332 52.5243 53.4884 52.4327 53.5256C52.3411 53.5628 52.243 53.5813 52.1441 53.58Z" fill="#4792FD"/>
<path d="M22.3841 25.25C21.3241 24.86 20.5541 24.58 20.5541 23.6C20.5541 22.62 21.1541 22.25 22.3241 22.25C23.4941 22.25 23.9041 22.8 24.3241 22.8C24.5327 22.7751 24.7243 22.673 24.8613 22.5138C24.9982 22.3546 25.0706 22.1499 25.0641 21.94C25.0641 21.22 23.8841 20.86 22.8241 20.77V20.11C22.8017 19.9069 22.7052 19.7191 22.5529 19.5827C22.4007 19.4464 22.2035 19.371 21.9991 19.371C21.7948 19.371 21.5976 19.4464 21.4453 19.5827C21.2931 19.7191 21.1965 19.9069 21.1741 20.11V20.87C20.5311 20.9952 19.9558 21.3507 19.5563 21.87C19.1567 22.3892 18.9604 23.0363 19.0041 23.69C19.0041 25.69 20.4941 26.27 21.6841 26.69C22.8741 27.11 23.7841 27.48 23.7841 28.82C23.7841 29.92 23.1741 30.48 21.9641 30.48C20.1941 30.48 20.1741 29.29 19.4941 29.29C19.2873 29.3167 19.0972 29.4176 18.9593 29.5739C18.8213 29.7303 18.7449 29.9315 18.7441 30.14C18.7441 30.83 19.7441 31.73 21.2341 31.96V32.59C21.2214 32.706 21.2332 32.8233 21.2688 32.9344C21.3044 33.0455 21.3631 33.1479 21.4409 33.2348C21.5188 33.3217 21.6141 33.3912 21.7206 33.4388C21.8271 33.4864 21.9425 33.511 22.0591 33.511C22.1758 33.511 22.2912 33.4864 22.3977 33.4388C22.5042 33.3912 22.5995 33.3217 22.6774 33.2348C22.7552 33.1479 22.8139 33.0455 22.8495 32.9344C22.8851 32.8233 22.8969 32.706 22.8841 32.59V32C23.6298 31.8769 24.3016 31.4768 24.7651 30.8799C25.2286 30.2829 25.4497 29.5329 25.3841 28.78C25.3841 26.36 23.7441 25.78 22.3841 25.27V25.25Z" fill="#4792FD"/>
<path d="M46.1743 49.22C45.8348 48.8954 45.384 48.7129 44.9143 48.71H41.9143C41.6564 48.7099 41.4015 48.7652 41.1669 48.8721C40.9323 48.9791 40.7234 49.1352 40.5543 49.33C40.3594 49.5927 40.2184 49.8915 40.1394 50.209C40.0605 50.5265 40.0452 50.8565 40.0943 51.18V53.5C40.093 53.7393 40.1391 53.9766 40.2301 54.198C40.3211 54.4194 40.4551 54.6206 40.6244 54.7899C40.7937 54.9591 40.9948 55.0931 41.2163 55.1841C41.4377 55.2751 41.6749 55.3213 41.9143 55.32H44.9143C45.397 55.32 45.8599 55.1282 46.2012 54.7869C46.5426 54.4456 46.7343 53.9827 46.7343 53.5V50.5C46.7327 50.2553 46.6824 50.0135 46.5862 49.7886C46.4901 49.5636 46.35 49.3601 46.1743 49.19V49.22ZM44.9143 53.58C41.9743 53.58 41.9143 53.66 41.9143 53.5V50.5C41.9143 50.4787 41.9227 50.4584 41.9377 50.4434C41.9527 50.4284 41.9731 50.42 41.9943 50.42H44.9943C45.0148 50.4221 45.0339 50.4313 45.0484 50.4458C45.063 50.4604 45.0721 50.4795 45.0743 50.5C45.0743 53.44 45.1443 53.5 44.9943 53.5L44.9143 53.58Z" fill="#4792FD"/>
<path d="M44.9142 33.5601H41.9142C41.4315 33.5601 40.9686 33.7518 40.6273 34.0931C40.286 34.4344 40.0942 34.8974 40.0942 35.3801V38.3801C40.0942 38.8628 40.286 39.3257 40.6273 39.667C40.9686 40.0083 41.4315 40.2001 41.9142 40.2001H44.9142C45.1398 40.2018 45.3637 40.1611 45.5742 40.0801C45.9158 39.9457 46.209 39.7117 46.4159 39.4086C46.6227 39.1054 46.7336 38.7471 46.7342 38.3801V35.3801C46.7342 34.8974 46.5425 34.4344 46.2012 34.0931C45.8599 33.7518 45.3969 33.5601 44.9142 33.5601ZM44.9142 38.4301H41.9142C41.9033 38.4318 41.8922 38.4309 41.8817 38.4275C41.8712 38.424 41.8617 38.4182 41.8539 38.4104C41.8461 38.4026 41.8403 38.3931 41.8368 38.3826C41.8334 38.3721 41.8325 38.361 41.8342 38.3501V35.3501C41.8342 35.1901 41.9342 35.3001 44.8342 35.2701C44.8555 35.2701 44.8758 35.2785 44.8908 35.2935C44.9058 35.3085 44.9142 35.3288 44.9142 35.3501V38.3501C44.9142 38.3713 44.9058 38.3916 44.8908 38.4066C44.8758 38.4216 44.8555 38.4301 44.8342 38.4301H44.9142Z" fill="#4792FD"/>
<path d="M45.5743 41.45C45.3637 41.369 45.1398 41.3283 44.9143 41.33H41.9143C41.6749 41.3287 41.4376 41.3749 41.2162 41.4658C40.9948 41.5568 40.7936 41.6908 40.6244 41.8601C40.4551 42.0294 40.3211 42.2305 40.2301 42.452C40.1391 42.6734 40.0929 42.9106 40.0943 43.15V46.15C40.0943 46.6327 40.286 47.0956 40.6273 47.4369C40.9686 47.7783 41.4316 47.97 41.9143 47.97H44.9143C45.3961 47.9674 45.8575 47.7748 46.1983 47.434C46.539 47.0933 46.7316 46.6319 46.7343 46.15V43.15C46.7337 42.783 46.6227 42.4246 46.4159 42.1215C46.209 41.8183 45.9158 41.5844 45.5743 41.45ZM45.0043 46.12C45.0021 46.1405 44.993 46.1596 44.9784 46.1741C44.9639 46.1887 44.9447 46.1978 44.9243 46.2H41.9243C41.903 46.2 41.8827 46.1916 41.8677 46.1766C41.8527 46.1616 41.8443 46.1412 41.8443 46.12V43.12C41.8426 43.1091 41.8434 43.098 41.8469 43.0875C41.8503 43.077 41.8561 43.0675 41.8639 43.0597C41.8717 43.0519 41.8813 43.046 41.8917 43.0426C41.9022 43.0392 41.9134 43.0383 41.9243 43.04H44.9243C44.9455 43.04 44.9658 43.0484 44.9808 43.0634C44.9958 43.0784 45.0043 43.0988 45.0043 43.12V46.12Z" fill="#4792FD"/>
<path d="M39.8942 11.88H37.7142C37.4835 11.88 37.2622 11.9717 37.0991 12.1348C36.9359 12.298 36.8442 12.5193 36.8442 12.75C36.8442 12.9807 36.9359 13.202 37.0991 13.3652C37.2622 13.5283 37.4835 13.62 37.7142 13.62H39.8942C40.125 13.62 40.3463 13.5283 40.5094 13.3652C40.6726 13.202 40.7642 12.9807 40.7642 12.75C40.7642 12.5193 40.6726 12.298 40.5094 12.1348C40.3463 11.9717 40.125 11.88 39.8942 11.88Z" fill="#4792FD"/>
<path d="M34.2341 11.88H18.8141C18.5834 11.88 18.3621 11.9717 18.1989 12.1348C18.0358 12.298 17.9441 12.5193 17.9441 12.75C17.9441 12.9807 18.0358 13.202 18.1989 13.3652C18.3621 13.5283 18.5834 13.62 18.8141 13.62H34.2341C34.4648 13.62 34.6861 13.5283 34.8493 13.3652C35.0124 13.202 35.1041 12.9807 35.1041 12.75C35.1041 12.5193 35.0124 12.298 34.8493 12.1348C34.6861 11.9717 34.4648 11.88 34.2341 11.88Z" fill="#4792FD"/>
<path d="M21.5841 16.2H18.8141C18.5834 16.2 18.3621 16.2916 18.1989 16.4548C18.0358 16.6179 17.9441 16.8392 17.9441 17.07C17.9441 17.3007 18.0358 17.522 18.1989 17.6851C18.3621 17.8483 18.5834 17.94 18.8141 17.94H21.5841C21.8148 17.94 22.0361 17.8483 22.1993 17.6851C22.3624 17.522 22.4541 17.3007 22.4541 17.07C22.4541 16.8392 22.3624 16.6179 22.1993 16.4548C22.0361 16.2916 21.8148 16.2 21.5841 16.2Z" fill="#4792FD"/>
<path d="M39.8941 16.2H25.0541C24.8233 16.2 24.6021 16.2916 24.4389 16.4548C24.2757 16.6179 24.1841 16.8392 24.1841 17.07C24.1841 17.3007 24.2757 17.522 24.4389 17.6851C24.6021 17.8483 24.8233 17.94 25.0541 17.94H39.8941C40.0083 17.94 40.1215 17.9174 40.227 17.8737C40.3326 17.83 40.4285 17.7659 40.5093 17.6851C40.5901 17.6043 40.6541 17.5084 40.6979 17.4029C40.7416 17.2973 40.7641 17.1842 40.7641 17.07C40.7641 16.9557 40.7416 16.8426 40.6979 16.737C40.6541 16.6315 40.5901 16.5356 40.5093 16.4548C40.4285 16.374 40.3326 16.3099 40.227 16.2662C40.1215 16.2225 40.0083 16.2 39.8941 16.2Z" fill="#4792FD"/>
<path d="M10.5741 49C10.5741 48.78 10.6541 48.72 10.7341 48.68C10.9371 48.6003 11.1552 48.5661 11.373 48.5799C11.5907 48.5938 11.8027 48.6552 11.9941 48.76C12.1358 48.8485 12.2973 48.9 12.4641 48.91C13.3241 48.91 13.9941 47.31 11.9541 46.91C11.9673 46.7859 11.9542 46.6604 11.9158 46.5416C11.8773 46.4228 11.8143 46.3135 11.7309 46.2207C11.6474 46.1279 11.5454 46.0537 11.4313 46.0028C11.3173 45.952 11.1939 45.9258 11.0691 45.9258C10.9443 45.9258 10.8208 45.952 10.7068 46.0028C10.5928 46.0537 10.4907 46.1279 10.4073 46.2207C10.3238 46.3135 10.2608 46.4228 10.2224 46.5416C10.1839 46.6604 10.1709 46.7859 10.1841 46.91V47.07C9.77385 47.2126 9.42121 47.485 9.17945 47.8458C8.9377 48.2066 8.81998 48.6363 8.84407 49.07C8.84407 50.56 9.92407 50.96 10.7041 51.26C11.4841 51.56 11.7041 51.66 11.7041 52.17C11.7041 52.49 11.6241 52.79 10.9941 52.79C10.0841 52.79 10.1941 52.07 9.51407 52.07C9.28593 52.0852 9.07214 52.1867 8.91612 52.3539C8.76011 52.5211 8.67357 52.7413 8.67407 52.97C8.67407 53.57 9.30407 54.14 10.1741 54.37V54.44C10.1973 54.6585 10.3006 54.8607 10.464 55.0076C10.6274 55.1545 10.8393 55.2358 11.0591 55.2358C11.2788 55.2358 11.4908 55.1545 11.6542 55.0076C11.8176 54.8607 11.9208 54.6585 11.9441 54.44V54.35C12.4073 54.1993 12.8067 53.8978 13.0786 53.4936C13.3505 53.0894 13.4791 52.6058 13.4441 52.12C13.4441 49.48 10.5641 49.87 10.5641 49.02L10.5741 49Z" fill="#4792FD"/>
</svg>
