<svg width="62" height="83" viewBox="0 0 62 83" fill="none" xmlns="http://www.w3.org/2000/svg">
<path d="M2.77 12.412L1.69 22.152C1.66395 22.3914 1.6888 22.6337 1.7629 22.8629C1.837 23.0921 1.95869 23.3031 2.12 23.482C2.27976 23.6635 2.47683 23.8084 2.69774 23.9068C2.91865 24.0051 3.15819 24.0547 3.4 24.052H10.26C10.5018 24.0547 10.7414 24.0051 10.9623 23.9068C11.1832 23.8084 11.3802 23.6635 11.54 23.482C11.6916 23.3022 11.8045 23.093 11.8716 22.8676C11.9387 22.6422 11.9586 22.4054 11.93 22.172L10.93 12.412C12.0985 11.5559 12.9665 10.3525 13.41 8.97359C13.8535 7.59468 13.8499 6.11086 13.3996 4.73416C12.9492 3.35745 12.0753 2.15831 10.9026 1.30807C9.72991 0.457827 8.31849 0 6.87 0C5.42152 0 4.01009 0.457827 2.8374 1.30807C1.66472 2.15831 0.790772 3.35745 0.340446 4.73416C-0.109879 6.11086 -0.113542 7.59468 0.329983 8.97359C0.773507 10.3525 1.64152 11.5559 2.81 12.412H2.77ZM6.83 3.41196C7.60773 3.40869 8.36335 3.67061 8.97222 4.1545C9.58109 4.6384 10.0068 5.31537 10.1793 6.07376C10.3517 6.83215 10.2604 7.62665 9.92063 8.32623C9.58081 9.0258 9.0127 9.58865 8.31 9.92196C7.98392 10.0703 7.71228 10.3167 7.53301 10.6268C7.35373 10.937 7.27577 11.2954 7.31 11.652L8.31 20.572H5.31L6.31 11.652C6.34423 11.2954 6.26627 10.937 6.08699 10.6268C5.90772 10.3167 5.63608 10.0703 5.31 9.92196C4.6073 9.58865 4.03919 9.0258 3.69937 8.32623C3.35955 7.62665 3.26833 6.83215 3.44074 6.07376C3.61315 5.31537 4.03891 4.6384 4.64778 4.1545C5.25665 3.67061 6.01227 3.40869 6.79 3.41196H6.83Z" transform="translate(24 45)" fill="#4792FD"/>
<path d="M60.08 30.93H54.93V24.03C54.93 17.6568 52.3983 11.5447 47.8918 7.03822C43.3853 2.53172 37.2732 0 30.9 0C24.5268 0 18.4147 2.53172 13.9082 7.03822C9.40172 11.5447 6.87 17.6568 6.87 24.03V30.93H1.72C1.26383 30.93 0.826339 31.1112 0.503776 31.4338C0.181214 31.7563 0 32.1938 0 32.65L0 75.56C0.00264521 77.3812 0.727296 79.1271 2.0151 80.4149C3.3029 81.7027 5.04877 82.4274 6.87 82.43H54.93C56.7512 82.4274 58.4971 81.7027 59.7849 80.4149C61.0727 79.1271 61.7974 77.3812 61.8 75.56V32.65C61.8 32.1938 61.6188 31.7563 61.2962 31.4338C60.9737 31.1112 60.5362 30.93 60.08 30.93ZM10.3 24.03C10.3 18.5665 12.4704 13.3268 16.3336 9.4636C20.1968 5.60035 25.4365 3.43 30.9 3.43C36.3635 3.43 41.6031 5.60035 45.4664 9.4636C49.3297 13.3268 51.5 18.5665 51.5 24.03V30.93H48.07V24.03C48.07 19.4762 46.261 15.109 43.041 11.889C39.821 8.66898 35.4538 6.86 30.9 6.86C26.3462 6.86 21.979 8.66898 18.759 11.889C15.539 15.109 13.73 19.4762 13.73 24.03V30.93H10.3V24.03ZM44.63 24.03V30.93H17.17V24.03C17.17 20.3886 18.6165 16.8963 21.1914 14.3214C23.7663 11.7465 27.2586 10.3 30.9 10.3C34.5414 10.3 38.0337 11.7465 40.6086 14.3214C43.1835 16.8963 44.63 20.3886 44.63 24.03ZM58.36 75.53C58.368 75.9859 58.2852 76.4389 58.1165 76.8625C57.9478 77.2862 57.6966 77.6721 57.3774 77.9978C57.0582 78.3234 56.6775 78.5824 56.2574 78.7596C55.8372 78.9368 55.386 79.0287 54.93 79.03H6.87C5.95938 79.03 5.08592 78.669 4.44108 78.026C3.79624 77.383 3.43265 76.5106 3.43 75.6V34.36H58.36V75.53Z" fill="#4792FD"/>
</svg>
