<svg width="53" height="58" viewBox="0 0 53 58" fill="none" xmlns="http://www.w3.org/2000/svg">
<rect width="52.624" height="57.1045" fill="black" fill-opacity="0"/>
<rect width="52.624" height="57.1045" fill="black" fill-opacity="0"/>
<rect width="52.624" height="57.1045" fill="black" fill-opacity="0"/>
<path d="M41.8891 14.0988L38.0791 3.0988C37.8085 2.34195 37.3468 1.66795 36.7388 1.14228C36.1308 0.616608 35.3971 0.25714 34.6091 0.0987976C33.8094 -0.0670854 32.9804 -0.0235185 32.2025 0.225274C31.4246 0.474066 30.7241 0.919642 30.1691 1.5188L28.5291 3.2888L16.5891 16.2788C16.1665 16.734 15.8398 17.2697 15.6285 17.8538C15.4172 18.4379 15.3256 19.0585 15.3591 19.6788L4.47911 24.2088C3.82213 24.4953 3.28473 25.0006 2.95838 25.6388C2.63202 26.2769 2.53687 27.0084 2.68911 27.7088L1.98911 27.9788C1.25723 28.223 0.652261 28.7478 0.307219 29.4379C-0.0378219 30.1279 -0.0946924 30.9268 0.149111 31.6588L1.79911 36.4188C2.05308 37.1437 2.58423 37.7382 3.27601 38.0719C3.9678 38.4056 4.76371 38.4512 5.48911 38.1988L6.24911 37.9788C6.59899 38.7006 7.19078 39.277 7.92157 39.6076C8.65237 39.9383 9.47595 40.0024 10.2491 39.7888L10.6591 39.6788L15.7391 54.3788C16.0932 55.3959 16.8368 56.2307 17.8063 56.6995C18.7759 57.1684 19.892 57.2329 20.9091 56.8788C21.9262 56.5247 22.761 55.7811 23.2299 54.8116C23.6987 53.842 23.7632 52.7259 23.4091 51.7088L18.4091 37.4388L21.2291 36.6488C21.6035 37.1556 22.0764 37.5816 22.6194 37.9012C23.1624 38.2208 23.7643 38.4274 24.3891 38.5088L41.4891 40.7288L43.9891 41.0488C44.7091 41.1466 45.4419 41.0747 46.1291 40.8388C46.7134 40.6357 47.2518 40.3191 47.7133 39.9071C48.1747 39.4951 48.5501 38.9959 48.8178 38.4382C49.0855 37.8805 49.2402 37.2753 49.273 36.6576C49.3059 36.0399 49.2162 35.4217 49.0091 34.8388L45.4391 24.3188C46.5568 23.9181 47.4714 23.0927 47.9844 22.0218C48.4974 20.9509 48.5674 19.7209 48.1791 18.5988L47.5891 16.8988C47.198 15.7764 46.3805 14.8532 45.3137 14.3291C44.2468 13.8051 43.0165 13.7223 41.8891 14.0988ZM21.7091 52.2988C21.9067 52.865 21.8713 53.4866 21.6106 54.0267C21.3499 54.5668 20.8853 54.9812 20.3191 55.1788C19.7529 55.3764 19.1313 55.3409 18.5912 55.0803C18.0511 54.8196 17.6367 54.355 17.4391 53.7888L17.2491 53.2288L18.9891 52.6388C19.1007 52.5994 19.2035 52.5384 19.2916 52.4593C19.3796 52.3802 19.4512 52.2845 19.5023 52.1777C19.5534 52.0709 19.5829 51.9551 19.5892 51.8369C19.5955 51.7187 19.5785 51.6004 19.5391 51.4888C19.4997 51.3772 19.4387 51.2744 19.3596 51.1864C19.2805 51.0983 19.1848 51.0267 19.078 50.9756C18.9712 50.9246 18.8554 50.895 18.7372 50.8887C18.619 50.8824 18.5007 50.8994 18.3891 50.9388L16.6891 51.5288L16.0991 49.8188L17.7991 49.2288C18.025 49.1493 18.2104 48.9841 18.3152 48.7688C18.4201 48.5535 18.4358 48.3056 18.3591 48.0788C18.3199 47.9671 18.259 47.8642 18.1799 47.776C18.1008 47.6879 18.0051 47.6162 17.8983 47.5651C17.7914 47.514 17.6756 47.4845 17.5573 47.4783C17.439 47.472 17.3207 47.4892 17.2091 47.5288L15.5091 48.1188L14.9091 46.4088L16.6191 45.8188C16.8252 45.7243 16.9887 45.5561 17.0773 45.3474C17.166 45.1387 17.1735 44.9044 17.0984 44.6904C17.0233 44.4764 16.871 44.2981 16.6714 44.1905C16.4718 44.083 16.2391 44.0538 16.0191 44.1088L14.3191 44.6988L13.6991 42.9788L15.3991 42.3888C15.5114 42.3501 15.6149 42.2896 15.7039 42.2108C15.7928 42.1321 15.8653 42.0366 15.9173 41.9298C15.9693 41.823 15.9997 41.707 16.0069 41.5884C16.0141 41.4699 15.9979 41.3511 15.9591 41.2388C15.9204 41.1265 15.8599 41.023 15.7811 40.9341C15.7024 40.8451 15.6069 40.7726 15.5001 40.7206C15.3933 40.6686 15.2773 40.6382 15.1588 40.631C15.0402 40.6238 14.9214 40.6401 14.8091 40.6788L13.0991 41.2688L12.3591 39.1288L16.7191 37.9788L21.7091 52.2988ZM44.3191 39.2988L42.8691 39.1088L30.5991 3.7388L31.5391 2.7388C31.817 2.43237 32.1582 2.19009 32.5391 2.0288L32.7291 1.9788C33.1956 1.83505 33.6908 1.81098 34.1691 1.9088C34.6568 2.00666 35.1103 2.2309 35.4841 2.55908C35.8579 2.88726 36.1389 3.30786 36.2991 3.7788L47.2991 35.5488C47.4602 36.0124 47.4998 36.5095 47.414 36.9927C47.3282 37.4759 47.1199 37.929 46.8091 38.3088C46.5047 38.6792 46.1105 38.9655 45.6642 39.1405C45.2179 39.3156 44.7342 39.3735 44.2591 39.3088L44.3191 39.2988ZM5.56911 36.2988L4.89911 36.5288C4.76323 36.576 4.61934 36.5958 4.47576 36.5871C4.33217 36.5785 4.19173 36.5415 4.06251 36.4782C3.9333 36.415 3.81787 36.3269 3.72289 36.2188C3.62791 36.1108 3.55526 35.985 3.50911 35.8488L1.85911 31.0588C1.81169 30.9235 1.7914 30.7803 1.79941 30.6372C1.80743 30.4941 1.84359 30.3539 1.90582 30.2248C1.96805 30.0957 2.05514 29.9802 2.16209 29.8847C2.26904 29.7893 2.39376 29.716 2.52911 29.6688L3.19911 29.4388L5.56911 36.2988ZM7.77911 36.9988L4.47911 27.4788C4.37346 27.1715 4.38673 26.8358 4.51629 26.5378C4.64586 26.2398 4.88233 26.0011 5.17911 25.8688L15.7691 21.4588L20.4691 34.9788L9.72911 37.9788C9.33793 38.0843 8.92149 38.0403 8.56098 37.8554C8.20047 37.6705 7.92173 37.358 7.77911 36.9788V36.9988ZM24.6691 36.7488C24.1379 36.6823 23.636 36.468 23.2206 36.1304C22.8051 35.7927 22.4928 35.3452 22.3191 34.8388L17.3191 20.4188C17.1471 19.9273 17.113 19.3981 17.2205 18.8886C17.3281 18.3791 17.5731 17.9088 17.9291 17.5288L29.2091 5.2488L40.8691 38.8188L24.6691 36.7488ZM46.4691 19.2188C46.7043 19.8887 46.6661 20.6242 46.3629 21.2662C46.0597 21.9082 45.5159 22.4049 44.8491 22.6488L42.4791 15.8288C43.1543 15.6116 43.8876 15.6667 44.5228 15.9824C45.1579 16.2981 45.6446 16.8494 45.8791 17.5188L46.4691 19.2188Z" fill="#4792FD"/>
<path d="M48.3391 11.3088C48.2432 11.2392 48.1346 11.1892 48.0194 11.1616C47.9042 11.134 47.7847 11.1293 47.6677 11.1479C47.5507 11.1664 47.4385 11.2079 47.3375 11.2698C47.2365 11.3317 47.1487 11.413 47.0791 11.5088C47.0095 11.6047 46.9595 11.7133 46.9318 11.8285C46.9042 11.9437 46.8996 12.0632 46.9181 12.1802C46.9367 12.2973 46.9781 12.4094 47.0401 12.5104C47.102 12.6114 47.1832 12.6992 47.2791 12.7688C48.7258 13.788 49.8308 15.2207 50.4491 16.8788C50.9808 18.5509 50.9808 20.3468 50.4491 22.0188C50.4154 22.1324 50.4044 22.2516 50.4168 22.3694C50.4292 22.4872 50.4648 22.6015 50.5215 22.7055C50.5781 22.8096 50.6548 22.9014 50.7471 22.9758C50.8393 23.0501 50.9454 23.1055 51.0591 23.1388C51.2382 23.1943 51.4299 23.1943 51.6091 23.1388C51.7453 23.0949 51.8686 23.0181 51.968 22.9152C52.0674 22.8123 52.1399 22.6865 52.1791 22.5488C52.8016 20.4969 52.7702 18.3021 52.0891 16.2688C51.3494 14.2767 50.0248 12.5548 48.2891 11.3288L48.3391 11.3088Z" fill="#4792FD"/>
<path d="M24.7891 14.8288C24.6187 14.6603 24.3887 14.5657 24.1491 14.5657C23.9094 14.5657 23.6795 14.6603 23.5091 14.8288L20.3691 18.0288C19.9277 18.5076 19.624 19.0968 19.4902 19.7341C19.3564 20.3714 19.3975 21.033 19.6091 21.6488L20.2591 23.5088C20.2983 23.6206 20.3592 23.7234 20.4383 23.8116C20.5174 23.8997 20.6131 23.9714 20.7199 24.0225C20.8268 24.0736 20.9426 24.1031 21.0609 24.1093C21.1792 24.1156 21.2975 24.0984 21.4091 24.0588C21.5224 24.0226 21.6273 23.9642 21.7179 23.8871C21.8085 23.8101 21.8829 23.7158 21.9368 23.6098C21.9908 23.5038 22.0232 23.3881 22.0321 23.2695C22.0411 23.1509 22.0265 23.0317 21.9891 22.9188L21.3391 21.0688C21.233 20.7656 21.2104 20.4394 21.2737 20.1245C21.3371 19.8095 21.484 19.5174 21.6991 19.2788L24.8191 16.1088C24.9038 16.0251 24.971 15.9255 25.0168 15.8156C25.0627 15.7057 25.0863 15.5879 25.0863 15.4688C25.0863 15.3498 25.0627 15.2319 25.0168 15.122C24.971 15.0122 24.9038 14.9125 24.8191 14.8288H24.7891Z" fill="#4792FD"/>
<path d="M21.7091 24.9788C21.5964 25.017 21.4925 25.0772 21.4033 25.1558C21.3141 25.2345 21.2413 25.33 21.1892 25.437C21.1372 25.5439 21.1068 25.6601 21.0999 25.7789C21.093 25.8976 21.1097 26.0165 21.1491 26.1288L21.7391 27.8288C21.8173 28.0555 21.9824 28.2419 22.1981 28.3469C22.4138 28.452 22.6623 28.467 22.8891 28.3888C23.1158 28.3105 23.3022 28.1454 23.4072 27.9298C23.5123 27.7141 23.5273 27.4655 23.4491 27.2388L22.8591 25.5288C22.8198 25.417 22.7589 25.3142 22.6798 25.226C22.6008 25.1379 22.5051 25.0662 22.3982 25.0151C22.2914 24.964 22.1755 24.9345 22.0573 24.9282C21.939 24.922 21.8207 24.9392 21.7091 24.9788Z" fill="#4792FD"/>
</svg>
