<svg width="87" height="64" viewBox="0 0 87 64" fill="none" xmlns="http://www.w3.org/2000/svg">
<path d="M83.81 51.445H81V31.065C80.9719 30.7489 80.8264 30.4548 80.5923 30.2406C80.3582 30.0264 80.0523 29.9076 79.735 29.9076C79.4177 29.9076 79.1118 30.0264 78.8777 30.2406C78.6436 30.4548 78.4981 30.7489 78.47 31.065V51.445H14.8C14.4632 51.445 14.1401 51.5788 13.902 51.817C13.6638 52.0551 13.53 52.3782 13.53 52.715C13.53 53.0518 13.6638 53.3749 13.902 53.613C14.1401 53.8512 14.4632 53.985 14.8 53.985H36.53C36.5352 54.3193 36.671 54.6382 36.9083 54.8737C37.1457 55.1092 37.4657 55.2424 37.8 55.245H48.63C48.9634 55.2424 49.2823 55.1088 49.5181 54.8731C49.7538 54.6373 49.8874 54.3184 49.89 53.985H83.81C83.8305 53.9872 83.8496 53.9963 83.8641 54.0109C83.8787 54.0254 83.8878 54.0445 83.89 54.065V56.775C83.89 57.1569 83.7383 57.5232 83.4682 57.7932C83.1982 58.0633 82.8319 58.215 82.45 58.215H4C3.6189 58.2124 3.25415 58.0598 2.98466 57.7903C2.71517 57.5209 2.56262 57.1561 2.56 56.775V54.065C2.56247 54.0429 2.57303 54.0225 2.58965 54.0077C2.60627 53.993 2.62777 53.9849 2.65 53.985H9.38C9.71683 53.985 10.0399 53.8512 10.278 53.613C10.5162 53.3749 10.65 53.0518 10.65 52.715C10.65 52.3782 10.5162 52.0551 10.278 51.817C10.0399 51.5788 9.71683 51.445 9.38 51.445H7.94V5.325C7.94265 4.58413 8.23881 3.8745 8.76363 3.35156C9.28844 2.82862 9.99912 2.535 10.74 2.535H47.27C47.4456 2.55063 47.6225 2.52953 47.7895 2.47306C47.9564 2.41659 48.1098 2.32597 48.2399 2.20698C48.3699 2.088 48.4738 1.94324 48.5448 1.78192C48.6159 1.62061 48.6526 1.44627 48.6526 1.27C48.6526 1.09373 48.6159 0.919391 48.5448 0.758076C48.4738 0.596762 48.3699 0.452004 48.2399 0.333015C48.1098 0.214027 47.9564 0.123413 47.7895 0.0669408C47.6225 0.0104684 47.4456 -0.0106259 47.27 0.00500013H10.74C9.32813 0.00499764 7.97393 0.565177 6.97465 1.56258C5.97537 2.55999 5.41265 3.91313 5.41 5.325V51.445H2.62C2.27594 51.445 1.93524 51.5128 1.61737 51.6444C1.2995 51.7761 1.01067 51.9691 0.76738 52.2124C0.524091 52.4557 0.331103 52.7445 0.199436 53.0624C0.0677683 53.3802 0 53.7209 0 54.065L0 56.775C0 57.8359 0.421427 58.8533 1.17157 59.6034C1.92172 60.3536 2.93913 60.775 4 60.775H82.45C83.5109 60.775 84.5283 60.3536 85.2784 59.6034C86.0286 58.8533 86.45 57.8359 86.45 56.775V54.065C86.4474 53.3709 86.1705 52.7061 85.6797 52.2153C85.1889 51.7245 84.5241 51.4476 83.83 51.445H83.81Z" transform="translate(0 3)" fill="white"/>
<path d="M63.5 24.365C63.1659 24.365 62.8454 24.4977 62.6091 24.734C62.3728 24.9703 62.24 25.2908 62.24 25.625V40.625H37.71V36.125C37.7184 34.7752 37.3152 33.4549 36.5541 32.34C35.793 31.2252 34.7102 30.3688 33.45 29.885L27.8 27.695C27.528 27.5897 27.2944 27.4042 27.1301 27.1631C26.9658 26.922 26.8786 26.6367 26.88 26.345V23.515C27.7316 22.7644 28.4136 21.8412 28.8809 20.8067C29.3481 19.7722 29.5898 18.6501 29.59 17.515V14.815C29.59 12.6853 28.744 10.6428 27.2381 9.13693C25.7322 7.63102 23.6897 6.785 21.56 6.785C19.4304 6.785 17.3879 7.63102 15.882 9.13693C14.3761 10.6428 13.53 12.6853 13.53 14.815V17.515C13.529 18.6494 13.7692 19.771 14.2347 20.8054C14.7002 21.8399 15.3803 22.7635 16.23 23.515V26.325C16.2315 26.6167 16.1443 26.902 15.98 27.1431C15.8157 27.3842 15.5821 27.5697 15.31 27.675L9.67004 29.885C8.41147 30.3682 7.3298 31.2231 6.56885 32.3359C5.8079 33.4488 5.40371 34.7669 5.41004 36.115V40.615H2.53004V2.535H36.44C36.6156 2.55063 36.7925 2.52953 36.9595 2.47306C37.1265 2.41659 37.2799 2.32597 37.4099 2.20698C37.54 2.088 37.6438 1.94324 37.7149 1.78192C37.7859 1.62061 37.8226 1.44627 37.8226 1.27C37.8226 1.09373 37.7859 0.919391 37.7149 0.758077C37.6438 0.596762 37.54 0.452004 37.4099 0.333015C37.2799 0.214027 37.1265 0.123414 36.9595 0.0669412C36.7925 0.0104689 36.6156 -0.0106259 36.44 0.00500007H1.26004C0.925868 0.00500007 0.605381 0.13775 0.369086 0.374045C0.13279 0.610341 4.03269e-05 0.930828 4.03269e-05 1.265V41.885C-0.00129176 42.0508 0.0303899 42.2153 0.0932391 42.3688C0.156088 42.5222 0.248849 42.6617 0.366117 42.7789C0.483385 42.8962 0.622816 42.9889 0.776287 43.0518C0.929759 43.1147 1.0942 43.1463 1.26004 43.145H63.5C63.6663 43.1463 63.8313 43.1147 63.9853 43.052C64.1393 42.9892 64.2794 42.8966 64.3975 42.7795C64.5155 42.6624 64.6092 42.523 64.6732 42.3695C64.7371 42.216 64.7701 42.0513 64.77 41.885V25.625C64.7701 25.4587 64.7371 25.294 64.6732 25.1405C64.6092 24.987 64.5155 24.8476 64.3975 24.7305C64.2794 24.6134 64.1393 24.5208 63.9853 24.458C63.8313 24.3953 63.6663 24.3637 63.5 24.365ZM16.06 17.505V14.805C16.06 13.3463 16.6395 11.9474 17.671 10.9159C18.7024 9.88446 20.1013 9.305 21.56 9.305C23.0187 9.305 24.4177 9.88446 25.4491 10.9159C26.4806 11.9474 27.06 13.3463 27.06 14.805V17.505C27.06 18.9637 26.4806 20.3626 25.4491 21.3941C24.4177 22.4255 23.0187 23.005 21.56 23.005C20.1013 23.005 18.7024 22.4255 17.671 21.3941C16.6395 20.3626 16.06 18.9637 16.06 17.505ZM25.27 28.885L21.56 32.075L17.84 28.885C18.4409 28.168 18.767 27.2605 18.76 26.325V25.035C20.5637 25.7018 22.5464 25.7018 24.35 25.035V26.325C24.3482 27.2596 24.6737 28.1654 25.27 28.885ZM35.17 40.595H32.3V37.805C32.3 37.4682 32.1662 37.1451 31.9281 36.907C31.6899 36.6688 31.3669 36.535 31.03 36.535C30.6932 36.535 30.3702 36.6688 30.132 36.907C29.8938 37.1451 29.76 37.4682 29.76 37.805V40.595H13.35V37.805C13.3657 37.6294 13.3446 37.4525 13.2881 37.2855C13.2316 37.1186 13.141 36.9652 13.022 36.8351C12.903 36.7051 12.7583 36.6012 12.597 36.5302C12.4356 36.4591 12.2613 36.4224 12.085 36.4224C11.9088 36.4224 11.7344 36.4591 11.5731 36.5302C11.4118 36.6012 11.267 36.7051 11.1481 36.8351C11.0291 36.9652 10.9385 37.1186 10.882 37.2855C10.8255 37.4525 10.8044 37.6294 10.82 37.805V40.595H7.94004V36.095C7.93776 35.2588 8.18876 34.4415 8.66 33.7507C9.13125 33.0599 9.80063 32.528 10.58 32.225L15.58 30.285L20.72 34.705C20.9514 34.9031 21.2455 35.0129 21.55 35.015C21.8515 35.0123 22.1422 34.9024 22.37 34.705L27.52 30.285L32.52 32.225C33.3013 32.5264 33.9728 33.0576 34.446 33.7485C34.9191 34.4394 35.1715 35.2576 35.17 36.095V40.595Z" transform="translate(11 8)" fill="white"/>
<path d="M37.794 0H13.434C12.0222 0.00264892 10.669 0.56537 9.67162 1.56465C8.67421 2.56393 8.11403 3.91813 8.11403 5.33V14.27L0.364032 22C0.189033 22.1781 0.0704346 22.4039 0.0230625 22.6491C-0.0243097 22.8943 0.00164949 23.148 0.0976932 23.3785C0.193737 23.609 0.355604 23.8061 0.563052 23.9451C0.7705 24.0841 1.01432 24.1588 1.26403 24.16H8.11403V24.25C8.11668 25.6601 8.67802 27.0118 9.67514 28.0089C10.6723 29.006 12.0239 29.5674 13.434 29.57H37.794C39.2059 29.57 40.5601 29.0098 41.5594 28.0124C42.5587 27.015 43.1214 25.6619 43.124 24.25V5.33C43.124 3.9164 42.5625 2.56069 41.5629 1.56112C40.5633 0.561552 39.2076 0 37.794 0ZM40.584 24.27C40.584 24.6364 40.5119 24.9992 40.3717 25.3377C40.2315 25.6762 40.0259 25.9838 39.7669 26.2428C39.5078 26.5019 39.2002 26.7074 38.8617 26.8476C38.5232 26.9878 38.1604 27.06 37.794 27.06H13.434C12.7028 27.0469 12.0059 26.7472 11.4934 26.2254C10.981 25.7035 10.6939 25.0014 10.694 24.27V22.92C10.694 22.5832 10.5602 22.2601 10.3221 22.022C10.0839 21.7838 9.76086 21.65 9.42403 21.65H4.31403L10.314 15.65C10.5446 15.4256 10.6805 15.1215 10.694 14.8V5.33C10.6927 4.96277 10.7639 4.5989 10.9035 4.25924C11.0432 3.91959 11.2485 3.61084 11.5077 3.3507C11.7669 3.09057 12.0749 2.88416 12.414 2.74333C12.7532 2.60249 13.1168 2.53 13.484 2.53H37.794C38.1613 2.53 38.5249 2.60249 38.864 2.74333C39.2032 2.88416 39.5112 3.09057 39.7704 3.3507C40.0296 3.61084 40.2349 3.91959 40.3745 4.25924C40.5142 4.5989 40.5854 4.96277 40.584 5.33V24.27Z" transform="translate(43)" fill="white"/>
<path d="M12.2026 0.00500013H1.38258C1.20701 -0.0106259 1.0301 0.0104684 0.863121 0.0669408C0.696143 0.123413 0.542753 0.214027 0.412704 0.333015C0.282656 0.452004 0.178802 0.596762 0.10775 0.758077C0.0366976 0.919392 0 1.09373 0 1.27C0 1.44627 0.0366976 1.62061 0.10775 1.78192C0.178802 1.94324 0.282656 2.088 0.412704 2.20698C0.542753 2.32597 0.696143 2.41659 0.863121 2.47306C1.0301 2.52953 1.20701 2.55063 1.38258 2.535H12.2026C12.3782 2.55063 12.5551 2.52953 12.722 2.47306C12.889 2.41659 13.0424 2.32597 13.1725 2.20698C13.3025 2.088 13.4064 1.94324 13.4774 1.78192C13.5485 1.62061 13.5852 1.44627 13.5852 1.27C13.5852 1.09373 13.5485 0.919392 13.4774 0.758077C13.4064 0.596762 13.3025 0.452004 13.1725 0.333015C13.0424 0.214027 12.889 0.123413 12.722 0.0669408C12.5551 0.0104684 12.3782 -0.0106259 12.2026 0.00500013Z" transform="translate(66 7)" fill="white"/>
<path d="M4.09258 0.00500013H1.38258C1.20701 -0.0106259 1.0301 0.0104684 0.863125 0.0669408C0.696146 0.123413 0.542749 0.214027 0.412701 0.333015C0.282652 0.452004 0.178798 0.596762 0.107746 0.758077C0.0366938 0.919392 0 1.09373 0 1.27C0 1.44627 0.0366938 1.62061 0.107746 1.78192C0.178798 1.94324 0.282652 2.088 0.412701 2.20698C0.542749 2.32597 0.696146 2.41659 0.863125 2.47306C1.0301 2.52953 1.20701 2.55063 1.38258 2.535H4.09258C4.40867 2.50687 4.70277 2.36142 4.91698 2.1273C5.1312 1.89317 5.25 1.58734 5.25 1.27C5.25 0.952665 5.1312 0.646827 4.91698 0.412702C4.70277 0.178577 4.40867 0.0331313 4.09258 0.00500013Z" transform="translate(58 7)" fill="white"/>
<path d="M20.3226 0.00500007H1.38258C1.20701 -0.0106259 1.0301 0.0104689 0.863125 0.0669412C0.696146 0.123414 0.542749 0.214027 0.412701 0.333015C0.282652 0.452004 0.178798 0.596762 0.107746 0.758077C0.0366938 0.919391 0 1.09373 0 1.27C0 1.44627 0.0366938 1.62061 0.107746 1.78192C0.178798 1.94324 0.282652 2.088 0.412701 2.20699C0.542749 2.32597 0.696146 2.41659 0.863125 2.47306C1.0301 2.52953 1.20701 2.55063 1.38258 2.535H20.3226C20.4982 2.55063 20.6751 2.52953 20.842 2.47306C21.009 2.41659 21.1624 2.32597 21.2925 2.20699C21.4225 2.088 21.5264 1.94324 21.5974 1.78192C21.6685 1.62061 21.7052 1.44627 21.7052 1.27C21.7052 1.09373 21.6685 0.919391 21.5974 0.758077C21.5264 0.596762 21.4225 0.452004 21.2925 0.333015C21.1624 0.214027 21.009 0.123414 20.842 0.0669412C20.6751 0.0104689 20.4982 -0.0106259 20.3226 0.00500007Z" transform="translate(58 14)" fill="white"/>
<path d="M4.08258 0.00500007H1.38258C1.20701 -0.0106259 1.0301 0.0104689 0.863121 0.0669412C0.696143 0.123414 0.542745 0.214028 0.412697 0.333016C0.282648 0.452005 0.178795 0.596762 0.107742 0.758077C0.0366899 0.919391 0 1.09373 0 1.27C0 1.44627 0.0366899 1.62061 0.107742 1.78192C0.178795 1.94324 0.282648 2.088 0.412697 2.20699C0.542745 2.32597 0.696143 2.41659 0.863121 2.47306C1.0301 2.52953 1.20701 2.55063 1.38258 2.535H4.08258C4.25816 2.55063 4.43506 2.52953 4.60204 2.47306C4.76902 2.41659 4.92241 2.32597 5.05246 2.20699C5.18251 2.088 5.28637 1.94324 5.35742 1.78192C5.42847 1.62061 5.46516 1.44627 5.46516 1.27C5.46516 1.09373 5.42847 0.919391 5.35742 0.758077C5.28637 0.596762 5.18251 0.452005 5.05246 0.333016C4.92241 0.214028 4.76902 0.123414 4.60204 0.0669412C4.43506 0.0104689 4.25816 -0.0106259 4.08258 0.00500007Z" transform="translate(74 20)" fill="white"/>
<path d="M12.2126 0.00500007H1.38258C1.20701 -0.0106259 1.0301 0.0104689 0.863125 0.0669412C0.696146 0.123414 0.542749 0.214028 0.412701 0.333016C0.282652 0.452005 0.178798 0.596762 0.107746 0.758077C0.0366938 0.919391 0 1.09373 0 1.27C0 1.44627 0.0366938 1.62061 0.107746 1.78192C0.178798 1.94324 0.282652 2.088 0.412701 2.20699C0.542749 2.32597 0.696146 2.41659 0.863125 2.47306C1.0301 2.52953 1.20701 2.55063 1.38258 2.535H12.2126C12.5287 2.50687 12.8228 2.36142 13.037 2.1273C13.2512 1.89317 13.37 1.58734 13.37 1.27C13.37 0.952666 13.2512 0.646828 13.037 0.412703C12.8228 0.178579 12.5287 0.0331313 12.2126 0.00500007Z" transform="translate(58 20)" fill="white"/>
</svg>
