<svg width="72" height="64" viewBox="0 0 72 64" fill="none" xmlns="http://www.w3.org/2000/svg">
<rect width="71.4" height="63.8845" fill="black" fill-opacity="0"/>
<rect width="71.4" height="63.8845" fill="black" fill-opacity="0"/>
<rect width="71.4" height="63.8845" fill="black" fill-opacity="0"/>
<path d="M67.21 24.26H58.43V4.18C58.4274 3.07221 57.9861 2.01054 57.2028 1.22721C56.4195 0.44388 55.3578 0.00264076 54.25 0L17.15 0C16.0474 0.0105233 14.9934 0.45524 14.2166 1.23772C13.4397 2.0202 13.0026 3.07737 13 4.18V16.73H4.18C3.07048 16.7326 2.0073 17.1753 1.22368 17.9608C0.440069 18.7462 -3.15993e-06 19.8105 0 20.92L0 46.58C0.00264076 47.6878 0.44388 48.7495 1.22721 49.5328C2.01054 50.3161 3.07221 50.7574 4.18 50.76H16.57L21.74 55.93C21.8704 56.063 22.0259 56.1687 22.1977 56.2409C22.3694 56.313 22.5537 56.3502 22.74 56.3502C22.9263 56.3502 23.1106 56.313 23.2823 56.2409C23.4541 56.1687 23.6096 56.063 23.74 55.93L25.96 53.71V54.11C25.96 55.2186 26.4004 56.2818 27.1843 57.0657C27.9682 57.8496 29.0314 58.29 30.14 58.29H42.51L47.68 63.46C47.8096 63.5943 47.965 63.7011 48.1368 63.774C48.3086 63.847 48.4934 63.8845 48.68 63.8845C48.8666 63.8845 49.0514 63.847 49.2232 63.774C49.395 63.7011 49.5504 63.5943 49.68 63.46L54.85 58.29H67.21C68.3195 58.29 69.3838 57.8499 70.1693 57.0663C70.9547 56.2827 71.3974 55.2195 71.4 54.11V28.45C71.3974 27.3396 70.9551 26.2753 70.1699 25.4901C69.3847 24.7049 68.3204 24.2626 67.21 24.26ZM15.76 4.18C15.76 3.81135 15.9064 3.4578 16.1671 3.19712C16.4278 2.93645 16.7813 2.79 17.15 2.79H54.25C54.6187 2.79 54.9722 2.93645 55.2329 3.19712C55.4936 3.4578 55.64 3.81135 55.64 4.18V29.84C55.64 30.2096 55.4939 30.5642 55.2335 30.8264C54.9731 31.0887 54.6196 31.2374 54.25 31.24H41.25C41.0652 31.2374 40.8816 31.2713 40.71 31.34C40.5384 31.4086 40.382 31.5106 40.25 31.64L35.66 36.24L31.07 31.64C30.938 31.5106 30.7816 31.4086 30.61 31.34C30.4384 31.2713 30.2548 31.2374 30.07 31.24H17.07C16.7004 31.2374 16.3469 31.0887 16.0865 30.8264C15.8261 30.5642 15.68 30.2096 15.68 29.84L15.76 4.18ZM27.32 48.38L22.73 53L18.14 48.41C18.0085 48.2793 17.8524 48.1757 17.6808 48.1054C17.5092 48.035 17.3255 47.9992 17.14 48H4.14C3.77135 48 3.4178 47.8536 3.15712 47.5929C2.89645 47.3322 2.75 46.9787 2.75 46.61V20.92C2.74999 20.5504 2.89612 20.1958 3.15651 19.9336C3.4169 19.6713 3.77043 19.5226 4.14 19.52H13V29.84C13.0078 30.9392 13.4472 31.9912 14.2236 32.7694C14.9999 33.5476 16.0509 33.9895 17.15 34H29.54L34.71 39.16C34.8405 39.2921 34.9964 39.3965 35.1682 39.467C35.34 39.5374 35.5243 39.5725 35.71 39.57C35.896 39.5748 36.081 39.5409 36.2532 39.4703C36.4253 39.3997 36.5809 39.294 36.71 39.16L41.85 34H42.67V46.58C42.674 46.765 42.641 46.949 42.5729 47.1211C42.5049 47.2933 42.4031 47.4501 42.2736 47.5823C42.1442 47.7146 41.9896 47.8197 41.819 47.8914C41.6483 47.9631 41.4651 48 41.28 48H28.28C28.0945 47.9992 27.9108 48.035 27.7392 48.1054C27.5676 48.1757 27.4115 48.2793 27.28 48.41L27.32 48.38ZM68.61 54.11C68.6074 54.4796 68.4587 54.8331 68.1964 55.0935C67.9342 55.3539 67.5796 55.5 67.21 55.5H54.21C54.0245 55.4992 53.8408 55.535 53.6692 55.6054C53.4976 55.6757 53.3415 55.7793 53.21 55.91L48.67 60.5L44.08 55.91C43.8131 55.6478 43.4541 55.5006 43.08 55.5H30.08C29.7113 55.5 29.3578 55.3536 29.0971 55.0929C28.8364 54.8322 28.69 54.4787 28.69 54.11V50.92L28.85 50.76H41.28C42.3878 50.7574 43.4495 50.3161 44.2328 49.5328C45.0161 48.7495 45.4574 47.6878 45.46 46.58V34H54.25C55.3595 33.9974 56.4227 33.5547 57.2063 32.7692C57.9899 31.9838 58.43 30.9195 58.43 29.81V27.05H67.21C67.5813 27.05 67.9374 27.1975 68.2 27.4601C68.4625 27.7226 68.61 28.0787 68.61 28.45V54.11Z" fill="#4792FD"/>
<path d="M48.67 7.81006H22.75C22.4005 7.83968 22.0747 7.99948 21.8374 8.25783C21.6 8.51617 21.4683 8.85422 21.4683 9.20506C21.4683 9.5559 21.6 9.89395 21.8374 10.1523C22.0747 10.4106 22.4005 10.5704 22.75 10.6001H48.67C49.0196 10.5704 49.3454 10.4106 49.5827 10.1523C49.8201 9.89395 49.9518 9.5559 49.9518 9.20506C49.9518 8.85422 49.8201 8.51617 49.5827 8.25783C49.3454 7.99948 49.0196 7.83968 48.67 7.81006Z" fill="#4792FD"/>
<path d="M49.65 16C49.4224 15.7739 49.1237 15.6334 48.8044 15.6023C48.4851 15.5713 48.1649 15.6517 47.8981 15.8299C47.6314 16.008 47.4344 16.2729 47.3407 16.5797C47.247 16.8865 47.2622 17.2163 47.3839 17.5131C47.5056 17.8099 47.7262 18.0555 48.0084 18.2082C48.2905 18.3609 48.6167 18.4114 48.9318 18.351C49.2468 18.2905 49.5313 18.123 49.7369 17.8768C49.9426 17.6306 50.0567 17.3208 50.06 17C50.0613 16.8145 50.0257 16.6305 49.9553 16.4588C49.885 16.2872 49.7812 16.1312 49.65 16Z" fill="#4792FD"/>
<path d="M41.74 15.62H22.74C22.3905 15.6496 22.0647 15.8094 21.8274 16.0678C21.59 16.3261 21.4583 16.6642 21.4583 17.015C21.4583 17.3658 21.59 17.7039 21.8274 17.9622C22.0647 18.2206 22.3905 18.3804 22.74 18.41H41.74C41.9332 18.4264 42.1276 18.4024 42.311 18.3398C42.4944 18.2771 42.6628 18.177 42.8055 18.0459C42.9482 17.9148 43.0621 17.7554 43.1401 17.578C43.218 17.4005 43.2583 17.2088 43.2583 17.015C43.2583 16.8212 43.218 16.6295 43.1401 16.452C43.0621 16.2746 42.9482 16.1152 42.8055 15.9841C42.6628 15.853 42.4944 15.7529 42.311 15.6902C42.1276 15.6275 41.9332 15.6036 41.74 15.62Z" fill="#4792FD"/>
<path d="M48.67 23.4301H29.57C29.2204 23.4597 28.8947 23.6195 28.6573 23.8778C28.4199 24.1362 28.2882 24.4742 28.2882 24.8251C28.2882 25.1759 28.4199 25.5139 28.6573 25.7723C28.8947 26.0306 29.2204 26.1904 29.57 26.2201H48.67C49.0196 26.1904 49.3453 26.0306 49.5827 25.7723C49.8201 25.5139 49.9518 25.1759 49.9518 24.8251C49.9518 24.4742 49.8201 24.1362 49.5827 23.8778C49.3453 23.6195 49.0196 23.4597 48.67 23.4301Z" fill="#4792FD"/>
<path d="M22.85 23.4301H22.73C22.3804 23.4597 22.0547 23.6195 21.8173 23.8778C21.58 24.1362 21.4482 24.4742 21.4482 24.8251C21.4482 25.1759 21.58 25.5139 21.8173 25.7723C22.0547 26.0306 22.3804 26.1904 22.73 26.2201H22.85C23.1996 26.1904 23.5253 26.0306 23.7627 25.7723C24.0001 25.5139 24.1318 25.1759 24.1318 24.8251C24.1318 24.4742 24.0001 24.1362 23.7627 23.8778C23.5253 23.6195 23.1996 23.4597 22.85 23.4301Z" fill="#4792FD"/>
</svg>
