<svg width="86" height="87" viewBox="0 0 86 87" fill="none" xmlns="http://www.w3.org/2000/svg">
<path d="M5.61843 0.838428C5.47598 0.748282 5.31559 0.690271 5.14843 0.668429L1.47843 0.0184279C1.31493 -0.00980636 1.14748 -0.00556111 0.985621 0.030921C0.823766 0.0674031 0.670683 0.135407 0.53511 0.231051C0.399536 0.326696 0.284128 0.448106 0.195476 0.588351C0.106823 0.728597 0.0466621 0.884931 0.0184279 1.04843C-0.00980635 1.21192 -0.00556112 1.37938 0.030921 1.54124C0.0674031 1.70309 0.135407 1.85617 0.231051 1.99175C0.326696 2.12732 0.448109 2.24273 0.588355 2.33138C0.728601 2.42003 0.884935 2.4802 1.04843 2.50843L4.49843 3.11843L15.9884 10.1784C16.2678 10.3429 16.5989 10.3962 16.9157 10.3276C17.2326 10.2591 17.512 10.0737 17.6984 9.80843C17.7922 9.66671 17.8565 9.50762 17.8877 9.34058C17.9188 9.17354 17.9161 9.00195 17.8798 8.83597C17.8434 8.67 17.7741 8.513 17.6759 8.37429C17.5778 8.23558 17.4528 8.11797 17.3084 8.02843L5.61843 0.838428Z" transform="translate(42 41)" fill="#4792FD"/>
<path d="M83.8725 48.9228L78.7625 53.7028L55.3125 30.5728L85.6025 2.18278C85.7233 2.06919 85.8206 1.93291 85.8887 1.78173C85.9568 1.63055 85.9946 1.46743 85.9997 1.30168C86.0048 1.13592 85.9772 0.970787 85.9185 0.815698C85.8598 0.660608 85.7711 0.518601 85.6575 0.397785C85.5439 0.276969 85.4076 0.179709 85.2564 0.11156C85.1052 0.0434109 84.9421 0.00570627 84.7764 0.00059905C84.6106 -0.00450817 84.4455 0.023082 84.2904 0.0817943C84.1353 0.140507 83.9933 0.229191 83.8725 0.342785L52.6325 29.6228C52.5109 29.7411 52.4143 29.8826 52.3483 30.0389C52.2824 30.1952 52.2484 30.3631 52.2484 30.5328C52.2484 30.7024 52.2824 30.8704 52.3483 31.0267C52.4143 31.183 52.5109 31.3244 52.6325 31.4428L54.7125 33.4928L54.0525 34.0728L40.1525 32.8828C39.9365 32.8647 39.7195 32.9025 39.5225 32.9928L28.5225 37.9928H28.4225L22.1025 36.8828L22.6125 35.5728C22.6741 35.4199 22.7049 35.2562 22.7031 35.0914C22.7013 34.9265 22.6668 34.7636 22.6017 34.6121C22.5367 34.4606 22.4423 34.3234 22.324 34.2086C22.2057 34.0937 22.0658 34.0034 21.9125 33.9428L1.73248 25.8428C1.57883 25.7811 1.41454 25.7502 1.24896 25.752C1.08339 25.7538 0.919794 25.7881 0.767506 25.8531C0.615218 25.9181 0.477224 26.0125 0.361403 26.1308C0.245582 26.2492 0.154202 26.3891 0.0924808 26.5428C0.0307595 26.6964 -9.44323e-05 26.8607 0.00168055 27.0263C0.00345552 27.1919 0.0378247 27.3555 0.102826 27.5078C0.234101 27.8153 0.482178 28.0581 0.792481 28.1828L19.7925 35.8028L8.61248 64.4628L1.68248 62.0028C1.36669 61.8963 1.02181 61.9171 0.721159 62.0609C0.420507 62.2047 0.187791 62.4601 0.0724808 62.7728C0.0170604 62.929 -0.00697742 63.0947 0.00174503 63.2603C0.0104675 63.4258 0.0517787 63.588 0.123311 63.7376C0.194843 63.8872 0.29519 64.0212 0.418599 64.1319C0.542009 64.2426 0.686055 64.3278 0.842481 64.3828L8.92248 67.2528C9.23205 67.3561 9.56926 67.3382 9.86616 67.2027C10.1631 67.0672 10.3976 66.8243 10.5225 66.5228L12.3925 61.7328L17.3025 64.4828L16.7625 65.3628C16.0257 66.5591 15.7941 67.9989 16.1185 69.3659C16.4429 70.7329 17.2968 71.9151 18.4925 72.6528C19.1482 73.0527 19.8823 73.3069 20.6449 73.3984C21.4074 73.4898 22.1808 73.4163 22.9125 73.1828C23.0272 73.9425 23.306 74.6681 23.7295 75.3092C24.153 75.9502 24.7111 76.4913 25.3649 76.8949C26.0187 77.2984 26.7526 77.5546 27.5155 77.6458C28.2784 77.737 29.052 77.6609 29.7825 77.4228C29.8985 78.1829 30.1785 78.9086 30.6031 79.5497C31.0276 80.1907 31.5866 80.7317 32.2412 81.1351C32.8957 81.5385 33.6302 81.7947 34.3937 81.8858C35.1572 81.9769 35.9314 81.9008 36.6625 81.6628C36.7771 82.4233 37.0555 83.1498 37.4786 83.7921C37.9016 84.4344 38.4591 84.9771 39.1125 85.3828C40.0635 85.9591 41.1702 86.2255 42.2792 86.1448C43.3883 86.0642 44.4449 85.6406 45.3025 84.9328C45.7371 84.5667 46.1116 84.1348 46.4125 83.6528L47.2725 82.2528L47.9825 82.6928C48.932 83.2698 50.0381 83.5357 51.1462 83.4532C52.2543 83.3708 53.3088 82.9441 54.1625 82.2328C54.7919 81.6988 55.2866 81.0238 55.6063 80.2628C55.926 79.5018 56.0617 78.6761 56.0025 77.8528C56.4048 77.9531 56.8179 78.0035 57.2325 78.0028C57.9554 78.0012 58.6704 77.8523 59.3339 77.5652C59.9974 77.2781 60.5953 76.8587 61.0913 76.3328C61.5873 75.8069 61.9709 75.1853 62.2187 74.5062C62.4665 73.8271 62.5732 73.1046 62.5325 72.3828C62.9314 72.4828 63.3412 72.5331 63.7525 72.5328C64.6668 72.5359 65.5666 72.305 66.3665 71.8622C67.1664 71.4193 67.8398 70.7793 68.3225 70.0028C68.891 69.0766 69.1599 67.9975 69.0925 66.9128C69.4929 67.0032 69.902 67.0501 70.3125 67.0528C71.4664 67.0541 72.5892 66.6788 73.5104 65.9839C74.4316 65.2891 75.1008 64.3125 75.4165 63.2026C75.7321 62.0928 75.6769 60.9102 75.2593 59.8345C74.8417 58.7589 74.0844 57.8489 73.1025 57.2428L72.2325 56.7128L75.1325 53.7128L77.8525 56.3928C78.0897 56.6149 78.4025 56.7386 78.7275 56.7386C79.0525 56.7386 79.3653 56.6149 79.6025 56.3928L85.6025 50.7828C85.8194 50.5471 85.9393 50.2381 85.938 49.9177C85.9367 49.5974 85.8144 49.2893 85.5956 49.0553C85.3768 48.8213 85.0776 48.6787 84.7581 48.656C84.4385 48.6332 84.1222 48.7321 83.8725 48.9328V48.9228ZM19.8125 70.5028C19.502 70.3115 19.2324 70.0609 19.0191 69.7652C18.8057 69.4695 18.6529 69.1346 18.5693 68.7797C18.4857 68.4248 18.4729 68.0568 18.5318 67.697C18.5907 67.3372 18.7201 66.9925 18.9125 66.6828L26.0025 55.2228C26.387 54.6085 26.9955 54.1679 27.6992 53.9943C28.4028 53.8208 29.1464 53.9278 29.7725 54.2928C30.4086 54.6982 30.8603 55.337 31.0305 56.0718C31.2006 56.8067 31.0757 57.579 30.6825 58.2228L23.6825 69.6028C23.4893 69.918 23.2354 70.1916 22.9355 70.4078C22.6357 70.6241 22.2958 70.7785 21.9357 70.8623C21.5757 70.946 21.2025 70.9573 20.838 70.8956C20.4735 70.8339 20.1249 70.7004 19.8125 70.5028ZM26.6925 74.7428C26.07 74.3527 25.6258 73.7336 25.4556 73.0191C25.2853 72.3045 25.4028 71.5516 25.7825 70.9228L31.4425 61.7628C31.8254 61.1468 32.4332 60.7041 33.137 60.5287C33.8407 60.3532 34.5852 60.4587 35.2125 60.8228C35.8486 61.2282 36.3003 61.867 36.4705 62.6018C36.6406 63.3367 36.5157 64.109 36.1225 64.7528L30.5125 73.8428C30.3212 74.1532 30.0706 74.4228 29.7749 74.6362C29.4792 74.8495 29.1443 75.0024 28.7894 75.086C28.4345 75.1696 28.0665 75.1823 27.7067 75.1234C27.3469 75.0645 27.0022 74.9352 26.6925 74.7428ZM35.6925 79.3228C35.3382 79.4116 34.9697 79.4281 34.6089 79.3714C34.2481 79.3147 33.9024 79.186 33.5925 78.9928C32.973 78.5975 32.5323 77.976 32.3642 77.2607C32.1961 76.5453 32.3139 75.7926 32.6925 75.1628L36.9325 68.2928C37.3171 67.6758 37.9275 67.2333 38.6335 67.0596C39.3395 66.8859 40.0855 66.9947 40.7125 67.3628C41.3463 67.7679 41.7957 68.4056 41.964 69.1388C42.1323 69.8719 42.0061 70.6418 41.6125 71.2828L37.4125 78.0828C37.2196 78.3969 36.9651 78.6687 36.6644 78.8818C36.3636 79.0949 36.0228 79.2449 35.6625 79.3228H35.6925ZM44.2925 82.3228C44.111 82.6526 43.8644 82.9421 43.5678 83.1737C43.2711 83.4054 42.9304 83.5744 42.5665 83.6704C42.2025 83.7665 41.8228 83.7877 41.4505 83.7327C41.0781 83.6776 40.7208 83.5476 40.4002 83.3503C40.0796 83.1531 39.8024 82.8928 39.5854 82.5852C39.3684 82.2776 39.2161 81.9292 39.1377 81.561C39.0594 81.1928 39.0567 80.8126 39.1297 80.4433C39.2027 80.0741 39.3499 79.7235 39.5625 79.4128L42.3925 74.8228C42.7789 74.2078 43.3891 73.767 44.0944 73.5935C44.7997 73.4199 45.5448 73.5273 46.1725 73.8928C46.807 74.2998 47.2566 74.9393 47.4248 75.674C47.5931 76.4088 47.4666 77.1802 47.0725 77.8228L44.2925 82.3228ZM70.0025 55.3528L63.7525 51.5128C63.6113 51.4255 63.4543 51.3668 63.2905 51.3401C63.1266 51.3135 62.9591 51.3193 62.7976 51.3574C62.636 51.3955 62.4835 51.465 62.3488 51.562C62.2141 51.659 62.0998 51.7816 62.0125 51.9228C61.9251 52.064 61.8665 52.2209 61.8398 52.3848C61.8132 52.5486 61.819 52.7161 61.8571 52.8777C61.8952 53.0393 61.9647 53.1918 62.0617 53.3265C62.1587 53.4612 62.2813 53.5755 62.4225 53.6628L71.7525 59.3928C72.0823 59.5743 72.3718 59.8208 72.6034 60.1175C72.8351 60.4142 73.0041 60.7548 73.1001 61.1188C73.1962 61.4827 73.2174 61.8624 73.1624 62.2348C73.1073 62.6072 72.9772 62.9645 72.78 63.2851C72.5828 63.6057 72.3225 63.8829 72.0149 64.0999C71.7073 64.3169 71.3589 64.4692 70.9907 64.5475C70.6225 64.6259 70.2423 64.6286 69.873 64.5556C69.5037 64.4826 69.1531 64.3353 68.8425 64.1228L58.8725 58.0028C58.7322 57.9152 58.576 57.8562 58.4128 57.8294C58.2497 57.8026 58.0828 57.8084 57.9219 57.8466C57.761 57.8847 57.6092 57.9544 57.4754 58.0516C57.3417 58.1488 57.2285 58.2715 57.1425 58.4128C56.9677 58.6983 56.9127 59.0413 56.9895 59.3671C57.0663 59.693 57.2686 59.9753 57.5525 60.1528L65.2525 64.8828C65.5631 65.0732 65.8331 65.3229 66.0471 65.6177C66.2612 65.9125 66.4151 66.2465 66.5001 66.6008C66.5851 66.955 66.5994 67.3226 66.5423 67.6824C66.4853 68.0422 66.3579 68.3872 66.1675 68.6978C65.9771 69.0084 65.7273 69.2784 65.4326 69.4925C65.1378 69.7065 64.8037 69.8604 64.4495 69.9454C64.0952 70.0304 63.7277 70.0447 63.3679 69.9876C63.0081 69.9306 62.6631 69.8032 62.3525 69.6128L55.3525 65.3228C55.07 65.1438 54.728 65.0843 54.4017 65.1574C54.0754 65.2306 53.7915 65.4303 53.6125 65.7128C53.4335 65.9952 53.374 66.3372 53.4471 66.6636C53.5203 66.9899 53.72 67.2738 54.0025 67.4528L58.6925 70.3328C59.0223 70.5143 59.3118 70.7608 59.5434 71.0575C59.7751 71.3542 59.9441 71.6948 60.0401 72.0588C60.1362 72.4228 60.1574 72.8024 60.1024 73.1748C60.0473 73.5472 59.9172 73.9045 59.72 74.2251C59.5228 74.5457 59.2625 74.8229 58.9549 75.0399C58.6473 75.2569 58.2989 75.4092 57.9307 75.4875C57.5625 75.5659 57.1823 75.5686 56.813 75.4956C56.4437 75.4226 56.0931 75.2753 55.7825 75.0628C55.7825 75.0628 51.6625 72.5328 51.6225 72.5228C51.33 72.3697 50.9892 72.3374 50.6732 72.433C50.3572 72.5286 50.0914 72.7444 49.9329 73.0339C49.7743 73.3235 49.7358 73.6637 49.8255 73.9814C49.9151 74.2991 50.1259 74.5689 50.4125 74.7328L52.1725 75.8128C52.799 76.1993 53.2467 76.8185 53.4173 77.5346C53.5879 78.2508 53.4675 79.0053 53.0825 79.6328C52.6906 80.2532 52.0716 80.6957 51.3578 80.8658C50.644 81.0359 49.892 80.9199 49.2625 80.5428L48.5525 80.1028L49.1525 79.1028C49.9128 77.88 50.1574 76.4056 49.8325 75.0028C49.6729 74.323 49.377 73.6827 48.9628 73.1207C48.5485 72.5586 48.0245 72.0864 47.4225 71.7328C46.5179 71.196 45.4722 70.945 44.4225 71.0128C44.6222 70.1745 44.6222 69.301 44.4225 68.4628C44.1401 67.2577 43.4372 66.1929 42.44 65.4597C41.4429 64.7265 40.2169 64.373 38.9825 64.4628C39.2415 63.3604 39.146 62.2044 38.7097 61.1594C38.2734 60.1144 37.5185 59.2337 36.5525 58.6428C35.6472 58.1077 34.602 57.8569 33.5525 57.9228C33.8452 56.7014 33.693 55.4157 33.1231 54.2965C32.5533 53.1773 31.6031 52.2979 30.4433 51.8161C29.2834 51.3344 27.9898 51.2818 26.7947 51.6679C25.5996 52.054 24.5812 52.8535 23.9225 53.9228L18.7225 62.3528L13.4125 59.3528L21.2725 39.2528L25.5625 40.0128C24.9294 40.7903 24.5303 41.7318 24.4118 42.7275C24.2932 43.7231 24.4601 44.732 24.8929 45.6364C25.3258 46.5409 26.0068 47.3037 26.8565 47.836C27.7063 48.3682 28.6898 48.6481 29.6925 48.6428C30.4487 48.6443 31.1962 48.4804 31.8825 48.1628L39.2725 44.8028C39.575 44.6594 39.8093 44.4033 39.9252 44.0893C40.0411 43.7752 40.0293 43.4283 39.8925 43.1228C39.7511 42.821 39.4968 42.5869 39.1844 42.4709C38.872 42.3549 38.5265 42.3664 38.2225 42.5028L30.8325 45.8728C30.165 46.1559 29.4133 46.1671 28.7377 45.9039C28.0621 45.6407 27.5161 45.124 27.216 44.4639C26.916 43.8038 26.8857 43.0527 27.1317 42.3706C27.3776 41.6885 27.8803 41.1295 28.5325 40.8128L40.3625 35.4228L54.4325 36.6428H54.5425C54.8494 36.6434 55.1454 36.5293 55.3725 36.3228L56.5725 35.3228L73.3425 51.9028L70.0025 55.3528Z" fill="#4792FD"/>
</svg>
