<svg width="56" height="55" viewBox="0 0 56 55" fill="none" xmlns="http://www.w3.org/2000/svg">
<rect width="55.35" height="54.445" fill="black" fill-opacity="0"/>
<rect width="55.35" height="54.445" fill="black" fill-opacity="0"/>
<rect width="55.35" height="54.445" fill="black" fill-opacity="0"/>
<path d="M40.94 3.86504C40.719 2.78685 40.1326 1.81797 39.28 1.122C38.4273 0.426043 37.3606 0.0456441 36.26 0.0450439C36.0562 0.108341 35.878 0.235176 35.7514 0.407003C35.6249 0.578831 35.5566 0.786639 35.5566 1.00004C35.5566 1.21345 35.6249 1.42126 35.7514 1.59308C35.878 1.76491 36.0562 1.89175 36.26 1.95504C36.6505 1.93196 37.0415 1.98895 37.4092 2.12249C37.7769 2.25604 38.1133 2.46333 38.398 2.73164C38.6826 2.99994 38.9094 3.3236 39.0644 3.68273C39.2194 4.04186 39.2993 4.42889 39.2993 4.82004C39.2993 5.2112 39.2194 5.59823 39.0644 5.95736C38.9094 6.31649 38.6826 6.64015 38.398 6.90845C38.1133 7.17676 37.7769 7.38405 37.4092 7.51759C37.0415 7.65114 36.6505 7.70812 36.26 7.68504C36.0599 7.7508 35.8857 7.87805 35.7622 8.04864C35.6387 8.21922 35.5723 8.42445 35.5723 8.63504C35.5723 8.84564 35.6387 9.05087 35.7622 9.22145C35.8857 9.39204 36.0599 9.51928 36.26 9.58504C37.3592 9.58492 38.4248 9.20594 39.2773 8.51196C40.1297 7.81798 40.7169 6.85139 40.94 5.77504H53.44V14.355H1.91V5.77504H18.13C18.2797 5.82153 18.4381 5.83218 18.5927 5.80616C18.7472 5.78013 18.8935 5.71815 19.0196 5.62522C19.1458 5.53228 19.2484 5.41099 19.3191 5.27113C19.3898 5.13127 19.4266 4.97675 19.4266 4.82004C19.4266 4.66333 19.3898 4.50882 19.3191 4.36896C19.2484 4.2291 19.1458 4.10781 19.0196 4.01487C18.8935 3.92194 18.7472 3.85996 18.5927 3.83393C18.4381 3.80791 18.2797 3.81856 18.13 3.86504H16.4C16.576 3.37126 16.8842 2.93532 17.2912 2.60488C17.6981 2.27443 18.188 2.06217 18.7074 1.9913C19.2268 1.92044 19.7557 1.99368 20.2363 2.20303C20.7168 2.41237 21.1306 2.74978 21.4325 3.17838C21.7343 3.60698 21.9125 4.11028 21.9476 4.6333C21.9828 5.15632 21.8735 5.67895 21.6317 6.14407C21.39 6.60919 21.025 6.99893 20.5768 7.27069C20.1285 7.54245 19.6142 7.68579 19.09 7.68504C18.9398 7.63568 18.7801 7.62263 18.6238 7.64696C18.4676 7.67129 18.3194 7.73232 18.1913 7.82503C18.0633 7.91774 17.959 8.03949 17.8871 8.1803C17.8152 8.3211 17.7778 8.47695 17.7778 8.63504C17.7778 8.79314 17.8152 8.94899 17.8871 9.08979C17.959 9.2306 18.0633 9.35235 18.1913 9.44506C18.3194 9.53777 18.4676 9.59879 18.6238 9.62313C18.7801 9.64746 18.9398 9.63441 19.09 9.58504C19.9925 9.58399 20.8762 9.32693 21.6384 8.84372C22.4006 8.36051 23.0101 7.67097 23.3961 6.85519C23.7821 6.03941 23.9288 5.13087 23.819 4.23507C23.7093 3.33928 23.3477 2.49299 22.7762 1.7945C22.2047 1.09601 21.4468 0.573983 20.5905 0.289038C19.7341 0.00409414 18.8146 -0.0320707 17.9385 0.184744C17.0624 0.401559 16.2659 0.862456 15.6413 1.51391C15.0167 2.16536 14.5897 2.98063 14.41 3.86504H0V54.445H55.35V3.86504H40.94ZM53.44 52.535H1.91V16.275H53.44V52.535Z" fill="#4792FD"/>
<path d="M24.8101 1.95504C25.5406 1.99823 26.2271 2.31888 26.7291 2.85143C27.2311 3.38398 27.5107 4.08819 27.5107 4.82004C27.5107 5.5519 27.2311 6.25611 26.7291 6.78866C26.2271 7.32121 25.5406 7.64186 24.8101 7.68504C24.6599 7.63568 24.5001 7.62263 24.3439 7.64696C24.1877 7.67129 24.0395 7.73232 23.9114 7.82503C23.7833 7.91774 23.6791 8.03949 23.6072 8.1803C23.5353 8.3211 23.4978 8.47695 23.4978 8.63504C23.4978 8.79314 23.5353 8.94899 23.6072 9.08979C23.6791 9.2306 23.7833 9.35235 23.9114 9.44506C24.0395 9.53777 24.1877 9.59879 24.3439 9.62313C24.5001 9.64746 24.6599 9.63441 24.8101 9.58504C26.0751 9.58504 27.2884 9.08249 28.183 8.18794C29.0775 7.2934 29.5801 6.08013 29.5801 4.81504C29.5801 3.54996 29.0775 2.33669 28.183 1.44214C27.2884 0.547596 26.0751 0.0450439 24.8101 0.0450439C24.6063 0.108341 24.428 0.235176 24.3015 0.407003C24.1749 0.578831 24.1067 0.786639 24.1067 1.00004C24.1067 1.21345 24.1749 1.42126 24.3015 1.59308C24.428 1.76491 24.6063 1.89175 24.8101 1.95504Z" fill="#4792FD"/>
<path d="M30.54 1.955C31.2706 1.99818 31.9571 2.31883 32.4591 2.85138C32.9611 3.38393 33.2407 4.08814 33.2407 4.82C33.2407 5.55186 32.9611 6.25607 32.4591 6.78862C31.9571 7.32117 31.2706 7.64182 30.54 7.685C30.3898 7.63563 30.2301 7.62258 30.0739 7.64692C29.9177 7.67125 29.7694 7.73227 29.6414 7.82498C29.5133 7.91769 29.4091 8.03945 29.3372 8.18025C29.2653 8.32106 29.2278 8.4769 29.2278 8.635C29.2278 8.7931 29.2653 8.94894 29.3372 9.08975C29.4091 9.23055 29.5133 9.35231 29.6414 9.44502C29.7694 9.53773 29.9177 9.59875 30.0739 9.62308C30.2301 9.64742 30.3898 9.63437 30.54 9.585C31.8051 9.585 33.0184 9.08245 33.9129 8.1879C34.8075 7.29335 35.31 6.08008 35.31 4.815C35.31 3.54992 34.8075 2.33665 33.9129 1.4421C33.0184 0.547552 31.8051 0.0450001 30.54 0.0450001C30.3904 -0.00148103 30.2319 -0.0121387 30.0774 0.0138867C29.9228 0.0399121 29.7766 0.101892 29.6504 0.194827C29.5242 0.287763 29.4216 0.409052 29.3509 0.548913C29.2803 0.688773 29.2434 0.84329 29.2434 1C29.2434 1.15671 29.2803 1.31123 29.3509 1.45109C29.4216 1.59095 29.5242 1.71224 29.6504 1.80517C29.7766 1.89811 29.9228 1.96009 30.0774 1.98611C30.2319 2.01214 30.3904 2.00148 30.54 1.955Z" fill="#4792FD"/>
<path d="M12.4001 31.545C13.5338 31.5469 14.6426 31.2126 15.5862 30.5841C16.5298 29.9557 17.2658 29.0615 17.701 28.0147C18.1362 26.9678 18.2511 25.8154 18.0312 24.7032C17.8112 23.5911 17.2663 22.5691 16.4653 21.7668C15.6644 20.9644 14.6434 20.4177 13.5316 20.1958C12.4198 19.9739 11.2672 20.0868 10.2196 20.5202C9.17199 20.9536 8.2765 21.688 7.64643 22.6305C7.01637 23.573 6.68006 24.6812 6.68005 25.815C6.68269 27.3321 7.28586 28.7865 8.35771 29.8602C9.42956 30.934 10.8829 31.5397 12.4001 31.545ZM12.4001 21.995C13.156 21.993 13.8955 22.2153 14.525 22.6339C15.1546 23.0524 15.6457 23.6483 15.9364 24.3462C16.2271 25.044 16.3041 25.8124 16.1579 26.5541C16.0116 27.2957 15.6486 27.9773 15.1147 28.5125C14.5809 29.0478 13.9003 29.4126 13.159 29.5608C12.4177 29.709 11.6491 29.634 10.9505 29.3451C10.2519 29.0563 9.65473 28.5667 9.23454 27.9383C8.81435 27.3099 8.59006 26.5709 8.59005 25.815C8.60574 24.8131 9.01343 23.8572 9.72569 23.1524C10.438 22.4476 11.3981 22.0501 12.4001 22.045V21.995Z" fill="#4792FD"/>
<path d="M27.67 31.545C28.8058 31.5569 29.9194 31.231 30.8696 30.6086C31.8198 29.9863 32.5635 29.0956 33.0064 28.0497C33.4493 27.0038 33.5714 25.8498 33.3571 24.7344C33.1428 23.6189 32.6019 22.5924 31.803 21.785C31.0041 20.9776 29.9832 20.4259 28.8701 20.1999C27.757 19.9739 26.6018 20.0838 25.5513 20.5157C24.5008 20.9476 23.6023 21.6819 22.97 22.6255C22.3377 23.569 22.0001 24.6792 22 25.815C22.0026 27.3322 22.6058 28.7866 23.6777 29.8603C24.7495 30.934 26.2029 31.5397 27.72 31.545H27.67ZM27.67 21.995C28.4259 21.993 29.1655 22.2154 29.795 22.6339C30.4245 23.0525 30.9157 23.6484 31.2063 24.3462C31.497 25.0441 31.5741 25.8124 31.4278 26.5541C31.2816 27.2958 30.9185 27.9774 30.3847 28.5126C29.8508 29.0478 29.1702 29.4127 28.4289 29.5609C27.6877 29.7091 26.9191 29.634 26.2205 29.3452C25.5219 29.0564 24.9247 28.5667 24.5045 27.9383C24.0843 27.3099 23.86 26.571 23.86 25.815C23.8731 24.8123 24.28 23.855 24.9928 23.1496C25.7056 22.4443 26.6672 22.0476 27.67 22.045V21.995Z" fill="#4792FD"/>
<path d="M42.94 31.545C44.0737 31.5469 45.1825 31.2126 46.1261 30.5841C47.0697 29.9557 47.8057 29.0615 48.2409 28.0147C48.6761 26.9678 48.791 25.8154 48.5711 24.7032C48.3511 23.5911 47.8062 22.5691 47.0052 21.7668C46.2043 20.9644 45.1833 20.4177 44.0715 20.1958C42.9597 19.9739 41.8071 20.0868 40.7595 20.5202C39.7119 20.9536 38.8164 21.688 38.1863 22.6305C37.5563 23.573 37.22 24.6812 37.22 25.815C37.2226 27.3321 37.8258 28.7865 38.8976 29.8602C39.9695 30.934 41.4228 31.5397 42.94 31.545ZM42.94 21.995C43.6959 21.993 44.4355 22.2153 45.065 22.6339C45.6945 23.0524 46.1856 23.6483 46.4763 24.3462C46.767 25.044 46.844 25.8124 46.6978 26.5541C46.5515 27.2957 46.1885 27.9773 45.6547 28.5125C45.1208 29.0478 44.4402 29.4126 43.6989 29.5608C42.9576 29.709 42.189 29.634 41.4904 29.3451C40.7918 29.0563 40.1946 28.5667 39.7745 27.9383C39.3543 27.3099 39.13 26.5709 39.13 25.815C39.1431 24.8122 39.55 23.8549 40.2628 23.1496C40.9756 22.4442 41.9372 22.0475 42.94 22.045V21.995Z" fill="#4792FD"/>
<path d="M12.4001 46.815C13.5321 46.8169 14.6393 46.4835 15.582 45.8569C16.5247 45.2302 17.2607 44.3383 17.6971 43.2938C18.1334 42.2493 18.2506 41.0989 18.0339 39.9879C17.8172 38.8768 17.2762 37.8549 16.4792 37.0509C15.6823 36.247 14.6651 35.6972 13.5559 35.4708C12.4468 35.2444 11.2954 35.3515 10.2472 35.7788C9.1989 36.2061 8.30067 36.9343 7.66582 37.8715C7.03097 38.8087 6.68796 39.913 6.68005 41.045C6.68269 42.5621 7.28586 44.0165 8.35771 45.0903C9.42956 46.164 10.8829 46.7697 12.4001 46.775V46.815ZM12.4001 37.265C13.1577 37.263 13.8988 37.4864 14.5292 37.9068C15.1595 38.3271 15.6506 38.9254 15.9401 39.6256C16.2295 40.3257 16.3042 41.0962 16.1547 41.8389C16.0052 42.5817 15.6381 43.2632 15.1003 43.7968C14.5624 44.3304 13.8781 44.692 13.1342 44.8357C12.3903 44.9793 11.6204 44.8985 10.9226 44.6035C10.2247 44.3086 9.63034 43.8127 9.215 43.1791C8.79966 42.5454 8.58212 41.8026 8.59005 41.045C8.59268 40.0344 8.99461 39.0658 9.70828 38.3503C10.4219 37.6347 11.3895 37.2302 12.4001 37.225V37.265Z" fill="#4792FD"/>
<path d="M27.67 46.815C28.8041 46.8269 29.9161 46.5019 30.8654 45.8813C31.8146 45.2607 32.5584 44.3724 33.0024 43.3288C33.4464 42.2852 33.5708 41.1334 33.3598 40.019C33.1487 38.9047 32.6117 37.8781 31.8168 37.0692C31.0219 36.2603 30.0049 35.7054 28.8944 35.4749C27.784 35.2444 26.6301 35.3487 25.5789 35.7744C24.5277 36.2001 23.6265 36.9282 22.9894 37.8665C22.3523 38.8047 22.008 39.9109 22 41.045C22.0026 42.5622 22.6058 44.0166 23.6777 45.0903C24.7495 46.164 26.2029 46.7698 27.72 46.775L27.67 46.815ZM27.67 37.265C28.4276 37.2631 29.1687 37.4865 29.7991 37.9068C30.4295 38.3272 30.9206 38.9255 31.21 39.6256C31.4995 40.3258 31.5742 41.0962 31.4246 41.839C31.2751 42.5817 30.9081 43.2632 30.3702 43.7968C29.8324 44.3304 29.148 44.6921 28.4041 44.8357C27.6602 44.9794 26.8904 44.8986 26.1925 44.6036C25.4947 44.3086 24.9003 43.8128 24.4849 43.1791C24.0696 42.5455 23.8521 41.8026 23.86 41.045C23.86 40.0336 24.2611 39.0635 24.9753 38.3474C25.6895 37.6313 26.6586 37.2277 27.67 37.225V37.265Z" fill="#4792FD"/>
<path d="M43.9 45.855C43.9 46.0528 43.8414 46.2461 43.7315 46.4105C43.6216 46.575 43.4654 46.7032 43.2827 46.7789C43.1 46.8545 42.8989 46.8744 42.7049 46.8358C42.511 46.7972 42.3328 46.7019 42.1929 46.5621C42.0531 46.4222 41.9578 46.244 41.9192 46.0501C41.8807 45.8561 41.9005 45.655 41.9761 45.4723C42.0518 45.2896 42.18 45.1334 42.3445 45.0235C42.5089 44.9136 42.7022 44.855 42.9 44.855C43.1652 44.855 43.4196 44.9603 43.6071 45.1479C43.7947 45.3354 43.9 45.5898 43.9 45.855Z" fill="#4792FD"/>
<path d="M40.08 44.895C40.0797 45.0949 40.0196 45.2901 39.9073 45.4555C39.7951 45.6208 39.6358 45.7487 39.4502 45.8227C39.2645 45.8967 39.061 45.9134 38.8657 45.8706C38.6705 45.8278 38.4926 45.7274 38.355 45.5825C38.2173 45.4377 38.1262 45.2548 38.0935 45.0577C38.0607 44.8605 38.0878 44.6581 38.1712 44.4765C38.2546 44.2948 38.3905 44.1424 38.5614 44.0387C38.7323 43.9351 38.9303 43.8851 39.13 43.895C39.3864 43.9079 39.6281 44.0189 39.805 44.2051C39.9818 44.3912 40.0803 44.6383 40.08 44.895Z" fill="#4792FD"/>
<path d="M47.72 44.895C47.72 45.0928 47.6613 45.2861 47.5514 45.4506C47.4416 45.615 47.2854 45.7432 47.1027 45.8189C46.9199 45.8946 46.7189 45.9144 46.5249 45.8758C46.3309 45.8372 46.1527 45.742 46.0129 45.6021C45.873 45.4623 45.7778 45.2841 45.7392 45.0901C45.7006 44.8961 45.7204 44.6951 45.7961 44.5123C45.8718 44.3296 46 44.1734 46.1644 44.0636C46.3288 43.9537 46.5222 43.895 46.72 43.895C46.9852 43.895 47.2395 44.0004 47.4271 44.1879C47.6146 44.3755 47.72 44.6298 47.72 44.895Z" fill="#4792FD"/>
<path d="M47.7199 37.2649C47.7299 37.4646 47.6799 37.6626 47.5763 37.8335C47.4726 38.0044 47.3202 38.1403 47.1385 38.2237C46.9569 38.3071 46.7545 38.3342 46.5573 38.3014C46.3602 38.2687 46.1773 38.1776 46.0324 38.0399C45.8875 37.9023 45.7872 37.7244 45.7444 37.5292C45.7016 37.3339 45.7183 37.1304 45.7922 36.9447C45.8662 36.7591 45.9942 36.5998 46.1595 36.4876C46.3249 36.3753 46.5201 36.3152 46.7199 36.3149C46.9767 36.3146 47.2238 36.4131 47.4099 36.5899C47.5961 36.7668 47.7071 37.0085 47.7199 37.2649Z" fill="#4792FD"/>
<path d="M40.08 37.265C40.0898 37.4667 40.0384 37.6667 39.9324 37.8386C39.8265 38.0105 39.6709 38.1463 39.4863 38.2281C39.3017 38.3099 39.0966 38.3339 38.8981 38.2969C38.6995 38.26 38.5169 38.1637 38.3741 38.0209C38.2313 37.8782 38.1351 37.6955 38.0981 37.4969C38.0611 37.2984 38.0851 37.0933 38.1669 36.9087C38.2487 36.7241 38.3845 36.5686 38.5564 36.4626C38.7283 36.3566 38.9283 36.3052 39.13 36.315C39.3819 36.315 39.6236 36.4151 39.8017 36.5933C39.9799 36.7714 40.08 37.0131 40.08 37.265Z" fill="#4792FD"/>
<path d="M42 39.175C42 39.3728 41.9414 39.5662 41.8315 39.7306C41.7216 39.8951 41.5654 40.0232 41.3827 40.0989C41.2 40.1746 40.9989 40.1944 40.8049 40.1558C40.6109 40.1172 40.4327 40.022 40.2929 39.8822C40.153 39.7423 40.0578 39.5641 40.0192 39.3701C39.9806 39.1762 40.0004 38.9751 40.0761 38.7924C40.1518 38.6096 40.28 38.4535 40.4444 38.3436C40.6089 38.2337 40.8022 38.175 41 38.175C41.2652 38.175 41.5196 38.2804 41.7071 38.4679C41.8946 38.6555 42 38.9098 42 39.175Z" fill="#4792FD"/>
<path d="M45.8 39.175C45.7998 39.3748 45.7397 39.57 45.6274 39.7354C45.5152 39.9007 45.3559 40.0287 45.1703 40.1026C44.9846 40.1766 44.7811 40.1933 44.5858 40.1505C44.3906 40.1077 44.2127 40.0074 44.0751 39.8625C43.9374 39.7176 43.8463 39.5347 43.8136 39.3376C43.7808 39.1404 43.8079 38.938 43.8913 38.7564C43.9747 38.5747 44.1106 38.4223 44.2815 38.3186C44.4524 38.215 44.6504 38.165 44.85 38.175C44.9795 38.1733 45.108 38.1984 45.2273 38.2488C45.3466 38.2991 45.4543 38.3736 45.5435 38.4675C45.6327 38.5613 45.7015 38.6727 45.7457 38.7944C45.7898 38.9162 45.8083 39.0457 45.8 39.175Z" fill="#4792FD"/>
<path d="M43.9 41.045C43.9 41.2428 43.8414 41.4362 43.7315 41.6006C43.6216 41.7651 43.4654 41.8932 43.2827 41.9689C43.1 42.0446 42.8989 42.0644 42.7049 42.0258C42.511 41.9872 42.3328 41.892 42.1929 41.7522C42.0531 41.6123 41.9578 41.4341 41.9192 41.2401C41.8807 41.0462 41.9005 40.8451 41.9761 40.6624C42.0518 40.4796 42.18 40.3235 42.3445 40.2136C42.5089 40.1037 42.7022 40.045 42.9 40.045C43.1652 40.045 43.4196 40.1504 43.6071 40.3379C43.7947 40.5255 43.9 40.7798 43.9 41.045Z" fill="#4792FD"/>
<path d="M42 42.985C42.012 43.1849 41.9638 43.3839 41.8614 43.556C41.7591 43.7281 41.6075 43.8656 41.4261 43.9506C41.2448 44.0355 41.0421 44.0641 40.8443 44.0326C40.6466 44.001 40.4628 43.9108 40.3169 43.7737C40.171 43.6365 40.0696 43.4587 40.0259 43.2633C39.9822 43.0678 39.9982 42.8638 40.0718 42.6775C40.1454 42.4913 40.2732 42.3314 40.4387 42.2187C40.6042 42.1059 40.7998 42.0454 41 42.045C41.2568 42.0447 41.5039 42.1432 41.69 42.32C41.8762 42.4969 41.9872 42.7386 42 42.995V42.985Z" fill="#4792FD"/>
<path d="M45.8 42.985C45.8098 43.1867 45.7584 43.3867 45.6524 43.5586C45.5464 43.7305 45.3909 43.8663 45.2063 43.9481C45.0216 44.0299 44.8166 44.0539 44.618 44.0169C44.4195 43.9799 44.2368 43.8837 44.094 43.7409C43.9512 43.5981 43.855 43.4154 43.8181 43.2169C43.7811 43.0184 43.8051 42.8133 43.8869 42.6287C43.9687 42.4441 44.1045 42.2885 44.2764 42.1826C44.4483 42.0766 44.6483 42.0251 44.85 42.035C44.9747 42.035 45.0982 42.0596 45.2135 42.1073C45.3288 42.1551 45.4335 42.225 45.5217 42.3133C45.6099 42.4015 45.6799 42.5062 45.7276 42.6215C45.7754 42.7367 45.8 42.8602 45.8 42.985Z" fill="#4792FD"/>
<path d="M48.67 41.045C48.67 41.2428 48.6114 41.4362 48.5015 41.6006C48.3916 41.7651 48.2355 41.8932 48.0527 41.9689C47.87 42.0446 47.6689 42.0644 47.475 42.0258C47.281 41.9872 47.1028 41.892 46.9629 41.7522C46.8231 41.6123 46.7278 41.4341 46.6893 41.2401C46.6507 41.0462 46.6705 40.8451 46.7462 40.6624C46.8219 40.4796 46.95 40.3235 47.1145 40.2136C47.2789 40.1037 47.4723 40.045 47.67 40.045C47.9353 40.045 48.1896 40.1504 48.3771 40.3379C48.5647 40.5255 48.67 40.7798 48.67 41.045Z" fill="#4792FD"/>
<path d="M39.13 41.045C39.13 41.2428 39.0714 41.4362 38.9615 41.6006C38.8516 41.7651 38.6954 41.8932 38.5127 41.9689C38.33 42.0446 38.1289 42.0644 37.9349 42.0258C37.7409 41.9872 37.5628 41.892 37.4229 41.7522C37.283 41.6123 37.1878 41.4341 37.1492 41.2401C37.1106 41.0462 37.1304 40.8451 37.2061 40.6624C37.2818 40.4796 37.41 40.3235 37.5744 40.2136C37.7389 40.1037 37.9322 40.045 38.13 40.045C38.3952 40.045 38.6496 40.1504 38.8371 40.3379C39.0246 40.5255 39.13 40.7798 39.13 41.045Z" fill="#4792FD"/>
<path d="M43.9 36.3149C43.9 36.5127 43.8414 36.7061 43.7315 36.8705C43.6216 37.035 43.4654 37.1631 43.2827 37.2388C43.1 37.3145 42.8989 37.3343 42.7049 37.2957C42.511 37.2571 42.3328 37.1619 42.1929 37.022C42.0531 36.8822 41.9578 36.704 41.9192 36.51C41.8807 36.3161 41.9005 36.115 41.9761 35.9323C42.0518 35.7495 42.18 35.5934 42.3445 35.4835C42.5089 35.3736 42.7022 35.3149 42.9 35.3149C43.1652 35.3149 43.4196 35.4203 43.6071 35.6078C43.7947 35.7954 43.9 36.0497 43.9 36.3149Z" fill="#4792FD"/>
</svg>
