<svg width="72" height="79" viewBox="0 0 72 79" fill="none" xmlns="http://www.w3.org/2000/svg">
<path d="M57.5817 19.4501L52.4617 4.3601C52.1123 3.3066 51.4925 2.3633 50.6642 1.62449C49.8359 0.885686 48.8281 0.377276 47.7417 0.150096C46.6411 -0.0921748 45.496 -0.0404414 44.4217 0.300096C43.3588 0.638293 42.3989 1.24037 41.6317 2.0501L39.3617 4.4901L22.8617 22.1801C22.2807 22.8026 21.8287 23.534 21.5317 24.3321C21.2348 25.1302 21.0988 25.9792 21.1317 26.8301L6.17171 33.0001C5.26926 33.3877 4.52845 34.0752 4.0747 34.9463C3.62094 35.8173 3.48211 36.8184 3.68171 37.7801L2.68171 38.1201C1.69646 38.464 0.88463 39.1794 0.419435 40.1135C-0.0457599 41.0476 -0.12748 42.1266 0.191711 43.1201L2.41171 49.6701C2.75763 50.6535 3.4738 51.463 4.4077 51.9262C5.34161 52.3895 6.41946 52.4698 7.41171 52.1501L8.41171 51.8001C8.88253 52.7837 9.68071 53.5729 10.6695 54.0327C11.6583 54.4924 12.7762 54.594 13.8317 54.3201L14.3917 54.1701L21.2617 74.4401C21.7803 75.7832 22.7979 76.8738 24.1019 77.4841C25.4058 78.0944 26.8952 78.177 28.2587 77.7148C29.6222 77.2526 30.7543 76.2812 31.4183 75.0037C32.0823 73.7263 32.2268 72.2416 31.8217 70.8601L25.2117 51.2301L29.0817 50.1701C29.5897 50.8701 30.2345 51.4597 30.9771 51.9032C31.7196 52.3467 32.5445 52.6348 33.4017 52.7501L56.8217 56.0001L60.2517 56.4701C61.2369 56.6053 62.24 56.5094 63.1817 56.1901H63.2517C64.8596 55.6352 66.1827 54.4668 66.9321 52.9398C67.6815 51.4129 67.7964 49.6515 67.2517 48.0401L62.3517 33.5101C63.8886 32.9674 65.1505 31.8422 65.8652 30.3774C66.5798 28.9125 66.6899 27.2254 66.1717 25.6801L65.3717 23.3401C64.8449 21.7981 63.7323 20.5255 62.2745 19.7975C60.8167 19.0695 59.1308 18.9447 57.5817 19.4501ZM29.5217 71.6501C29.7869 72.4272 29.7326 73.2778 29.3706 74.0148C29.0087 74.7518 28.3688 75.3149 27.5917 75.5801C26.8146 75.8453 25.964 75.791 25.227 75.429C24.49 75.0671 23.9269 74.4272 23.6617 73.6501L23.4017 72.8901L25.7417 72.0901C26.0533 71.9853 26.3106 71.7611 26.4569 71.4666C26.6031 71.1722 26.6265 70.8317 26.5217 70.5201C26.4169 70.2085 26.1927 69.9512 25.8983 69.8049C25.6038 69.6587 25.2633 69.6353 24.9517 69.7401L22.6117 70.5301L21.8117 68.1901L24.1517 67.3901C24.3054 67.3382 24.4473 67.2566 24.5694 67.1499C24.6915 67.0432 24.7914 66.9134 24.8633 66.7681C24.9353 66.6228 24.9779 66.4647 24.9888 66.3029C24.9997 66.1411 24.9786 65.9787 24.9267 65.8251C24.8748 65.6714 24.7932 65.5295 24.6865 65.4074C24.5798 65.2853 24.45 65.1854 24.3047 65.1135C24.1594 65.0415 24.0013 64.9989 23.8395 64.988C23.6777 64.9771 23.5154 64.9982 23.3617 65.0501L21.0217 65.8501L20.2217 63.5001L22.5617 62.7001C22.8733 62.5952 23.1305 62.371 23.2767 62.0766C23.423 61.7822 23.4464 61.4417 23.3417 61.1301C23.2911 60.9752 23.2099 60.8319 23.103 60.7089C22.9961 60.5858 22.8656 60.4854 22.7193 60.4137C22.5729 60.3419 22.4137 60.3002 22.2509 60.291C22.0882 60.2818 21.9252 60.3053 21.7717 60.3601L19.4217 61.1501L18.6317 58.8101L20.9517 58.0001C21.2557 57.8894 21.5044 57.6643 21.6448 57.3728C21.7851 57.0813 21.806 56.7465 21.7029 56.4398C21.5998 56.1331 21.3809 55.8789 21.093 55.7314C20.805 55.5838 20.4708 55.5547 20.1617 55.6501L17.8117 56.4501L16.8117 53.5101L22.8117 51.8801L29.5217 71.6501ZM60.6617 54.0001L58.6617 53.7301L42.2017 5.1301L43.5017 3.7301C43.891 3.29107 44.3772 2.9487 44.9217 2.7301C44.9931 2.69265 45.0666 2.65926 45.1417 2.6301C45.7904 2.43171 46.4793 2.40416 47.1417 2.5501C47.8083 2.68952 48.4267 3.00105 48.9355 3.45369C49.4443 3.90633 49.8256 4.4843 50.0417 5.1301L64.8717 48.8501C65.0948 49.4803 65.1517 50.1574 65.0369 50.816C64.9221 51.4747 64.6396 52.0926 64.2164 52.6102C63.7933 53.1278 63.2439 53.5276 62.6212 53.7711C61.9986 54.0145 61.3237 54.0934 60.6617 54.0001ZM7.55171 49.4901L6.63171 49.8001C6.25509 49.9271 5.84347 49.8994 5.48723 49.7232C5.13098 49.547 4.85925 49.2365 4.73171 48.8601L2.51171 42.3201C2.44745 42.1337 2.42082 41.9364 2.43338 41.7396C2.44593 41.5428 2.49742 41.3505 2.58486 41.1738C2.67229 40.997 2.79394 40.8394 2.94274 40.71C3.09154 40.5807 3.26454 40.4821 3.45171 40.4201L4.37171 40.1001L7.55171 49.4901ZM10.5517 50.4901L6.12171 37.4901C5.98101 37.0648 6.00581 36.6022 6.19116 36.1944C6.37651 35.7866 6.7088 35.4637 7.12171 35.2901L21.6917 29.3401L28.0017 47.9001L13.2417 51.9001C12.6971 52.0411 12.1193 51.9711 11.6241 51.704C11.129 51.437 10.753 50.9927 10.5717 50.4601L10.5517 50.4901ZM33.7217 50.3101C32.9944 50.2146 32.3086 49.9163 31.7427 49.4495C31.1769 48.9826 30.7537 48.366 30.5217 47.6701L23.8117 27.8301C23.574 27.1487 23.5284 26.4149 23.6801 25.7094C23.8318 25.0038 24.1749 24.3536 24.6717 23.8301L40.2817 7.1801L55.9517 53.3501L33.7217 50.3101ZM63.8217 26.4801C64.1307 27.4022 64.0674 28.4085 63.6453 29.2846C63.2231 30.1607 62.4755 30.8372 61.5617 31.1701L58.3817 21.7901C59.3088 21.4979 60.3135 21.5802 61.1807 22.0194C62.0478 22.4586 62.7087 23.2198 63.0217 24.1401L63.8217 26.4801Z" fill="white"/>
<path d="M2.02537 0.280422C1.89489 0.173629 1.744 0.0945677 1.58192 0.0480735C1.41985 0.0015793 1.24999 -0.0113711 1.08274 0.0100124C0.915488 0.0313958 0.754355 0.0866647 0.609191 0.17244C0.464026 0.258216 0.337887 0.372695 0.238471 0.508881C0.139055 0.645067 0.0684516 0.800098 0.0309893 0.964496C-0.00647302 1.12889 -0.0100072 1.29921 0.0205904 1.46502C0.0511881 1.63083 0.115275 1.78866 0.208945 1.92886C0.302615 2.06906 0.423901 2.18869 0.565375 2.28042C2.53532 3.69366 4.03098 5.67045 4.85537 7.95042C5.5788 10.2277 5.5788 12.6732 4.85537 14.9504C4.80765 15.1067 4.79128 15.2708 4.8072 15.4335C4.82313 15.5961 4.87103 15.7539 4.94816 15.898C5.02529 16.042 5.13013 16.1694 5.25664 16.2728C5.38316 16.3762 5.52886 16.4535 5.68537 16.5004C5.99827 16.5889 6.33325 16.5529 6.62026 16.4001C6.90727 16.2473 7.12408 15.9894 7.22537 15.6804C8.10572 12.8713 8.08474 9.85704 7.16537 7.06042C6.17291 4.31852 4.3741 1.94104 2.00537 0.240422L2.02537 0.280422Z" transform="translate(64 15)" fill="white"/>
<path d="M7.43203 0.36138C7.19963 0.129941 6.88501 0 6.55703 0C6.22905 0 5.91443 0.129941 5.68203 0.36138L1.34203 4.72138C0.728079 5.36975 0.302966 6.17356 0.112623 7.04596C-0.0777198 7.91837 -0.0260559 8.8262 0.262031 9.67138L1.12203 12.2314C1.22812 12.543 1.45365 12.7997 1.74902 12.9451C2.04439 13.0904 2.3854 13.1125 2.69703 13.0064C3.00866 12.9003 3.26538 12.6748 3.41072 12.3794C3.55607 12.084 3.57812 11.743 3.47203 11.4314L2.60203 8.88138C2.45877 8.46652 2.43053 8.02061 2.52033 7.591C2.61012 7.16139 2.8146 6.76412 3.11203 6.44138L7.44203 2.08138C7.55783 1.96698 7.64977 1.83072 7.71252 1.68052C7.77527 1.53032 7.80758 1.36916 7.80758 1.20638C7.80758 1.0436 7.77527 0.882436 7.71252 0.732235C7.64977 0.582034 7.55783 0.445783 7.44203 0.331379L7.43203 0.36138Z" transform="translate(27 20)" fill="white"/>
<path d="M0.835547 0.0755451C0.525814 0.182417 0.270967 0.407535 0.126689 0.701712C-0.0175893 0.99589 -0.0395704 1.33521 0.0655468 1.64554L0.855548 3.97555C0.966231 4.27956 1.19135 4.52827 1.48286 4.6686C1.77437 4.80894 2.10918 4.82979 2.41585 4.7267C2.72251 4.6236 2.97674 4.40474 3.12428 4.11681C3.27182 3.82887 3.30098 3.49468 3.20555 3.18555L2.40555 0.835547C2.29868 0.525814 2.07356 0.270967 1.77938 0.126689C1.4852 -0.0175893 1.14588 -0.0395704 0.835547 0.0655468V0.0755451Z" transform="translate(29 34)" fill="white"/>
</svg>
