<svg width="48" height="62" viewBox="0 0 48 62" fill="none" xmlns="http://www.w3.org/2000/svg">
<rect width="47.4013" height="61.815" fill="black" fill-opacity="0"/>
<rect width="47.4013" height="61.815" fill="black" fill-opacity="0"/>
<rect width="47.4013" height="61.815" fill="black" fill-opacity="0"/>
<path d="M33.7305 31.51C32.6815 28.4922 30.4815 26.0118 27.6105 24.61C27.4005 24.5265 27.1669 24.5241 26.9553 24.6033C26.7436 24.6826 26.569 24.8377 26.4654 25.0386C26.3619 25.2395 26.3368 25.4717 26.395 25.6901C26.4532 25.9085 26.5907 26.0974 26.7805 26.22C29.223 27.4015 31.0994 29.5007 32.0005 32.06C32.0566 32.2438 32.1707 32.4044 32.3257 32.518C32.4808 32.6316 32.6684 32.6919 32.8605 32.69C32.9499 32.7046 33.0411 32.7046 33.1305 32.69C33.3596 32.6165 33.5502 32.4554 33.6608 32.2417C33.7713 32.0281 33.7928 31.7794 33.7205 31.55L33.7305 31.51Z" fill="#4792FD"/>
<path d="M41.8306 52.88H40.0606V49.39C40.0606 49.1487 39.9648 48.9172 39.7941 48.7466C39.6235 48.5759 39.392 48.48 39.1506 48.48H37.5206V34.34C37.5206 30.6747 36.0646 27.1596 33.4729 24.5678C30.8811 21.976 27.3659 20.52 23.7006 20.52C20.0354 20.52 16.5202 21.976 13.9284 24.5678C11.3367 27.1596 9.88064 30.6747 9.88064 34.34V35.74C9.86729 35.8669 9.88075 35.9951 9.92015 36.1164C9.95955 36.2377 10.024 36.3494 10.1093 36.4441C10.1947 36.5389 10.299 36.6147 10.4155 36.6666C10.532 36.7185 10.6581 36.7453 10.7856 36.7453C10.9132 36.7453 11.0393 36.7185 11.1558 36.6666C11.2723 36.6147 11.3766 36.5389 11.462 36.4441C11.5473 36.3494 11.6117 36.2377 11.6511 36.1164C11.6905 35.9951 11.704 35.8669 11.6906 35.74V34.34C11.6906 31.1574 12.9549 28.1052 15.2054 25.8547C17.4558 23.6043 20.508 22.34 23.6906 22.34C26.8732 22.34 29.9255 23.6043 32.1759 25.8547C34.4264 28.1052 35.6906 31.1574 35.6906 34.34V48.48H26.3606V45.67C27.416 45.0414 28.2295 44.0764 28.6706 42.93C28.7269 42.818 28.7591 42.6955 28.7652 42.5703C28.7714 42.4452 28.7513 42.3201 28.7063 42.2031C28.6613 42.0862 28.5924 41.9799 28.504 41.8911C28.4155 41.8023 28.3095 41.733 28.1928 41.6875C28.076 41.6421 27.951 41.6215 27.8258 41.6271C27.7006 41.6328 27.578 41.6645 27.4657 41.7203C27.3535 41.7761 27.2542 41.8547 27.1741 41.951C27.094 42.0474 27.0349 42.1595 27.0006 42.28C26.6551 43.1607 25.9862 43.8762 25.1306 44.28H25.0806C24.6047 44.4894 24.0906 44.5983 23.5706 44.6C22.9093 44.6003 22.2602 44.4223 21.6915 44.0849C21.1227 43.7475 20.6554 43.263 20.3387 42.6825C20.022 42.102 19.8676 41.4468 19.8917 40.786C19.9158 40.1251 20.1175 39.4829 20.4756 38.927C20.8338 38.3711 21.3351 37.922 21.9269 37.6268C22.5187 37.3317 23.179 37.2015 23.8386 37.2499C24.4981 37.2983 25.1324 37.5235 25.6748 37.9019C26.2171 38.2802 26.6475 38.7978 26.9206 39.4C27.0214 39.6175 27.2045 39.786 27.4295 39.8685C27.6546 39.9511 27.9032 39.9408 28.1206 39.84C28.3381 39.7392 28.5067 39.5562 28.5892 39.3311C28.6717 39.1061 28.6614 38.8575 28.5606 38.64C28.2036 37.8553 27.6668 37.1656 26.9936 36.6269C26.3204 36.0883 25.5299 35.7157 24.6859 35.5395C23.842 35.3632 22.9684 35.3882 22.1359 35.6124C21.3034 35.8366 20.5354 36.2537 19.8941 36.8299C19.2528 37.4062 18.7562 38.1254 18.4446 38.9293C18.133 39.7332 18.0151 40.5991 18.1005 41.457C18.1858 42.315 18.4721 43.1407 18.936 43.8675C19.3998 44.5942 20.0284 45.2014 20.7706 45.64V48.46H11.6806V39.31C11.694 39.1832 11.6805 39.055 11.6411 38.9337C11.6017 38.8123 11.5373 38.7007 11.452 38.6059C11.3666 38.5111 11.2623 38.4353 11.1458 38.3834C11.0293 38.3316 10.9032 38.3048 10.7756 38.3048C10.6481 38.3048 10.522 38.3316 10.4055 38.3834C10.289 38.4353 10.1847 38.5111 10.0993 38.6059C10.014 38.7007 9.94955 38.8123 9.91015 38.9337C9.87075 39.055 9.85729 39.1832 9.87064 39.31V48.48H8.25064C8.0093 48.48 7.77784 48.5759 7.60718 48.7466C7.43652 48.9172 7.34064 49.1487 7.34064 49.39V52.88H5.57064C5.3293 52.88 5.09784 52.9759 4.92718 53.1466C4.75652 53.3172 4.66064 53.5487 4.66064 53.79V60.87C4.66064 61.1114 4.75652 61.3428 4.92718 61.5135C5.09784 61.6841 5.3293 61.78 5.57064 61.78H26.6206C26.7475 61.7934 26.8757 61.7799 26.997 61.7405C27.1183 61.7011 27.23 61.6367 27.3248 61.5513C27.4195 61.466 27.4953 61.3617 27.5472 61.2452C27.5991 61.1287 27.6259 61.0026 27.6259 60.875C27.6259 60.7475 27.5991 60.6214 27.5472 60.5049C27.4953 60.3883 27.4195 60.284 27.3248 60.1987C27.23 60.1134 27.1183 60.0489 26.997 60.0095C26.8757 59.9701 26.7475 59.9567 26.6206 59.97H6.47064V54.69H40.9306V60H30.1906C30.0638 59.9867 29.9356 60.0001 29.8143 60.0395C29.693 60.0789 29.5813 60.1434 29.4865 60.2287C29.3917 60.314 29.316 60.4183 29.2641 60.5349C29.2122 60.6514 29.1854 60.7775 29.1854 60.905C29.1854 61.0326 29.2122 61.1587 29.2641 61.2752C29.316 61.3917 29.3917 61.496 29.4865 61.5813C29.5813 61.6667 29.693 61.7311 29.8143 61.7705C29.9356 61.8099 30.0638 61.8234 30.1906 61.81H41.8306C42.072 61.81 42.3035 61.7141 42.4741 61.5435C42.6448 61.3728 42.7406 61.1414 42.7406 60.9V53.79C42.7406 53.5487 42.6448 53.3172 42.4741 53.1466C42.3035 52.9759 42.072 52.88 41.8306 52.88ZM22.5706 46.34C23.2317 46.4625 23.9096 46.4625 24.5706 46.34V48.48H22.5706V46.34ZM38.2506 52.88H9.15064V50.29H38.2506V52.88Z" fill="#4792FD"/>
<path d="M23.7005 1.66121e-09C23.4609 -1.44671e-05 23.2309 0.0944863 23.0606 0.262988C22.8902 0.431489 22.7932 0.66039 22.7905 0.9V16.33C22.8141 16.5536 22.9196 16.7606 23.0867 16.911C23.2538 17.0615 23.4707 17.1447 23.6955 17.1447C23.9204 17.1447 24.1373 17.0615 24.3044 16.911C24.4715 16.7606 24.577 16.5536 24.6005 16.33V0.9C24.6005 0.661305 24.5057 0.432387 24.3369 0.263604C24.1681 0.0948212 23.9392 1.66121e-09 23.7005 1.66121e-09V1.66121e-09Z" fill="#4792FD"/>
<path d="M19.0706 17.09L11.5706 3.61997C11.452 3.41547 11.2577 3.26585 11.0297 3.20344C10.8017 3.14103 10.5583 3.17084 10.352 3.28643C10.1458 3.40201 9.99337 3.5941 9.92761 3.82117C9.86185 4.04825 9.88808 4.29208 10.0006 4.49997L17.4906 18C17.5679 18.1421 17.6821 18.2607 17.8211 18.3434C17.9601 18.4261 18.1189 18.4699 18.2806 18.47C18.4353 18.4693 18.5871 18.4279 18.7206 18.35C18.8248 18.2926 18.9165 18.2152 18.9906 18.1221C19.0647 18.0291 19.1195 17.9223 19.1521 17.8079C19.1846 17.6936 19.1942 17.5739 19.1802 17.4558C19.1662 17.3377 19.129 17.2236 19.0706 17.12V17.09Z" fill="#4792FD"/>
<path d="M15.0006 19.63L1.33063 12.4C1.11813 12.2904 0.871012 12.2688 0.64271 12.3399C0.414408 12.411 0.22327 12.5691 0.110626 12.78C0.0532532 12.8841 0.0172965 12.9986 0.00487594 13.1167C-0.00754458 13.2349 0.00382258 13.3544 0.0383071 13.4681C0.0727916 13.5818 0.129695 13.6874 0.205662 13.7788C0.281629 13.8701 0.375122 13.9454 0.480626 14L14.1106 21.23C14.3228 21.3414 14.5705 21.364 14.7993 21.2927C15.0281 21.2214 15.2192 21.0622 15.3306 20.85C15.442 20.6379 15.4646 20.3901 15.3933 20.1613C15.322 19.9325 15.1628 19.7414 14.9506 19.63H15.0006Z" fill="#4792FD"/>
<path d="M37.0607 3.27002C36.9575 3.21029 36.8433 3.17194 36.7249 3.15724C36.6065 3.14253 36.4863 3.15178 36.3716 3.18443C36.2569 3.21708 36.1498 3.27247 36.0569 3.3473C35.964 3.42213 35.8871 3.51487 35.8307 3.62002L28.3307 17.09C28.271 17.1933 28.2327 17.3075 28.218 17.4259C28.2033 17.5443 28.2125 17.6644 28.2452 17.7792C28.2778 17.8939 28.3332 18.0009 28.408 18.0938C28.4829 18.1867 28.5756 18.2637 28.6807 18.32C28.8143 18.398 28.9661 18.4394 29.1207 18.44C29.2821 18.4378 29.44 18.3933 29.5787 18.3108C29.7173 18.2283 29.8318 18.1108 29.9107 17.97L37.4107 4.50002C37.5259 4.29017 37.5537 4.0434 37.4882 3.81317C37.4227 3.58294 37.2691 3.3878 37.0607 3.27002Z" fill="#4792FD"/>
<path d="M47.2906 12.78C47.178 12.5691 46.9868 12.411 46.7585 12.3399C46.5302 12.2688 46.2831 12.2904 46.0706 12.4L32.4406 19.63C32.2517 19.7547 32.1161 19.9454 32.0602 20.1648C32.0043 20.3841 32.0321 20.6165 32.1383 20.8164C32.2446 21.0163 32.4215 21.1695 32.6345 21.246C32.8476 21.3224 33.0815 21.3168 33.2906 21.23L46.9206 14C47.0261 13.9454 47.1196 13.8701 47.1956 13.7788C47.2716 13.6874 47.3285 13.5818 47.363 13.4681C47.3974 13.3544 47.4088 13.2349 47.3964 13.1167C47.384 12.9986 47.348 12.8841 47.2906 12.78Z" fill="#4792FD"/>
</svg>
