<svg width="70" height="71" viewBox="0 0 70 71" fill="none" xmlns="http://www.w3.org/2000/svg">
<path d="M19.05 0H1.05C0.771522 0 0.50445 0.110625 0.307537 0.307538C0.110624 0.504451 0 0.771523 0 1.05C0 1.32848 0.110624 1.59555 0.307537 1.79246C0.50445 1.98938 0.771522 2.1 1.05 2.1H19.05C19.3285 2.1 19.5955 1.98938 19.7925 1.79246C19.9894 1.59555 20.1 1.32848 20.1 1.05C20.1 0.771523 19.9894 0.504451 19.7925 0.307538C19.5955 0.110625 19.3285 0 19.05 0Z" transform="translate(27 6)" fill="white"/>
<path d="M9.05 0H1.05C0.771522 0 0.50445 0.110625 0.307537 0.307538C0.110624 0.504451 0 0.771523 0 1.05C0 1.32848 0.110624 1.59555 0.307537 1.79246C0.50445 1.98938 0.771522 2.1 1.05 2.1H9.05C9.32848 2.1 9.59555 1.98938 9.79246 1.79246C9.98937 1.59555 10.1 1.32848 10.1 1.05C10.1 0.771523 9.98937 0.504451 9.79246 0.307538C9.59555 0.110625 9.32848 0 9.05 0Z" transform="translate(27 10)" fill="white"/>
<path d="M65.32 10.27C65.0428 10.27 64.777 10.3801 64.5811 10.5761C64.3851 10.772 64.275 11.0378 64.275 11.315C64.275 11.5922 64.3851 11.858 64.5811 12.0539C64.777 12.2499 65.0428 12.36 65.32 12.36C65.816 12.36 66.2916 12.557 66.6423 12.9077C66.993 13.2584 67.19 13.734 67.19 14.23V44H59.55V12.36H61.29C61.5672 12.36 61.833 12.2499 62.0289 12.0539C62.2249 11.858 62.335 11.5922 62.335 11.315C62.335 11.0378 62.2249 10.772 62.0289 10.5761C61.833 10.3801 61.5672 10.27 61.29 10.27H59.55V3.14C59.5474 2.3063 59.2143 1.50765 58.6239 0.919075C58.0334 0.330497 57.2337 -4.20104e-06 56.4 0L12.6 0C11.7663 -4.20104e-06 10.9666 0.330497 10.3761 0.919075C9.78569 1.50765 9.45265 2.3063 9.45 3.14V10.27H4C2.93913 10.27 1.92172 10.6914 1.17157 11.4416C0.421427 12.1917 0 13.2091 0 14.27L0 54.66C0 55.7209 0.421427 56.7383 1.17157 57.4884C1.92172 58.2386 2.93913 58.66 4 58.66H10.45C10.7285 58.66 10.9955 58.5494 11.1925 58.3525C11.3894 58.1555 11.5 57.8885 11.5 57.61C11.5 57.3315 11.3894 57.0645 11.1925 56.8675C10.9955 56.6706 10.7285 56.56 10.45 56.56H4C3.50577 56.56 3.03164 56.3644 2.68123 56.0158C2.33083 55.6673 2.13264 55.1942 2.13 54.7V46.1H67.23V54.7C67.2274 55.1942 67.0292 55.6673 66.6788 56.0158C66.3284 56.3644 65.8542 56.56 65.36 56.56H15.36C15.0815 56.56 14.8145 56.6706 14.6175 56.8675C14.4206 57.0645 14.31 57.3315 14.31 57.61C14.31 57.8885 14.4206 58.1555 14.6175 58.3525C14.8145 58.5494 15.0815 58.66 15.36 58.66H26.06V64.2C24.7139 64.2362 23.4343 64.7932 22.4906 65.7537C21.5468 66.7143 21.0125 68.0035 21 69.35C20.9932 69.4855 21.0141 69.6209 21.0613 69.7481C21.1085 69.8752 21.1811 69.9914 21.2746 70.0897C21.3682 70.1879 21.4807 70.266 21.6054 70.3194C21.7301 70.3727 21.8644 70.4002 22 70.4H47.27C47.4056 70.4002 47.5399 70.3727 47.6646 70.3194C47.7893 70.266 47.9018 70.1879 47.9954 70.0897C48.0889 69.9914 48.1615 69.8752 48.2087 69.7481C48.2559 69.6209 48.2768 69.4855 48.27 69.35C48.2676 67.9898 47.7324 66.6846 46.779 65.7144C45.8256 64.7442 44.53 64.1862 43.17 64.16V58.62H65.27C66.3309 58.62 67.3483 58.1986 68.0984 57.4484C68.8486 56.6983 69.27 55.6809 69.27 54.62V14.23C69.27 13.1691 68.8486 12.1517 68.0984 11.4016C67.3483 10.6514 66.3309 10.23 65.27 10.23L65.32 10.27ZM9.45 44H2.09V14.23C2.08994 13.981 2.13961 13.7345 2.23607 13.505C2.33254 13.2755 2.47387 13.0675 2.65178 12.8934C2.82968 12.7192 3.04058 12.5823 3.27209 12.4907C3.50361 12.3991 3.75108 12.3547 4 12.36H9.45V44ZM57.45 15.32H21.8C21.5228 15.32 21.257 15.4301 21.0611 15.6261C20.8651 15.822 20.755 16.0878 20.755 16.365C20.755 16.6422 20.8651 16.9079 21.0611 17.1039C21.257 17.2999 21.5228 17.41 21.8 17.41H57.46V44H11.55V17.38H16.36C16.6372 17.38 16.903 17.2699 17.0989 17.0739C17.2949 16.878 17.405 16.6122 17.405 16.335C17.405 16.0578 17.2949 15.792 17.0989 15.5961C16.903 15.4001 16.6372 15.29 16.36 15.29H11.55V3.14C11.5432 3.00453 11.5641 2.8691 11.6113 2.74194C11.6585 2.61479 11.7311 2.49856 11.8246 2.40034C11.9182 2.30212 12.0307 2.22396 12.1554 2.17061C12.2801 2.11726 12.4144 2.08983 12.55 2.09H56.4C56.6794 2.08999 56.9475 2.20029 57.146 2.39692C57.3445 2.59355 57.4574 2.86061 57.46 3.14L57.45 15.32ZM28.15 58.62H41.15V64.16H28.15V58.62ZM46 68.3H23.24C23.4657 67.7093 23.8661 67.2014 24.3878 66.8441C24.9094 66.4868 25.5277 66.297 26.16 66.3H43.16C43.7909 66.2976 44.4076 66.4878 44.9276 66.8452C45.4476 67.2026 45.8461 67.7101 46.07 68.3H46Z" fill="white"/>
<path d="M3.16 0C2.53501 0 1.92406 0.185329 1.4044 0.532555C0.884738 0.87978 0.479714 1.3733 0.240541 1.95072C0.00136833 2.52813 -0.0612091 3.16351 0.0607202 3.77649C0.18265 4.38947 0.483609 4.95252 0.925543 5.39445C1.36748 5.83639 1.93054 6.13735 2.54352 6.25928C3.1565 6.38121 3.79187 6.31863 4.36928 6.07946C4.94669 5.84029 5.44022 5.43526 5.78744 4.9156C6.13467 4.39594 6.32 3.78499 6.32 3.16C6.31736 2.32273 5.98359 1.5205 5.39155 0.928455C4.7995 0.336411 3.99727 0.0026371 3.16 0ZM3.16 4.23C2.94838 4.23 2.7415 4.16724 2.56554 4.04967C2.38958 3.9321 2.25244 3.76499 2.17145 3.56947C2.09046 3.37395 2.06927 3.15881 2.11056 2.95125C2.15185 2.74369 2.25376 2.55304 2.4034 2.40339C2.55304 2.25375 2.74369 2.15184 2.95125 2.11056C3.15881 2.06927 3.37395 2.09046 3.56947 2.17145C3.76499 2.25243 3.9321 2.38958 4.04967 2.56554C4.16725 2.7415 4.23 2.94837 4.23 3.16C4.23 3.44378 4.11727 3.71594 3.9166 3.9166C3.71594 4.11727 3.44378 4.23 3.16 4.23Z" transform="translate(32 48)" fill="white"/>
<path d="M8.83397 6.52026L5.39397 0.520255C5.30113 0.361467 5.1682 0.229854 5.0085 0.138594C4.84879 0.0473339 4.66791 -0.000370959 4.48397 0.000255298C4.30071 -0.0038861 4.11983 0.0424275 3.96111 0.134135C3.80238 0.225842 3.67192 0.359415 3.58397 0.520255L0.133975 6.52026C0.0462067 6.67227 0 6.84472 0 7.02026C0 7.19579 0.0462067 7.36824 0.133975 7.52026C0.221344 7.6845 0.352797 7.82112 0.513556 7.91475C0.674316 8.00838 0.858006 8.0553 1.04397 8.05025H7.93398C8.11676 8.04814 8.29583 7.99834 8.45347 7.90578C8.61111 7.81322 8.74185 7.68111 8.83276 7.52252C8.92367 7.36393 8.97161 7.18435 8.97182 7.00155C8.97203 6.81875 8.92452 6.63906 8.83397 6.48026V6.52026ZM2.83397 5.99026L4.46397 3.16026L6.09398 5.99026H2.83397Z" transform="translate(14 4)" fill="white"/>
<path d="M16.21 0H1.05C0.771522 0 0.50445 0.110626 0.307537 0.307539C0.110624 0.504452 0 0.771524 0 1.05C0 1.32848 0.110624 1.59555 0.307537 1.79246C0.50445 1.98938 0.771522 2.1 1.05 2.1H16.21C16.4885 2.1 16.7555 1.98938 16.9525 1.79246C17.1494 1.59555 17.26 1.32848 17.26 1.05C17.26 0.771524 17.1494 0.504452 16.9525 0.307539C16.7555 0.110626 16.4885 0 16.21 0Z" transform="translate(38 21)" fill="white"/>
<path d="M16.205 0H1.045C0.767847 0 0.502048 0.110097 0.306072 0.306072C0.110097 0.502048 0 0.767849 0 1.045C0 1.32215 0.110097 1.58795 0.306072 1.78393C0.502048 1.9799 0.767847 2.09 1.045 2.09H16.205C16.4821 2.09 16.7479 1.9799 16.9439 1.78393C17.1399 1.58795 17.25 1.32215 17.25 1.045C17.25 0.767849 17.1399 0.502048 16.9439 0.306072C16.7479 0.110097 16.4821 0 16.205 0Z" transform="translate(38 26)" fill="white"/>
<path d="M16.205 0H1.045C0.767847 0 0.502048 0.110097 0.306072 0.306072C0.110097 0.502048 0 0.767849 0 1.045C0 1.32215 0.110097 1.58795 0.306072 1.78392C0.502048 1.9799 0.767847 2.09 1.045 2.09H16.205C16.4821 2.09 16.7479 1.9799 16.9439 1.78392C17.1399 1.58795 17.25 1.32215 17.25 1.045C17.25 0.767849 17.1399 0.502048 16.9439 0.306072C16.7479 0.110097 16.4821 0 16.205 0Z" transform="translate(38 30)" fill="white"/>
<path d="M16.205 0H1.045C0.767847 0 0.502048 0.110101 0.306072 0.306076C0.110097 0.502052 0 0.767851 0 1.045C0 1.32215 0.110097 1.58795 0.306072 1.78393C0.502048 1.9799 0.767847 2.09 1.045 2.09H16.205C16.4821 2.09 16.7479 1.9799 16.9439 1.78393C17.1399 1.58795 17.25 1.32215 17.25 1.045C17.25 0.767851 17.1399 0.502052 16.9439 0.306076C16.7479 0.110101 16.4821 0 16.205 0Z" transform="translate(38 35)" fill="white"/>
<path d="M8.14 0H1.05C0.771522 0 0.50445 0.110624 0.307537 0.307537C0.110624 0.50445 0 0.771522 0 1.05C0 1.32848 0.110624 1.59555 0.307537 1.79246C0.50445 1.98937 0.771522 2.1 1.05 2.1H8.14C8.41848 2.1 8.68555 1.98937 8.88246 1.79246C9.07937 1.59555 9.19 1.32848 9.19 1.05C9.19 0.771522 9.07937 0.50445 8.88246 0.307537C8.68555 0.110624 8.41848 0 8.14 0Z" transform="translate(38 40)" fill="white"/>
<path d="M20.3413 0.00131769H1.05132C0.911535 -0.00586509 0.771801 0.0163761 0.641156 0.0666024C0.510511 0.116829 0.391865 0.19392 0.292893 0.292892C0.193921 0.391864 0.116829 0.51051 0.0666024 0.641155C0.0163761 0.7718 -0.00586509 0.911534 0.00131769 1.05132V20.3413C0.00114803 20.477 0.0285738 20.6112 0.0819261 20.7359C0.135278 20.8606 0.213441 20.9732 0.311661 21.0667C0.409882 21.1602 0.526105 21.2328 0.653262 21.28C0.780418 21.3273 0.91585 21.3481 1.05132 21.3413H20.3413C20.6065 21.3413 20.8609 21.236 21.0484 21.0484C21.236 20.8609 21.3413 20.6065 21.3413 20.3413V1.05132C21.3481 0.915849 21.3273 0.780417 21.28 0.653261C21.2328 0.526104 21.1602 0.409881 21.0667 0.31166C20.9732 0.21344 20.8606 0.135276 20.7359 0.0819241C20.6112 0.0285719 20.477 0.00114803 20.3413 0.00131769ZM2.09132 2.09132H19.2913V13.0913H18.9413C18.2799 13.014 17.6097 13.0725 16.9718 13.2634C16.3338 13.4543 15.7416 13.7734 15.2313 14.2013C14.6347 14.6991 13.9039 15.0088 13.1313 15.0913C11.6513 15.2113 10.7013 14.4313 9.50132 13.4313C8.30132 12.4313 6.64132 11.0713 4.23132 11.2213C3.49595 11.2662 2.77297 11.4318 2.09132 11.7113V2.09132ZM19.2913 19.2913H2.09132V13.9513C2.77193 13.5217 3.54841 13.2674 4.35132 13.2113C5.94132 13.1113 6.97132 13.9613 8.16132 14.9513C9.35132 15.9413 10.9713 17.2713 13.3013 17.0813C14.4414 16.9725 15.5254 16.5348 16.4213 15.8213C16.727 15.5395 17.0896 15.3266 17.4847 15.1972C17.8798 15.0678 18.2982 15.0249 18.7113 15.0713C18.9078 15.0888 19.1021 15.1257 19.2913 15.1813V19.2913Z" transform="translate(14 20)" fill="white"/>
<path d="M3.21999 1.55351e-05C2.58426 -0.00196185 1.96226 0.184872 1.43285 0.536829C0.903442 0.888787 0.490459 1.39002 0.246263 1.97697C0.00206682 2.56393 -0.062345 3.21018 0.0611946 3.83379C0.184734 4.4574 0.490661 5.03028 0.940189 5.47981C1.38972 5.92934 1.9626 6.23527 2.58621 6.35881C3.20982 6.48234 3.85607 6.41793 4.44303 6.17374C5.02998 5.92954 5.53121 5.51656 5.88317 4.98715C6.23513 4.45774 6.42196 3.83574 6.41999 3.20001C6.41735 2.35213 6.07936 1.53973 5.47981 0.940186C4.88027 0.34064 4.06787 0.00265282 3.21999 1.55351e-05ZM3.21999 4.31002C2.99961 4.31199 2.78363 4.24832 2.59957 4.12712C2.41551 4.00591 2.27169 3.83266 2.18644 3.62943C2.10119 3.4262 2.07837 3.2022 2.12088 2.98595C2.16339 2.7697 2.26931 2.57101 2.42514 2.41517C2.58098 2.25934 2.77968 2.15342 2.99592 2.1109C3.21217 2.06839 3.43617 2.09122 3.6394 2.17647C3.84263 2.26172 4.01589 2.40553 4.13709 2.5896C4.25829 2.77366 4.32196 2.98964 4.31999 3.21001C4.32131 3.35531 4.29383 3.49942 4.23914 3.63404C4.18445 3.76865 4.10364 3.8911 4.00136 3.9943C3.89908 4.09751 3.77737 4.17943 3.64326 4.23534C3.50915 4.29124 3.36529 4.32002 3.21999 4.32002V4.31002Z" transform="translate(24 25)" fill="white"/>
</svg>
