<svg width="90" height="91" viewBox="0 0 90 91" fill="none" xmlns="http://www.w3.org/2000/svg">
<path d="M4.5 0C3.30734 0.00264157 2.16428 0.477596 1.32094 1.32094C0.477596 2.16428 0.00264157 3.30734 0 4.5H3C3 4.10218 3.15803 3.72065 3.43934 3.43934C3.72064 3.15804 4.10218 3 4.5 3C4.89782 3 5.27936 3.15804 5.56066 3.43934C5.84197 3.72065 6 4.10218 6 4.5H9C8.99736 3.30734 8.5224 2.16428 7.67906 1.32094C6.83572 0.477596 5.69266 0.00264157 4.5 0Z" transform="translate(35 29)" fill="#4792FD"/>
<path d="M4.5 0C3.30734 0.00264157 2.16428 0.477596 1.32094 1.32094C0.477596 2.16428 0.00264157 3.30734 0 4.5H3C3 4.10218 3.15803 3.72065 3.43934 3.43934C3.72064 3.15804 4.10218 3 4.5 3C4.89782 3 5.27936 3.15804 5.56066 3.43934C5.84197 3.72065 6 4.10218 6 4.5H9C8.99736 3.30734 8.5224 2.16428 7.67906 1.32094C6.83572 0.477596 5.69266 0.00264157 4.5 0Z" transform="translate(47 29)" fill="#4792FD"/>
<path d="M6 0C4.81332 0 3.65328 0.351896 2.66658 1.01118C1.67989 1.67047 0.910851 2.60755 0.456726 3.7039C0.00259972 4.80026 -0.11622 6.00665 0.115291 7.17054C0.346802 8.33443 0.918247 9.40352 1.75736 10.2426C2.59648 11.0818 3.66557 11.6532 4.82946 11.8847C5.99335 12.1162 7.19975 11.9974 8.2961 11.5433C9.39246 11.0891 10.3295 10.3201 10.9888 9.33342C11.6481 8.34672 12 7.18669 12 6C12 4.4087 11.3679 2.88258 10.2426 1.75736C9.11743 0.632144 7.5913 0 6 0ZM6 9C5.40666 9 4.82664 8.82405 4.33329 8.49441C3.83995 8.16476 3.45543 7.69623 3.22837 7.14805C3.0013 6.59987 2.94189 5.99667 3.05765 5.41473C3.1734 4.83278 3.45913 4.29823 3.87868 3.87868C4.29824 3.45912 4.83279 3.1734 5.41473 3.05765C5.99668 2.94189 6.59987 3.0013 7.14805 3.22836C7.69623 3.45543 8.16477 3.83994 8.49441 4.33329C8.82405 4.82664 9 5.40666 9 6C9 6.79565 8.68393 7.55871 8.12132 8.12132C7.55871 8.68393 6.79565 9 6 9Z" transform="translate(39 69)" fill="#4792FD"/>
<path d="M81 87.37V67.87C80.9947 61.9043 78.6225 56.1844 74.4041 51.9659C70.1856 47.7475 64.4657 45.3753 58.5 45.37H56.87C57.4004 44.898 57.9045 44.3972 58.38 43.87H60C61.9891 43.87 63.8968 43.0798 65.3033 41.6733C66.7098 40.2668 67.5 38.3591 67.5 36.37V33.73C68.4262 33.1151 69.1858 32.2806 69.7113 31.3009C70.2368 30.3212 70.5118 29.2267 70.5118 28.115C70.5118 27.0033 70.2368 25.9088 69.7113 24.9291C69.1858 23.9494 68.4262 23.1149 67.5 22.5C67.5 16.5326 65.1295 10.8097 60.9099 6.5901C56.6903 2.37053 50.9674 0 45 0C39.0326 0 33.3097 2.37053 29.0901 6.5901C24.8705 10.8097 22.5 16.5326 22.5 22.5C21.2925 23.3033 20.3759 24.4741 19.8858 25.839C19.3957 27.2039 19.3583 28.6904 19.779 30.0783C20.1998 31.4662 21.0563 32.6816 22.2218 33.5447C23.3873 34.4077 24.7998 34.8724 26.25 34.87H27.25C27.9473 38.9409 30.0234 42.6483 33.13 45.37H31.5C25.5343 45.3753 19.8144 47.7475 15.5959 51.9659C11.3775 56.1844 9.0053 61.9043 9 67.87V87.37H0V90.37H90V87.37H81ZM64.5 36.37C64.4973 37.4567 64.1006 38.5056 63.3834 39.3221C62.6663 40.1385 61.6773 40.6672 60.6 40.81C61.6565 38.9719 62.3778 36.9606 62.73 34.87H63.73C63.9814 34.8587 64.2319 34.832 64.48 34.79L64.5 36.37ZM67.5 28.12C67.5 28.6125 67.403 29.1001 67.2145 29.5551C67.0261 30.01 66.7499 30.4234 66.4016 30.7717C66.0534 31.1199 65.64 31.3961 65.1851 31.5845C64.7301 31.773 64.2425 31.87 63.75 31.87H63V24.37H63.75C64.7446 24.37 65.6984 24.7651 66.4016 25.4683C67.1049 26.1716 67.5 27.1254 67.5 28.12ZM27 31.87H26.25C25.2554 31.87 24.3016 31.4749 23.5983 30.7717C22.8951 30.0684 22.5 29.1146 22.5 28.12C22.5 27.1254 22.8951 26.1716 23.5983 25.4683C24.3016 24.7651 25.2554 24.37 26.25 24.37H27V31.87ZM26.25 21.37C26.02 21.37 25.8 21.42 25.57 21.44C25.9226 16.5277 28.1229 11.9312 31.7279 8.57576C35.3329 5.22027 40.075 3.35481 45 3.35481C49.925 3.35481 54.6671 5.22027 58.2721 8.57576C61.8771 11.9312 64.0774 16.5277 64.43 21.44C64.2 21.44 63.98 21.37 63.75 21.37H62.75C62.0192 17.1982 59.8407 13.4178 56.5978 10.6936C53.3549 7.96942 49.2553 6.47598 45.02 6.47598C40.7847 6.47598 36.6851 7.96942 33.4422 10.6936C30.1993 13.4178 28.0208 17.1982 27.29 21.37H26.25ZM60 24.37C49.17 23.99 42 19.56 42 15.37C42 14.9722 41.842 14.5906 41.5607 14.3093C41.2794 14.028 40.8978 13.87 40.5 13.87C40.1022 13.87 39.7206 14.028 39.4393 14.3093C39.158 14.5906 39 14.9722 39 15.37C39 19.12 35.12 22.22 30.09 22.78C30.5089 18.9712 32.3696 15.4671 35.2902 12.9867C38.2108 10.5063 41.97 9.23769 45.7964 9.44109C49.6227 9.6445 53.2262 11.3045 55.8674 14.0806C58.5086 16.8567 59.9872 20.5383 60 24.37ZM30 31.87V25.79C34.68 25.38 38.66 23.12 40.64 19.96C43.78 24.12 51.12 27.04 60 27.37V31.87C60.0065 35.1166 58.9532 38.2766 57 40.87H45V43.87H54C53.137 44.5208 52.2047 45.0742 51.22 45.52C48.935 46.5613 46.4251 47.0122 43.9206 46.8315C41.416 46.6508 38.9969 45.8442 36.885 44.4858C34.7732 43.1273 33.0361 41.2603 31.8332 39.0562C30.6303 36.852 29.9999 34.3811 30 31.87ZM40.36 49.24C43.3963 50.0801 46.6037 50.0801 49.64 49.24L45 58.52L40.36 49.24ZM42.57 60.37H39.93L33.93 48.37H36.57L42.57 60.37ZM53.43 48.37H56.07L50.07 60.37H47.43L53.43 48.37ZM16.5 67.87V87.37H12V67.87C12.0075 62.8591 13.9437 58.0435 17.4069 54.422C20.8701 50.8006 25.5945 48.6513 30.6 48.42L36.6 60.42H24C22.0109 60.42 20.1032 61.2102 18.6967 62.6167C17.2902 64.0232 16.5 65.9309 16.5 67.92V67.87ZM70.5 87.37H19.5V67.87C19.5026 66.6773 19.9776 65.5343 20.8209 64.6909C21.6643 63.8476 22.8073 63.3726 24 63.37H66C67.1927 63.3726 68.3357 63.8476 69.1791 64.6909C70.0224 65.5343 70.4974 66.6773 70.5 67.87V87.37ZM78 87.37H73.5V67.87C73.5 65.8809 72.7098 63.9732 71.3033 62.5667C69.8968 61.1602 67.9891 60.37 66 60.37H53.43L59.43 48.37C64.4389 48.6091 69.163 50.7687 72.6212 54.4001C76.0794 58.0314 78.0057 62.8555 78 67.87V87.37Z" fill="#4792FD"/>
<path d="M3 0H0V10.5H3V0Z" transform="translate(65 74)" fill="#4792FD"/>
<path d="M3 0H0V3H3V0Z" transform="translate(65 68)" fill="#4792FD"/>
<path d="M3 0H0V3H3V0Z" transform="translate(78 14)" fill="#4792FD"/>
<path d="M3 0H0V3H3V0Z" transform="translate(78 20)" fill="#4792FD"/>
<path d="M3 0H0V3H3V0Z" transform="translate(78 26)" fill="#4792FD"/>
<path d="M3 0H0V3H3V0Z" transform="translate(9 32)" fill="#4792FD"/>
<path d="M3 0H0V3H3V0Z" transform="translate(9 38)" fill="#4792FD"/>
<path d="M3 0H0V3H3V0Z" transform="translate(9 44)" fill="#4792FD"/>
</svg>
