<svg width="72" height="72" viewBox="0 0 72 72" fill="none" xmlns="http://www.w3.org/2000/svg">
<rect width="71.085" height="71.085" fill="black" fill-opacity="0"/>
<rect width="71.085" height="71.085" fill="black" fill-opacity="0"/>
<rect width="71.085" height="71.085" fill="black" fill-opacity="0"/>
<path d="M28.3325 12.5625C28.2962 12.3102 28.1792 12.0764 27.9989 11.8961C27.8186 11.7158 27.5848 11.5988 27.3325 11.5625L24.3325 11.0025C24.1565 10.4585 23.9358 9.93004 23.6725 9.4225L25.4125 6.9125C25.5628 6.70816 25.6438 6.46115 25.6438 6.2075C25.6438 5.95386 25.5628 5.70684 25.4125 5.5025C24.7168 4.61457 23.9216 3.80931 23.0425 3.1025C22.8364 2.95656 22.5901 2.87818 22.3375 2.87818C22.0849 2.87818 21.8386 2.95656 21.6325 3.1025L19.0925 4.7725C18.585 4.50924 18.0565 4.28848 17.5125 4.1125L16.9525 1.1125C16.9162 0.860164 16.7992 0.626365 16.6189 0.446098C16.4386 0.265832 16.2048 0.148794 15.9525 0.112502C14.8375 -0.0375008 13.7075 -0.0375008 12.5925 0.112502C12.3402 0.148794 12.1064 0.265832 11.9261 0.446098C11.7458 0.626365 11.6288 0.860164 11.5925 1.1125L11.0325 4.1125C10.4885 4.28848 9.96004 4.50924 9.4525 4.7725L6.8825 3.0425C6.67816 2.89223 6.43115 2.81119 6.1775 2.81119C5.92386 2.81119 5.67684 2.89223 5.4725 3.0425C4.59564 3.73683 3.80053 4.52858 3.1025 5.4025C2.95656 5.60862 2.87818 5.85495 2.87818 6.1075C2.87818 6.36006 2.95656 6.60639 3.1025 6.8125L4.7725 9.3925C4.50924 9.90004 4.28848 10.4285 4.1125 10.9725L1.1125 11.5325C0.860164 11.5688 0.626365 11.6858 0.446098 11.8661C0.265832 12.0464 0.148794 12.2802 0.112502 12.5325C-0.0375008 13.6475 -0.0375008 14.7775 0.112502 15.8925C0.148794 16.1448 0.265832 16.3786 0.446098 16.5589C0.626365 16.7392 0.860164 16.8562 1.1125 16.8925L4.1125 17.4525C4.28848 17.9965 4.50924 18.525 4.7725 19.0325L3.0425 21.6025C2.88516 21.8096 2.79997 22.0624 2.79997 22.3225C2.79997 22.5826 2.88516 22.8354 3.0425 23.0425C3.73747 23.9192 4.53291 24.7112 5.4125 25.4025C5.61684 25.5528 5.86386 25.6338 6.1175 25.6338C6.37115 25.6338 6.61816 25.5528 6.8225 25.4025L9.4025 23.7425C9.91004 24.0058 10.4385 24.2265 10.9825 24.4025L11.5425 27.4025C11.5788 27.6548 11.6958 27.8886 11.8761 28.0689C12.0564 28.2492 12.2902 28.3662 12.5425 28.4025C13.6575 28.5525 14.7875 28.5525 15.9025 28.4025C16.1548 28.3662 16.3886 28.2492 16.5689 28.0689C16.7492 27.8886 16.8662 27.6548 16.9025 27.4025L17.4625 24.4025C18.0065 24.2265 18.535 24.0058 19.0425 23.7425L21.5525 25.4825C21.7568 25.6328 22.0039 25.7138 22.2575 25.7138C22.5111 25.7138 22.7582 25.6328 22.9625 25.4825C23.8608 24.7688 24.67 23.9496 25.3725 23.0425C25.5228 22.8382 25.6038 22.5911 25.6038 22.3375C25.6038 22.0839 25.5228 21.8368 25.3725 21.6325L23.7125 19.0525C23.9758 18.545 24.1965 18.0165 24.3725 17.4725L27.3725 16.9125C27.6248 16.8762 27.8586 16.7592 28.0389 16.5789C28.2192 16.3986 28.3362 16.1648 28.3725 15.9125C28.5225 14.7975 28.5225 13.6675 28.3725 12.5525L28.3325 12.5625ZM26.1025 14.2625V14.8125L23.2625 15.3325C23.0361 15.3731 22.8266 15.479 22.6596 15.6371C22.4926 15.7952 22.3754 15.9987 22.3225 16.2225C22.1159 17.057 21.7784 17.8536 21.3225 18.5825C21.1948 18.7734 21.1266 18.9979 21.1266 19.2275C21.1266 19.4571 21.1948 19.6816 21.3225 19.8725L22.9525 22.2425C22.7136 22.5164 22.4564 22.7736 22.1825 23.0125L19.8425 21.3825C19.6516 21.2548 19.4271 21.1866 19.1975 21.1866C18.9679 21.1866 18.7434 21.2548 18.5525 21.3825C17.821 21.8403 17.0208 22.1779 16.1825 22.3825C15.9606 22.4358 15.7587 22.5519 15.6009 22.7168C15.4431 22.8817 15.336 23.0885 15.2925 23.3125L14.7825 26.0425H13.7025L13.1725 23.2025C13.1321 22.9787 13.0273 22.7716 12.871 22.6064C12.7147 22.4413 12.5137 22.3252 12.2925 22.2725C11.4542 22.0679 10.654 21.7303 9.9225 21.2725C9.73163 21.1448 9.50715 21.0766 9.2775 21.0766C9.04786 21.0766 8.82338 21.1448 8.6325 21.2725L6.2625 22.9525C5.99183 22.7135 5.7379 22.4563 5.5025 22.1825L7.1325 19.8125C7.25533 19.6198 7.32059 19.396 7.32059 19.1675C7.32059 18.939 7.25533 18.7152 7.1325 18.5225C6.67245 17.7958 6.33463 16.9985 6.1325 16.1625C6.0796 15.9387 5.96244 15.7352 5.79544 15.5771C5.62844 15.419 5.41887 15.3131 5.1925 15.2725L2.3925 14.7825V13.7025L5.2425 13.1725C5.46626 13.1321 5.67339 13.0273 5.83856 12.871C6.00372 12.7147 6.11977 12.5137 6.1725 12.2925C6.37308 11.4528 6.71096 10.6521 7.1725 9.9225C7.29244 9.73242 7.35609 9.51226 7.35609 9.2875C7.35609 9.06275 7.29244 8.84258 7.1725 8.6525L5.5125 6.2925C5.74616 6.01382 6.00382 5.75617 6.2825 5.5225L8.6525 7.1425C8.84521 7.26533 9.06898 7.33059 9.2975 7.33059C9.52603 7.33059 9.7498 7.26533 9.9425 7.1425C10.6749 6.68641 11.4748 6.34892 12.3125 6.1425C12.5357 6.08843 12.7386 5.9709 12.8965 5.8041C13.0544 5.63731 13.1607 5.42837 13.2025 5.2025L13.7025 2.3925H14.7825L15.3025 5.2325C15.346 5.45654 15.4531 5.66334 15.6109 5.82823C15.7687 5.99312 15.9706 6.10916 16.1925 6.1625C17.0308 6.36714 17.831 6.70475 18.5625 7.1625C18.7534 7.29019 18.9779 7.35836 19.2075 7.35836C19.4371 7.35836 19.6616 7.29019 19.8525 7.1625L22.2225 5.5325C22.494 5.77394 22.7511 6.03105 22.9925 6.3025L21.3425 8.6525C21.2148 8.84338 21.1466 9.06786 21.1466 9.2975C21.1466 9.52715 21.2148 9.75163 21.3425 9.9425C21.7986 10.6749 22.1361 11.4748 22.3425 12.3125C22.3966 12.5357 22.5141 12.7386 22.6809 12.8965C22.8477 13.0544 23.0566 13.1607 23.2825 13.2025L26.1225 13.7225L26.1025 14.2625Z" fill="#4792FD"/>
<path d="M70.9325 33.8625C70.8962 33.6102 70.7791 33.3764 70.5989 33.1961C70.4186 33.0159 70.1848 32.8988 69.9325 32.8625L66.9325 32.3025C66.7565 31.7585 66.5357 31.2301 66.2725 30.7225L68.0425 28.1825C68.1927 27.9782 68.2738 27.7312 68.2738 27.4775C68.2738 27.2239 68.1927 26.9769 68.0425 26.7725C67.345 25.8951 66.5499 25.1 65.6725 24.4025C65.4663 24.2566 65.22 24.1782 64.9675 24.1782C64.7149 24.1782 64.4686 24.2566 64.2625 24.4025L61.6925 26.0425C61.1849 25.7793 60.6564 25.5585 60.1125 25.3825L59.5525 22.3825C59.5162 22.1302 59.3991 21.8964 59.2189 21.7161C59.0386 21.5359 58.8048 21.4188 58.5525 21.3825C57.4375 21.2325 56.3074 21.2325 55.1925 21.3825C54.9401 21.4188 54.7063 21.5359 54.526 21.7161C54.3458 21.8964 54.2287 22.1302 54.1925 22.3825L53.6325 25.3825C53.085 25.558 52.5532 25.7787 52.0425 26.0425L49.5325 24.3025C49.3281 24.1523 49.0811 24.0712 48.8275 24.0712C48.5738 24.0712 48.3268 24.1523 48.1225 24.3025C47.245 25 46.4499 25.7951 45.7525 26.6725C45.6065 26.8786 45.5281 27.125 45.5281 27.3775C45.5281 27.6301 45.6065 27.8764 45.7525 28.0825L47.4225 30.6625C47.1592 31.1701 46.9384 31.6985 46.7625 32.2425L43.7625 32.8025C43.5192 32.8485 43.2966 32.9698 43.1261 33.1493C42.9556 33.3287 42.8459 33.5573 42.8125 33.8025C42.6625 34.9175 42.6625 36.0475 42.8125 37.1625C42.8459 37.4078 42.9556 37.6363 43.1261 37.8158C43.2966 37.9952 43.5192 38.1165 43.7625 38.1625L46.7625 38.7225C46.9384 39.2665 47.1592 39.795 47.4225 40.3025L45.6825 42.8125C45.5322 43.0169 45.4511 43.2639 45.4511 43.5175C45.4511 43.7712 45.5322 44.0182 45.6825 44.2225C46.3688 45.1302 47.1611 45.9527 48.0425 46.6725C48.2468 46.8228 48.4938 46.9038 48.7475 46.9038C49.0011 46.9038 49.2481 46.8228 49.4525 46.6725L52.0425 45.0425C52.55 45.3058 53.0785 45.5265 53.6225 45.7025L54.1825 48.7025C54.2187 48.9549 54.3358 49.1887 54.516 49.3689C54.6963 49.5492 54.9301 49.6662 55.1825 49.7025C56.2974 49.8525 57.4275 49.8525 58.5425 49.7025C58.7948 49.6662 59.0286 49.5492 59.2089 49.3689C59.3891 49.1887 59.5062 48.9549 59.5425 48.7025L60.1025 45.7025C60.6499 45.5271 61.1817 45.3063 61.6925 45.0425L64.2025 46.7825C64.4068 46.9328 64.6538 47.0138 64.9075 47.0138C65.1611 47.0138 65.4081 46.9328 65.6125 46.7825C66.4899 46.0851 67.285 45.2899 67.9825 44.4125C68.1284 44.2064 68.2068 43.9601 68.2068 43.7075C68.2068 43.455 68.1284 43.2086 67.9825 43.0025L66.3125 40.4225C66.5757 39.915 66.7965 39.3865 66.9725 38.8425L69.9725 38.2825C70.2248 38.2462 70.4586 38.1292 70.6389 37.9489C70.8191 37.7687 70.9362 37.5349 70.9725 37.2825C71.1225 36.1675 71.1225 35.0375 70.9725 33.9225L70.9325 33.8625ZM68.7425 35.5425C68.7425 35.7225 68.6725 35.9025 68.6725 36.0825L65.8325 36.6125C65.6087 36.653 65.4016 36.7577 65.2364 36.914C65.0712 37.0703 64.9552 37.2713 64.9025 37.4925C64.6978 38.3309 64.3602 39.131 63.9025 39.8625C63.7748 40.0534 63.7066 40.2779 63.7066 40.5075C63.7066 40.7372 63.7748 40.9616 63.9025 41.1525L65.5325 43.5225C65.2935 43.7932 65.0362 44.0471 64.7625 44.2825L62.3925 42.6525C62.1997 42.5297 61.976 42.4644 61.7475 42.4644C61.5189 42.4644 61.2952 42.5297 61.1025 42.6525C60.3757 43.1126 59.5785 43.4504 58.7425 43.6525C58.5186 43.7054 58.3152 43.8226 58.1571 43.9896C57.9989 44.1566 57.8931 44.3662 57.8525 44.5925L57.3625 47.3925H56.3025L55.7825 44.5525C55.7389 44.3285 55.6319 44.1217 55.4741 43.9568C55.3163 43.7919 55.1144 43.6759 54.8925 43.6225C54.0541 43.4179 53.254 43.0803 52.5225 42.6225C52.3316 42.4948 52.1071 42.4267 51.8775 42.4267C51.6478 42.4267 51.4233 42.4948 51.2325 42.6225L48.8625 44.2525C48.591 44.0111 48.3339 43.754 48.0925 43.4825L49.7325 41.1125C49.8553 40.9198 49.9205 40.696 49.9205 40.4675C49.9205 40.239 49.8553 40.0152 49.7325 39.8225C49.2724 39.0958 48.9346 38.2985 48.7325 37.4625C48.6795 37.2387 48.5624 37.0352 48.3954 36.8771C48.2284 36.719 48.0188 36.6131 47.7925 36.5725L45.0425 36.0425V35.0425L47.8825 34.5125C48.1062 34.4721 48.3133 34.3673 48.4785 34.211C48.6437 34.0547 48.7597 33.8537 48.8125 33.6325C49.0171 32.7942 49.3547 31.9941 49.8125 31.2625C49.9401 31.0716 50.0083 30.8472 50.0083 30.6175C50.0083 30.3879 49.9401 30.1634 49.8125 29.9725L48.1825 27.6025C48.4239 27.3311 48.681 27.074 48.9525 26.8325L51.3225 28.4725C51.5152 28.5954 51.7389 28.6606 51.9675 28.6606C52.196 28.6606 52.4197 28.5954 52.6125 28.4725C53.3392 28.0125 54.1364 27.6747 54.9725 27.4725C55.1963 27.4196 55.3997 27.3025 55.5579 27.1355C55.716 26.9685 55.8218 26.7589 55.8625 26.5325L56.3825 23.6925H57.4725L57.9925 26.5325C58.0343 26.7584 58.1405 26.9673 58.2985 27.1341C58.4564 27.3009 58.6592 27.4184 58.8825 27.4725C59.7185 27.6747 60.5157 28.0125 61.2425 28.4725C61.4352 28.5954 61.6589 28.6606 61.8875 28.6606C62.116 28.6606 62.3398 28.5954 62.5325 28.4725L64.9025 26.8325C65.1739 27.074 65.431 27.3311 65.6725 27.6025L64.0425 29.9325C63.9148 30.1234 63.8466 30.3479 63.8466 30.5775C63.8466 30.8072 63.9148 31.0316 64.0425 31.2225C64.5002 31.9541 64.8378 32.7542 65.0425 33.5925C65.0952 33.8137 65.2112 34.0147 65.3764 34.171C65.5416 34.3273 65.7487 34.4321 65.9725 34.4725L68.7425 35.0425V35.5425Z" fill="#4792FD"/>
<path d="M28.3325 55.1625C28.2962 54.9102 28.1792 54.6764 27.9989 54.4961C27.8186 54.3159 27.5848 54.1988 27.3325 54.1625L24.3325 53.6025C24.1684 53.0666 23.9611 52.5449 23.7125 52.0425L25.4525 49.5325C25.6028 49.3282 25.6838 49.0812 25.6838 48.8275C25.6838 48.5739 25.6028 48.3269 25.4525 48.1225C24.7455 47.2253 23.9368 46.4132 23.0425 45.7025C22.8364 45.5566 22.5901 45.4782 22.3375 45.4782C22.0849 45.4782 21.8386 45.5566 21.6325 45.7025L19.0525 47.3725C18.545 47.1093 18.0165 46.8885 17.4725 46.7125L16.9125 43.7125C16.8665 43.4693 16.7452 43.2467 16.5658 43.0762C16.3863 42.9057 16.1578 42.796 15.9125 42.7625C14.7975 42.6125 13.6675 42.6125 12.5525 42.7625C12.3072 42.796 12.0787 42.9057 11.8992 43.0762C11.7198 43.2467 11.5985 43.4693 11.5525 43.7125L10.9925 46.7125C10.4485 46.8885 9.92004 47.1093 9.4125 47.3725L6.8825 45.6325C6.67816 45.4823 6.43115 45.4012 6.1775 45.4012C5.92386 45.4012 5.67684 45.4823 5.4725 45.6325C4.59282 46.3425 3.79761 47.1511 3.1025 48.0425C2.95656 48.2486 2.87818 48.495 2.87818 48.7475C2.87818 49.0001 2.95656 49.2464 3.1025 49.4525L4.7725 52.0425C4.50924 52.5501 4.28848 53.0785 4.1125 53.6225L1.1125 54.1825C0.860164 54.2188 0.626365 54.3359 0.446098 54.5161C0.265832 54.6964 0.148794 54.9302 0.112502 55.1825C-0.0375008 56.2975 -0.0375008 57.4275 0.112502 58.5425C0.148794 58.7949 0.265832 59.0287 0.446098 59.2089C0.626365 59.3892 0.860164 59.5062 1.1125 59.5425L4.1125 60.1025C4.28848 60.6465 4.50924 61.175 4.7725 61.6825L3.0425 64.2025C2.89223 64.4069 2.81119 64.6539 2.81119 64.9075C2.81119 65.1612 2.89223 65.4082 3.0425 65.6125C3.73995 66.49 4.53508 67.2851 5.4125 67.9825C5.61862 68.1285 5.86495 68.2068 6.1175 68.2068C6.37006 68.2068 6.61639 68.1285 6.8225 67.9825L9.4025 66.3125C9.91004 66.5758 10.4385 66.7965 10.9825 66.9725L11.5425 69.9725C11.5788 70.2249 11.6958 70.4587 11.8761 70.6389C12.0564 70.8192 12.2902 70.9362 12.5425 70.9725C13.6575 71.1225 14.7875 71.1225 15.9025 70.9725C16.1548 70.9362 16.3886 70.8192 16.5689 70.6389C16.7492 70.4587 16.8662 70.2249 16.9025 69.9725L17.4625 66.9725C18.0065 66.7965 18.535 66.5758 19.0425 66.3125L21.6025 68.0425C21.8096 68.1999 22.0624 68.2851 22.3225 68.2851C22.5826 68.2851 22.8354 68.1999 23.0425 68.0425C23.9192 67.3476 24.7112 66.5521 25.4025 65.6725C25.5528 65.4682 25.6338 65.2212 25.6338 64.9675C25.6338 64.7139 25.5528 64.4669 25.4025 64.2625L23.7425 61.6825C24.0058 61.175 24.2265 60.6465 24.4025 60.1025L27.4025 59.5425C27.6548 59.5062 27.8886 59.3892 28.0689 59.2089C28.2492 59.0287 28.3662 58.7949 28.4025 58.5425C28.5525 57.4275 28.5525 56.2975 28.4025 55.1825L28.3325 55.1625ZM26.1425 56.8425V57.3825L23.3025 57.9125C23.0792 57.9542 22.8727 58.0593 22.7078 58.2154C22.5428 58.3715 22.4264 58.5719 22.3725 58.7925C22.1679 59.6309 21.8303 60.431 21.3725 61.1625C21.2448 61.3534 21.1766 61.5779 21.1766 61.8075C21.1766 62.0372 21.2448 62.2617 21.3725 62.4525L23.0425 64.8225C22.8035 65.0932 22.5463 65.3471 22.2725 65.5825L19.9025 63.9525C19.7098 63.8297 19.486 63.7644 19.2575 63.7644C19.029 63.7644 18.8052 63.8297 18.6125 63.9525C17.8858 64.4126 17.0885 64.7504 16.2525 64.9525C16.0293 65.0066 15.8264 65.1241 15.6685 65.2909C15.5106 65.4577 15.4043 65.6667 15.3625 65.8925L14.8025 68.6925H13.7025L13.1725 65.8525C13.1321 65.6288 13.0273 65.4216 12.871 65.2565C12.7147 65.0913 12.5137 64.9753 12.2925 64.9225C11.4542 64.7179 10.654 64.3803 9.9225 63.9225C9.73163 63.7948 9.50715 63.7267 9.2775 63.7267C9.04786 63.7267 8.82338 63.7948 8.6325 63.9225L6.2625 65.5525C5.99183 65.3136 5.7379 65.0563 5.5025 64.7825L7.1325 62.4125C7.25533 62.2198 7.32059 61.996 7.32059 61.7675C7.32059 61.539 7.25533 61.3152 7.1325 61.1225C6.67245 60.3958 6.33463 59.5986 6.1325 58.7625C6.0796 58.5387 5.96244 58.3352 5.79544 58.1771C5.62844 58.019 5.41887 57.9131 5.1925 57.8725L2.3925 57.3825V56.3025L5.2325 55.7825C5.45654 55.739 5.66334 55.6319 5.82823 55.4741C5.99312 55.3163 6.10916 55.1144 6.1625 54.8925C6.36714 54.0542 6.70475 53.2541 7.1625 52.5225C7.29019 52.3317 7.35836 52.1072 7.35836 51.8775C7.35836 51.6479 7.29019 51.4234 7.1625 51.2325L5.5325 48.8625C5.77394 48.5911 6.03105 48.334 6.3025 48.0925L8.6725 49.7325C8.86521 49.8554 9.08898 49.9206 9.3175 49.9206C9.54603 49.9206 9.7698 49.8554 9.9625 49.7325C10.6892 49.2725 11.4865 48.9347 12.3225 48.7325C12.5463 48.6796 12.7498 48.5625 12.9079 48.3955C13.066 48.2285 13.1719 48.0189 13.2125 47.7925L13.7325 44.9525H14.8225L15.3425 47.7925C15.3843 48.0184 15.4906 48.2273 15.6485 48.3941C15.8064 48.5609 16.0093 48.6785 16.2325 48.7325C17.0685 48.9347 17.8658 49.2725 18.5925 49.7325C18.7852 49.8554 19.009 49.9206 19.2375 49.9206C19.466 49.9206 19.6898 49.8554 19.8825 49.7325L22.2525 48.0925C22.524 48.334 22.7811 48.5911 23.0225 48.8625L21.3925 51.2325C21.2648 51.4234 21.1966 51.6479 21.1966 51.8775C21.1966 52.1072 21.2648 52.3317 21.3925 52.5225C21.8503 53.2541 22.1879 54.0542 22.3925 54.8925C22.4481 55.1133 22.5648 55.314 22.7293 55.4715C22.8938 55.6289 23.0994 55.7367 23.3225 55.7825L26.1625 56.3025L26.1425 56.8425Z" fill="#4792FD"/>
<path d="M27.9325 9.40251L28.9325 7.26251L31.0725 8.26251L30.0725 10.3925L27.9325 9.40251Z" fill="#4792FD"/>
<path d="M40.7524 15.4925L41.7524 13.3625L43.8924 14.3625L42.8924 16.5025L40.7524 15.4925Z" fill="#4792FD"/>
<path d="M32.2025 11.4325L33.2025 9.30249L35.3425 10.3025L34.3425 12.4425L32.2025 11.4325Z" fill="#4792FD"/>
<path d="M49.3025 19.5625L50.3025 17.4325L52.4425 18.4325L51.4425 20.5625L49.3025 19.5625Z" fill="#4792FD"/>
<path d="M45.0425 17.5325L46.0425 15.3925L48.1725 16.3925L47.1725 18.5325L45.0425 17.5325Z" fill="#4792FD"/>
<path d="M36.4926 13.4625L37.4926 11.3225L39.6326 12.3225L38.6326 14.4625L36.4926 13.4625Z" fill="#4792FD"/>
<path d="M34.9125 35.2225L33.7825 33.1525L31.7125 34.2925L32.1225 35.0425L31.2825 36.7925L33.4225 37.7925L34.4225 35.6625L34.2325 35.5725L34.9125 35.2225Z" fill="#4792FD"/>
<path d="M22.7325 32.7425L23.7325 30.6025L25.8625 31.6025L24.8625 33.7425L22.7325 32.7425Z" fill="#4792FD"/>
<path d="M35.5625 38.8425L36.5625 36.7025L38.6925 37.7025L37.6925 39.8425L35.5625 38.8425Z" fill="#4792FD"/>
<path d="M39.8425 40.8825L40.8425 38.7425L42.9725 39.7425L41.9725 41.8725L39.8425 40.8825Z" fill="#4792FD"/>
<path d="M18.4625 30.7025L19.4625 28.5725L21.6025 29.5725L20.6025 31.7125L18.4625 30.7025Z" fill="#4792FD"/>
<path d="M40.3125 54.8825L42.3825 53.7425L43.5225 55.8125L41.4525 56.9525L40.3125 54.8825Z" fill="#4792FD"/>
<path d="M48.6125 50.3125L50.6926 49.1725L51.8326 51.2425L49.7525 52.3825L48.6125 50.3125Z" fill="#4792FD"/>
<path d="M36.1725 57.1525L38.2525 56.0425L39.3925 58.0425L37.3225 59.1825L36.1725 57.1525Z" fill="#4792FD"/>
<path d="M44.4725 52.5925L46.5425 51.4525L47.6825 53.5325L45.6125 54.6725L44.4725 52.5925Z" fill="#4792FD"/>
<path d="M27.8726 61.7225L29.9426 60.5825L31.0426 62.6525L29.0426 63.7925L27.8726 61.7225Z" fill="#4792FD"/>
<path d="M32.0425 59.4425L34.1125 58.3025L35.2525 60.3725L33.1825 61.5125L32.0425 59.4425Z" fill="#4792FD"/>
<path d="M29.6225 35.4325L29.2125 35.6625L30.2125 33.6625L28.0725 32.6625L27.0725 34.7925L29.1325 35.7925L27.6125 36.6225L28.7525 38.6925L30.8325 37.5525L29.6225 35.4325Z" fill="#4792FD"/>
<path d="M40.0425 29.7225L42.0425 28.5825L43.1825 30.6625L41.1125 31.8025L40.0425 29.7225Z" fill="#4792FD"/>
<path d="M19.2625 41.1225L21.3325 39.9825L22.4725 42.0425L20.4025 43.1825L19.2625 41.1225Z" fill="#4792FD"/>
<path d="M23.3925 38.8625L25.4725 37.7225L26.6125 39.7925L24.5325 40.9325L23.3925 38.8625Z" fill="#4792FD"/>
<path d="M35.8525 32.0425L37.9225 30.8925L39.0425 32.9425L37.0425 34.0425L35.8525 32.0425Z" fill="#4792FD"/>
<path d="M14.2425 8.32251C13.0716 8.32251 11.9271 8.66971 10.9535 9.32021C9.98 9.97071 9.22122 10.8953 8.77315 11.977C8.32507 13.0588 8.20784 14.2491 8.43626 15.3974C8.66469 16.5458 9.22851 17.6007 10.0564 18.4286C10.8844 19.2565 11.9392 19.8203 13.0876 20.0488C14.2359 20.2772 15.4263 20.1599 16.508 19.7119C17.5897 19.2638 18.5143 18.505 19.1648 17.5315C19.8153 16.5579 20.1625 15.4134 20.1625 14.2425C20.1625 12.6724 19.5388 11.1667 18.4286 10.0564C17.3184 8.94622 15.8126 8.32251 14.2425 8.32251ZM14.2425 17.7925C13.5404 17.7925 12.854 17.5843 12.2702 17.1942C11.6864 16.8041 11.2314 16.2497 10.9627 15.601C10.694 14.9524 10.6237 14.2386 10.7607 13.5499C10.8977 12.8613 11.2358 12.2288 11.7323 11.7323C12.2288 11.2358 12.8613 10.8977 13.5499 10.7607C14.2386 10.6237 14.9524 10.694 15.601 10.9627C16.2497 11.2314 16.8041 11.6864 17.1942 12.2702C17.5843 12.854 17.7925 13.5404 17.7925 14.2425C17.7925 15.184 17.4185 16.087 16.7527 16.7527C16.087 17.4185 15.184 17.7925 14.2425 17.7925Z" fill="#4792FD"/>
<path d="M56.8425 29.6225C55.6716 29.6225 54.5271 29.9697 53.5535 30.6202C52.58 31.2707 51.8212 32.1953 51.3731 33.277C50.9251 34.3587 50.8078 35.5491 51.0362 36.6974C51.2647 37.8458 51.8285 38.9006 52.6564 39.7286C53.4843 40.5565 54.5392 41.1203 55.6876 41.3487C56.8359 41.5772 58.0262 41.4599 59.108 41.0119C60.1897 40.5638 61.1143 39.805 61.7648 38.8315C62.4153 37.8579 62.7625 36.7134 62.7625 35.5425C62.7625 33.9724 62.1388 32.4666 61.0286 31.3564C59.9183 30.2462 58.4126 29.6225 56.8425 29.6225ZM56.8425 39.0925C56.1404 39.0925 55.454 38.8843 54.8702 38.4942C54.2864 38.1041 53.8314 37.5497 53.5627 36.901C53.294 36.2523 53.2237 35.5386 53.3607 34.8499C53.4977 34.1613 53.8358 33.5287 54.3323 33.0323C54.8287 32.5358 55.4613 32.1977 56.1499 32.0607C56.8385 31.9237 57.5523 31.994 58.201 32.2627C58.8497 32.5314 59.4041 32.9864 59.7942 33.5702C60.1843 34.154 60.3925 34.8404 60.3925 35.5425C60.3925 36.484 60.0185 37.387 59.3527 38.0527C58.687 38.7185 57.784 39.0925 56.8425 39.0925Z" fill="#4792FD"/>
<path d="M14.2425 50.9225C13.0716 50.9225 11.9271 51.2697 10.9535 51.9202C9.98 52.5707 9.22122 53.4953 8.77315 54.577C8.32507 55.6587 8.20784 56.8491 8.43626 57.9974C8.66469 59.1458 9.22851 60.2006 10.0564 61.0286C10.8844 61.8565 11.9392 62.4203 13.0876 62.6487C14.2359 62.8772 15.4263 62.7599 16.508 62.3119C17.5897 61.8638 18.5143 61.105 19.1648 60.1315C19.8153 59.1579 20.1625 58.0133 20.1625 56.8425C20.1625 55.2724 19.5388 53.7666 18.4286 52.6564C17.3184 51.5462 15.8126 50.9225 14.2425 50.9225ZM14.2425 60.3925C13.5404 60.3925 12.854 60.1843 12.2702 59.7942C11.6864 59.4041 11.2314 58.8497 10.9627 58.201C10.694 57.5523 10.6237 56.8385 10.7607 56.1499C10.8977 55.4613 11.2358 54.8287 11.7323 54.3323C12.2288 53.8358 12.8613 53.4977 13.5499 53.3607C14.2386 53.2237 14.9524 53.294 15.601 53.5627C16.2497 53.8314 16.8041 54.2864 17.1942 54.8702C17.5843 55.454 17.7925 56.1404 17.7925 56.8425C17.7925 57.784 17.4185 58.687 16.7527 59.3527C16.087 60.0185 15.184 60.3925 14.2425 60.3925Z" fill="#4792FD"/>
</svg>
